<svg xmlns="http://www.w3.org/2000/svg" xmlns:xlink="http://www.w3.org/1999/xlink" contentstyletype="text/css" height="883px" preserveAspectRatio="none" style="width:1912px;height:883px;background:#FFFFFF;" version="1.1" viewBox="0 0 1912 883" width="1912px" zoomAndPan="magnify"><defs></defs><g><!--class FileParser--><g id="elem_FileParser"><rect codeline="2" fill="#F1F1F1" height="64.2969" id="FileParser" rx="2.5" ry="2.5" style="stroke:#181818;stroke-width:0.5;" width="213" x="893.5" y="115"></rect><ellipse cx="963.25" cy="131" fill="#B4A7E5" rx="11" ry="11" style="stroke:#181818;stroke-width:1.0;"></ellipse><path d="M959.1719,126.7656 L959.1719,124.6094 L966.5625,124.6094 L966.5625,126.7656 L964.0938,126.7656 L964.0938,134.8438 L966.5625,134.8438 L966.5625,137 L959.1719,137 L959.1719,134.8438 L961.6406,134.8438 L961.6406,126.7656 L959.1719,126.7656 Z " fill="#000000"></path><text fill="#000000" font-family="sans-serif" font-size="14" font-style="italic" lengthAdjust="spacing" textLength="65" x="983.75" y="135.8467">FileParser</text><line style="stroke:#181818;stroke-width:0.5;" x1="894.5" x2="1105.5" y1="147" y2="147"></line><line style="stroke:#181818;stroke-width:0.5;" x1="894.5" x2="1105.5" y1="155" y2="155"></line><text fill="#000000" font-family="sans-serif" font-size="14" lengthAdjust="spacing" textLength="201" x="899.5" y="171.9951">async parse(file: string) : void</text></g><!--class HtmlParser--><g id="elem_HtmlParser"><rect codeline="6" fill="#F1F1F1" height="64.2969" id="HtmlParser" rx="2.5" ry="2.5" style="stroke:#181818;stroke-width:0.5;" width="269" x="865.5" y="455"></rect><ellipse cx="958.75" cy="471" fill="#B4A7E5" rx="11" ry="11" style="stroke:#181818;stroke-width:1.0;"></ellipse><path d="M954.6719,466.7656 L954.6719,464.6094 L962.0625,464.6094 L962.0625,466.7656 L959.5938,466.7656 L959.5938,474.8438 L962.0625,474.8438 L962.0625,477 L954.6719,477 L954.6719,474.8438 L957.1406,474.8438 L957.1406,466.7656 L954.6719,466.7656 Z " fill="#000000"></path><text fill="#000000" font-family="sans-serif" font-size="14" font-style="italic" lengthAdjust="spacing" textLength="74" x="979.25" y="475.8467">HtmlParser</text><line style="stroke:#181818;stroke-width:0.5;" x1="866.5" x2="1133.5" y1="487" y2="487"></line><line style="stroke:#181818;stroke-width:0.5;" x1="866.5" x2="1133.5" y1="495" y2="495"></line><text fill="#000000" font-family="sans-serif" font-size="14" lengthAdjust="spacing" textLength="257" x="871.5" y="511.9951">async parse(element: Element) : void</text></g><!--class AnchorParser--><g id="elem_AnchorParser"><rect codeline="9" fill="#F1F1F1" height="80.5938" id="AnchorParser" rx="2.5" ry="2.5" style="stroke:#181818;stroke-width:0.5;" width="438" x="171" y="687"></rect><ellipse cx="339.75" cy="703" fill="#B4A7E5" rx="11" ry="11" style="stroke:#181818;stroke-width:1.0;"></ellipse><path d="M335.6719,698.7656 L335.6719,696.6094 L343.0625,696.6094 L343.0625,698.7656 L340.5938,698.7656 L340.5938,706.8438 L343.0625,706.8438 L343.0625,709 L335.6719,709 L335.6719,706.8438 L338.1406,706.8438 L338.1406,698.7656 L335.6719,698.7656 Z " fill="#000000"></path><text fill="#000000" font-family="sans-serif" font-size="14" font-style="italic" lengthAdjust="spacing" textLength="92" x="360.25" y="707.8467">AnchorParser</text><line style="stroke:#181818;stroke-width:0.5;" x1="172" x2="608" y1="719" y2="719"></line><line style="stroke:#181818;stroke-width:0.5;" x1="172" x2="608" y1="727" y2="727"></line><text fill="#000000" font-family="sans-serif" font-size="14" lengthAdjust="spacing" textLength="318" x="177" y="743.9951">canParse(anchor: HTMLAnchorElement) : bool</text><text fill="#000000" font-family="sans-serif" font-size="14" lengthAdjust="spacing" textLength="426" x="177" y="760.292">async parse(file: string, anchor: HTMLAnchorElement) : string;</text></g><!--class CompositeFileParser--><g id="elem_CompositeFileParser"><rect fill="#F1F1F1" height="48" id="CompositeFileParser" rx="2.5" ry="2.5" style="stroke:#181818;stroke-width:0.5;" width="174" x="913" y="7"></rect><ellipse cx="928" cy="23" fill="#ADD1B2" rx="11" ry="11" style="stroke:#181818;stroke-width:1.0;"></ellipse><path d="M930.9688,28.6406 Q930.3906,28.9375 929.75,29.0781 Q929.1094,29.2344 928.4063,29.2344 Q925.9063,29.2344 924.5781,27.5938 Q923.2656,25.9375 923.2656,22.8125 Q923.2656,19.6875 924.5781,18.0313 Q925.9063,16.375 928.4063,16.375 Q929.1094,16.375 929.75,16.5313 Q930.4063,16.6875 930.9688,16.9844 L930.9688,19.7031 Q930.3438,19.125 929.75,18.8594 Q929.1563,18.5781 928.5313,18.5781 Q927.1875,18.5781 926.5,19.6563 Q925.8125,20.7188 925.8125,22.8125 Q925.8125,24.9063 926.5,25.9844 Q927.1875,27.0469 928.5313,27.0469 Q929.1563,27.0469 929.75,26.7813 Q930.3438,26.5 930.9688,25.9219 L930.9688,28.6406 Z " fill="#000000"></path><text fill="#000000" font-family="sans-serif" font-size="14" lengthAdjust="spacing" textLength="142" x="942" y="27.8467">CompositeFileParser</text><line style="stroke:#181818;stroke-width:0.5;" x1="914" x2="1086" y1="39" y2="39"></line><line style="stroke:#181818;stroke-width:0.5;" x1="914" x2="1086" y1="47" y2="47"></line></g><!--class AsyncapiFileParser--><g id="elem_AsyncapiFileParser"><rect fill="#F1F1F1" height="48" id="AsyncapiFileParser" rx="2.5" ry="2.5" style="stroke:#181818;stroke-width:0.5;" width="160" x="139" y="239"></rect><ellipse cx="154" cy="255" fill="#ADD1B2" rx="11" ry="11" style="stroke:#181818;stroke-width:1.0;"></ellipse><path d="M156.9688,260.6406 Q156.3906,260.9375 155.75,261.0781 Q155.1094,261.2344 154.4063,261.2344 Q151.9063,261.2344 150.5781,259.5938 Q149.2656,257.9375 149.2656,254.8125 Q149.2656,251.6875 150.5781,250.0313 Q151.9063,248.375 154.4063,248.375 Q155.1094,248.375 155.75,248.5313 Q156.4063,248.6875 156.9688,248.9844 L156.9688,251.7031 Q156.3438,251.125 155.75,250.8594 Q155.1563,250.5781 154.5313,250.5781 Q153.1875,250.5781 152.5,251.6563 Q151.8125,252.7188 151.8125,254.8125 Q151.8125,256.9063 152.5,257.9844 Q153.1875,259.0469 154.5313,259.0469 Q155.1563,259.0469 155.75,258.7813 Q156.3438,258.5 156.9688,257.9219 L156.9688,260.6406 Z " fill="#000000"></path><text fill="#000000" font-family="sans-serif" font-size="14" lengthAdjust="spacing" textLength="128" x="168" y="259.8467">AsyncapiFileParser</text><line style="stroke:#181818;stroke-width:0.5;" x1="140" x2="298" y1="271" y2="271"></line><line style="stroke:#181818;stroke-width:0.5;" x1="140" x2="298" y1="279" y2="279"></line></g><!--class DashboardFileParser--><g id="elem_DashboardFileParser"><rect fill="#F1F1F1" height="48" id="DashboardFileParser" rx="2.5" ry="2.5" style="stroke:#181818;stroke-width:0.5;" width="175" x="334.5" y="239"></rect><ellipse cx="349.5" cy="255" fill="#ADD1B2" rx="11" ry="11" style="stroke:#181818;stroke-width:1.0;"></ellipse><path d="M352.4688,260.6406 Q351.8906,260.9375 351.25,261.0781 Q350.6094,261.2344 349.9063,261.2344 Q347.4063,261.2344 346.0781,259.5938 Q344.7656,257.9375 344.7656,254.8125 Q344.7656,251.6875 346.0781,250.0313 Q347.4063,248.375 349.9063,248.375 Q350.6094,248.375 351.25,248.5313 Q351.9063,248.6875 352.4688,248.9844 L352.4688,251.7031 Q351.8438,251.125 351.25,250.8594 Q350.6563,250.5781 350.0313,250.5781 Q348.6875,250.5781 348,251.6563 Q347.3125,252.7188 347.3125,254.8125 Q347.3125,256.9063 348,257.9844 Q348.6875,259.0469 350.0313,259.0469 Q350.6563,259.0469 351.25,258.7813 Q351.8438,258.5 352.4688,257.9219 L352.4688,260.6406 Z " fill="#000000"></path><text fill="#000000" font-family="sans-serif" font-size="14" lengthAdjust="spacing" textLength="143" x="363.5" y="259.8467">DashboardFileParser</text><line style="stroke:#181818;stroke-width:0.5;" x1="335.5" x2="508.5" y1="271" y2="271"></line><line style="stroke:#181818;stroke-width:0.5;" x1="335.5" x2="508.5" y1="279" y2="279"></line></g><!--class DrawIOFileParser--><g id="elem_DrawIOFileParser"><rect fill="#F1F1F1" height="48" id="DrawIOFileParser" rx="2.5" ry="2.5" style="stroke:#181818;stroke-width:0.5;" width="148" x="545" y="239"></rect><ellipse cx="560" cy="255" fill="#ADD1B2" rx="11" ry="11" style="stroke:#181818;stroke-width:1.0;"></ellipse><path d="M562.9688,260.6406 Q562.3906,260.9375 561.75,261.0781 Q561.1094,261.2344 560.4063,261.2344 Q557.9063,261.2344 556.5781,259.5938 Q555.2656,257.9375 555.2656,254.8125 Q555.2656,251.6875 556.5781,250.0313 Q557.9063,248.375 560.4063,248.375 Q561.1094,248.375 561.75,248.5313 Q562.4063,248.6875 562.9688,248.9844 L562.9688,251.7031 Q562.3438,251.125 561.75,250.8594 Q561.1563,250.5781 560.5313,250.5781 Q559.1875,250.5781 558.5,251.6563 Q557.8125,252.7188 557.8125,254.8125 Q557.8125,256.9063 558.5,257.9844 Q559.1875,259.0469 560.5313,259.0469 Q561.1563,259.0469 561.75,258.7813 Q562.3438,258.5 562.9688,257.9219 L562.9688,260.6406 Z " fill="#000000"></path><text fill="#000000" font-family="sans-serif" font-size="14" lengthAdjust="spacing" textLength="116" x="574" y="259.8467">DrawIOFileParser</text><line style="stroke:#181818;stroke-width:0.5;" x1="546" x2="692" y1="271" y2="271"></line><line style="stroke:#181818;stroke-width:0.5;" x1="546" x2="692" y1="279" y2="279"></line></g><!--class FeatureFileParser--><g id="elem_FeatureFileParser"><rect fill="#F1F1F1" height="48" id="FeatureFileParser" rx="2.5" ry="2.5" style="stroke:#181818;stroke-width:0.5;" width="152" x="728" y="239"></rect><ellipse cx="743" cy="255" fill="#ADD1B2" rx="11" ry="11" style="stroke:#181818;stroke-width:1.0;"></ellipse><path d="M745.9688,260.6406 Q745.3906,260.9375 744.75,261.0781 Q744.1094,261.2344 743.4063,261.2344 Q740.9063,261.2344 739.5781,259.5938 Q738.2656,257.9375 738.2656,254.8125 Q738.2656,251.6875 739.5781,250.0313 Q740.9063,248.375 743.4063,248.375 Q744.1094,248.375 744.75,248.5313 Q745.4063,248.6875 745.9688,248.9844 L745.9688,251.7031 Q745.3438,251.125 744.75,250.8594 Q744.1563,250.5781 743.5313,250.5781 Q742.1875,250.5781 741.5,251.6563 Q740.8125,252.7188 740.8125,254.8125 Q740.8125,256.9063 741.5,257.9844 Q742.1875,259.0469 743.5313,259.0469 Q744.1563,259.0469 744.75,258.7813 Q745.3438,258.5 745.9688,257.9219 L745.9688,260.6406 Z " fill="#000000"></path><text fill="#000000" font-family="sans-serif" font-size="14" lengthAdjust="spacing" textLength="120" x="757" y="259.8467">FeatureFileParser</text><line style="stroke:#181818;stroke-width:0.5;" x1="729" x2="879" y1="271" y2="271"></line><line style="stroke:#181818;stroke-width:0.5;" x1="729" x2="879" y1="279" y2="279"></line></g><!--class MarkdownFileParser--><g id="elem_MarkdownFileParser"><rect fill="#F1F1F1" height="48" id="MarkdownFileParser" rx="2.5" ry="2.5" style="stroke:#181818;stroke-width:0.5;" width="170" x="915" y="239"></rect><ellipse cx="930" cy="255" fill="#ADD1B2" rx="11" ry="11" style="stroke:#181818;stroke-width:1.0;"></ellipse><path d="M932.9688,260.6406 Q932.3906,260.9375 931.75,261.0781 Q931.1094,261.2344 930.4063,261.2344 Q927.9063,261.2344 926.5781,259.5938 Q925.2656,257.9375 925.2656,254.8125 Q925.2656,251.6875 926.5781,250.0313 Q927.9063,248.375 930.4063,248.375 Q931.1094,248.375 931.75,248.5313 Q932.4063,248.6875 932.9688,248.9844 L932.9688,251.7031 Q932.3438,251.125 931.75,250.8594 Q931.1563,250.5781 930.5313,250.5781 Q929.1875,250.5781 928.5,251.6563 Q927.8125,252.7188 927.8125,254.8125 Q927.8125,256.9063 928.5,257.9844 Q929.1875,259.0469 930.5313,259.0469 Q931.1563,259.0469 931.75,258.7813 Q932.3438,258.5 932.9688,257.9219 L932.9688,260.6406 Z " fill="#000000"></path><text fill="#000000" font-family="sans-serif" font-size="14" lengthAdjust="spacing" textLength="138" x="944" y="259.8467">MarkdownFileParser</text><line style="stroke:#181818;stroke-width:0.5;" x1="916" x2="1084" y1="271" y2="271"></line><line style="stroke:#181818;stroke-width:0.5;" x1="916" x2="1084" y1="279" y2="279"></line></g><!--class MarkdownMessageFileParser--><g id="elem_MarkdownMessageFileParser"><rect fill="#F1F1F1" height="48" id="MarkdownMessageFileParser" rx="2.5" ry="2.5" style="stroke:#181818;stroke-width:0.5;" width="233" x="1120.5" y="239"></rect><ellipse cx="1135.5" cy="255" fill="#ADD1B2" rx="11" ry="11" style="stroke:#181818;stroke-width:1.0;"></ellipse><path d="M1138.4688,260.6406 Q1137.8906,260.9375 1137.25,261.0781 Q1136.6094,261.2344 1135.9063,261.2344 Q1133.4063,261.2344 1132.0781,259.5938 Q1130.7656,257.9375 1130.7656,254.8125 Q1130.7656,251.6875 1132.0781,250.0313 Q1133.4063,248.375 1135.9063,248.375 Q1136.6094,248.375 1137.25,248.5313 Q1137.9063,248.6875 1138.4688,248.9844 L1138.4688,251.7031 Q1137.8438,251.125 1137.25,250.8594 Q1136.6563,250.5781 1136.0313,250.5781 Q1134.6875,250.5781 1134,251.6563 Q1133.3125,252.7188 1133.3125,254.8125 Q1133.3125,256.9063 1134,257.9844 Q1134.6875,259.0469 1136.0313,259.0469 Q1136.6563,259.0469 1137.25,258.7813 Q1137.8438,258.5 1138.4688,257.9219 L1138.4688,260.6406 Z " fill="#000000"></path><text fill="#000000" font-family="sans-serif" font-size="14" lengthAdjust="spacing" textLength="201" x="1149.5" y="259.8467">MarkdownMessageFileParser</text><line style="stroke:#181818;stroke-width:0.5;" x1="1121.5" x2="1352.5" y1="271" y2="271"></line><line style="stroke:#181818;stroke-width:0.5;" x1="1121.5" x2="1352.5" y1="279" y2="279"></line></g><!--class OpenapiFileParser--><g id="elem_OpenapiFileParser"><rect fill="#F1F1F1" height="48" id="OpenapiFileParser" rx="2.5" ry="2.5" style="stroke:#181818;stroke-width:0.5;" width="157" x="1388.5" y="239"></rect><ellipse cx="1403.5" cy="255" fill="#ADD1B2" rx="11" ry="11" style="stroke:#181818;stroke-width:1.0;"></ellipse><path d="M1406.4688,260.6406 Q1405.8906,260.9375 1405.25,261.0781 Q1404.6094,261.2344 1403.9063,261.2344 Q1401.4063,261.2344 1400.0781,259.5938 Q1398.7656,257.9375 1398.7656,254.8125 Q1398.7656,251.6875 1400.0781,250.0313 Q1401.4063,248.375 1403.9063,248.375 Q1404.6094,248.375 1405.25,248.5313 Q1405.9063,248.6875 1406.4688,248.9844 L1406.4688,251.7031 Q1405.8438,251.125 1405.25,250.8594 Q1404.6563,250.5781 1404.0313,250.5781 Q1402.6875,250.5781 1402,251.6563 Q1401.3125,252.7188 1401.3125,254.8125 Q1401.3125,256.9063 1402,257.9844 Q1402.6875,259.0469 1404.0313,259.0469 Q1404.6563,259.0469 1405.25,258.7813 Q1405.8438,258.5 1406.4688,257.9219 L1406.4688,260.6406 Z " fill="#000000"></path><text fill="#000000" font-family="sans-serif" font-size="14" lengthAdjust="spacing" textLength="125" x="1417.5" y="259.8467">OpenapiFileParser</text><line style="stroke:#181818;stroke-width:0.5;" x1="1389.5" x2="1544.5" y1="271" y2="271"></line><line style="stroke:#181818;stroke-width:0.5;" x1="1389.5" x2="1544.5" y1="279" y2="279"></line></g><!--class UmlFileParser--><g id="elem_UmlFileParser"><rect fill="#F1F1F1" height="48" id="UmlFileParser" rx="2.5" ry="2.5" style="stroke:#181818;stroke-width:0.5;" width="125" x="1580.5" y="239"></rect><ellipse cx="1595.5" cy="255" fill="#ADD1B2" rx="11" ry="11" style="stroke:#181818;stroke-width:1.0;"></ellipse><path d="M1598.4688,260.6406 Q1597.8906,260.9375 1597.25,261.0781 Q1596.6094,261.2344 1595.9063,261.2344 Q1593.4063,261.2344 1592.0781,259.5938 Q1590.7656,257.9375 1590.7656,254.8125 Q1590.7656,251.6875 1592.0781,250.0313 Q1593.4063,248.375 1595.9063,248.375 Q1596.6094,248.375 1597.25,248.5313 Q1597.9063,248.6875 1598.4688,248.9844 L1598.4688,251.7031 Q1597.8438,251.125 1597.25,250.8594 Q1596.6563,250.5781 1596.0313,250.5781 Q1594.6875,250.5781 1594,251.6563 Q1593.3125,252.7188 1593.3125,254.8125 Q1593.3125,256.9063 1594,257.9844 Q1594.6875,259.0469 1596.0313,259.0469 Q1596.6563,259.0469 1597.25,258.7813 Q1597.8438,258.5 1598.4688,257.9219 L1598.4688,260.6406 Z " fill="#000000"></path><text fill="#000000" font-family="sans-serif" font-size="14" lengthAdjust="spacing" textLength="93" x="1609.5" y="259.8467">UmlFileParser</text><line style="stroke:#181818;stroke-width:0.5;" x1="1581.5" x2="1704.5" y1="271" y2="271"></line><line style="stroke:#181818;stroke-width:0.5;" x1="1581.5" x2="1704.5" y1="279" y2="279"></line></g><!--class UserTaskFileParser--><g id="elem_UserTaskFileParser"><rect fill="#F1F1F1" height="48" id="UserTaskFileParser" rx="2.5" ry="2.5" style="stroke:#181818;stroke-width:0.5;" width="164" x="1741" y="239"></rect><ellipse cx="1756" cy="255" fill="#ADD1B2" rx="11" ry="11" style="stroke:#181818;stroke-width:1.0;"></ellipse><path d="M1758.9688,260.6406 Q1758.3906,260.9375 1757.75,261.0781 Q1757.1094,261.2344 1756.4063,261.2344 Q1753.9063,261.2344 1752.5781,259.5938 Q1751.2656,257.9375 1751.2656,254.8125 Q1751.2656,251.6875 1752.5781,250.0313 Q1753.9063,248.375 1756.4063,248.375 Q1757.1094,248.375 1757.75,248.5313 Q1758.4063,248.6875 1758.9688,248.9844 L1758.9688,251.7031 Q1758.3438,251.125 1757.75,250.8594 Q1757.1563,250.5781 1756.5313,250.5781 Q1755.1875,250.5781 1754.5,251.6563 Q1753.8125,252.7188 1753.8125,254.8125 Q1753.8125,256.9063 1754.5,257.9844 Q1755.1875,259.0469 1756.5313,259.0469 Q1757.1563,259.0469 1757.75,258.7813 Q1758.3438,258.5 1758.9688,257.9219 L1758.9688,260.6406 Z " fill="#000000"></path><text fill="#000000" font-family="sans-serif" font-size="14" lengthAdjust="spacing" textLength="132" x="1770" y="259.8467">UserTaskFileParser</text><line style="stroke:#181818;stroke-width:0.5;" x1="1742" x2="1904" y1="271" y2="271"></line><line style="stroke:#181818;stroke-width:0.5;" x1="1742" x2="1904" y1="279" y2="279"></line></g><!--class MarkdownRenderer--><g id="elem_MarkdownRenderer"><rect fill="#F1F1F1" height="48" id="MarkdownRenderer" rx="2.5" ry="2.5" style="stroke:#181818;stroke-width:0.5;" width="168" x="916" y="347"></rect><ellipse cx="931" cy="363" fill="#ADD1B2" rx="11" ry="11" style="stroke:#181818;stroke-width:1.0;"></ellipse><path d="M933.9688,368.6406 Q933.3906,368.9375 932.75,369.0781 Q932.1094,369.2344 931.4063,369.2344 Q928.9063,369.2344 927.5781,367.5938 Q926.2656,365.9375 926.2656,362.8125 Q926.2656,359.6875 927.5781,358.0313 Q928.9063,356.375 931.4063,356.375 Q932.1094,356.375 932.75,356.5313 Q933.4063,356.6875 933.9688,356.9844 L933.9688,359.7031 Q933.3438,359.125 932.75,358.8594 Q932.1563,358.5781 931.5313,358.5781 Q930.1875,358.5781 929.5,359.6563 Q928.8125,360.7188 928.8125,362.8125 Q928.8125,364.9063 929.5,365.9844 Q930.1875,367.0469 931.5313,367.0469 Q932.1563,367.0469 932.75,366.7813 Q933.3438,366.5 933.9688,365.9219 L933.9688,368.6406 Z " fill="#000000"></path><text fill="#000000" font-family="sans-serif" font-size="14" lengthAdjust="spacing" textLength="136" x="945" y="367.8467">MarkdownRenderer</text><line style="stroke:#181818;stroke-width:0.5;" x1="917" x2="1083" y1="379" y2="379"></line><line style="stroke:#181818;stroke-width:0.5;" x1="917" x2="1083" y1="387" y2="387"></line></g><!--class AnchorHtmlParser--><g id="elem_AnchorHtmlParser"><rect fill="#F1F1F1" height="48" id="AnchorHtmlParser" rx="2.5" ry="2.5" style="stroke:#181818;stroke-width:0.5;" width="156" x="312" y="579"></rect><ellipse cx="327" cy="595" fill="#ADD1B2" rx="11" ry="11" style="stroke:#181818;stroke-width:1.0;"></ellipse><path d="M329.9688,600.6406 Q329.3906,600.9375 328.75,601.0781 Q328.1094,601.2344 327.4063,601.2344 Q324.9063,601.2344 323.5781,599.5938 Q322.2656,597.9375 322.2656,594.8125 Q322.2656,591.6875 323.5781,590.0313 Q324.9063,588.375 327.4063,588.375 Q328.1094,588.375 328.75,588.5313 Q329.4063,588.6875 329.9688,588.9844 L329.9688,591.7031 Q329.3438,591.125 328.75,590.8594 Q328.1563,590.5781 327.5313,590.5781 Q326.1875,590.5781 325.5,591.6563 Q324.8125,592.7188 324.8125,594.8125 Q324.8125,596.9063 325.5,597.9844 Q326.1875,599.0469 327.5313,599.0469 Q328.1563,599.0469 328.75,598.7813 Q329.3438,598.5 329.9688,597.9219 L329.9688,600.6406 Z " fill="#000000"></path><text fill="#000000" font-family="sans-serif" font-size="14" lengthAdjust="spacing" textLength="124" x="341" y="599.8467">AnchorHtmlParser</text><line style="stroke:#181818;stroke-width:0.5;" x1="313" x2="467" y1="611" y2="611"></line><line style="stroke:#181818;stroke-width:0.5;" x1="313" x2="467" y1="619" y2="619"></line></g><!--class CleanUpHtmlParser--><g id="elem_CleanUpHtmlParser"><rect fill="#F1F1F1" height="48" id="CleanUpHtmlParser" rx="2.5" ry="2.5" style="stroke:#181818;stroke-width:0.5;" width="165" x="503.5" y="579"></rect><ellipse cx="518.5" cy="595" fill="#ADD1B2" rx="11" ry="11" style="stroke:#181818;stroke-width:1.0;"></ellipse><path d="M521.4688,600.6406 Q520.8906,600.9375 520.25,601.0781 Q519.6094,601.2344 518.9063,601.2344 Q516.4063,601.2344 515.0781,599.5938 Q513.7656,597.9375 513.7656,594.8125 Q513.7656,591.6875 515.0781,590.0313 Q516.4063,588.375 518.9063,588.375 Q519.6094,588.375 520.25,588.5313 Q520.9063,588.6875 521.4688,588.9844 L521.4688,591.7031 Q520.8438,591.125 520.25,590.8594 Q519.6563,590.5781 519.0313,590.5781 Q517.6875,590.5781 517,591.6563 Q516.3125,592.7188 516.3125,594.8125 Q516.3125,596.9063 517,597.9844 Q517.6875,599.0469 519.0313,599.0469 Q519.6563,599.0469 520.25,598.7813 Q520.8438,598.5 521.4688,597.9219 L521.4688,600.6406 Z " fill="#000000"></path><text fill="#000000" font-family="sans-serif" font-size="14" lengthAdjust="spacing" textLength="133" x="532.5" y="599.8467">CleanUpHtmlParser</text><line style="stroke:#181818;stroke-width:0.5;" x1="504.5" x2="667.5" y1="611" y2="611"></line><line style="stroke:#181818;stroke-width:0.5;" x1="504.5" x2="667.5" y1="619" y2="619"></line></g><!--class DefinitionHtmlParser--><g id="elem_DefinitionHtmlParser"><rect fill="#F1F1F1" height="48" id="DefinitionHtmlParser" rx="2.5" ry="2.5" style="stroke:#181818;stroke-width:0.5;" width="172" x="704" y="579"></rect><ellipse cx="719" cy="595" fill="#ADD1B2" rx="11" ry="11" style="stroke:#181818;stroke-width:1.0;"></ellipse><path d="M721.9688,600.6406 Q721.3906,600.9375 720.75,601.0781 Q720.1094,601.2344 719.4063,601.2344 Q716.9063,601.2344 715.5781,599.5938 Q714.2656,597.9375 714.2656,594.8125 Q714.2656,591.6875 715.5781,590.0313 Q716.9063,588.375 719.4063,588.375 Q720.1094,588.375 720.75,588.5313 Q721.4063,588.6875 721.9688,588.9844 L721.9688,591.7031 Q721.3438,591.125 720.75,590.8594 Q720.1563,590.5781 719.5313,590.5781 Q718.1875,590.5781 717.5,591.6563 Q716.8125,592.7188 716.8125,594.8125 Q716.8125,596.9063 717.5,597.9844 Q718.1875,599.0469 719.5313,599.0469 Q720.1563,599.0469 720.75,598.7813 Q721.3438,598.5 721.9688,597.9219 L721.9688,600.6406 Z " fill="#000000"></path><text fill="#000000" font-family="sans-serif" font-size="14" lengthAdjust="spacing" textLength="140" x="733" y="599.8467">DefinitionHtmlParser</text><line style="stroke:#181818;stroke-width:0.5;" x1="705" x2="875" y1="611" y2="611"></line><line style="stroke:#181818;stroke-width:0.5;" x1="705" x2="875" y1="619" y2="619"></line></g><!--class FullscreenHtmlParser--><g id="elem_FullscreenHtmlParser"><rect fill="#F1F1F1" height="48" id="FullscreenHtmlParser" rx="2.5" ry="2.5" style="stroke:#181818;stroke-width:0.5;" width="178" x="911" y="579"></rect><ellipse cx="926" cy="595" fill="#ADD1B2" rx="11" ry="11" style="stroke:#181818;stroke-width:1.0;"></ellipse><path d="M928.9688,600.6406 Q928.3906,600.9375 927.75,601.0781 Q927.1094,601.2344 926.4063,601.2344 Q923.9063,601.2344 922.5781,599.5938 Q921.2656,597.9375 921.2656,594.8125 Q921.2656,591.6875 922.5781,590.0313 Q923.9063,588.375 926.4063,588.375 Q927.1094,588.375 927.75,588.5313 Q928.4063,588.6875 928.9688,588.9844 L928.9688,591.7031 Q928.3438,591.125 927.75,590.8594 Q927.1563,590.5781 926.5313,590.5781 Q925.1875,590.5781 924.5,591.6563 Q923.8125,592.7188 923.8125,594.8125 Q923.8125,596.9063 924.5,597.9844 Q925.1875,599.0469 926.5313,599.0469 Q927.1563,599.0469 927.75,598.7813 Q928.3438,598.5 928.9688,597.9219 L928.9688,600.6406 Z " fill="#000000"></path><text fill="#000000" font-family="sans-serif" font-size="14" lengthAdjust="spacing" textLength="146" x="940" y="599.8467">FullscreenHtmlParser</text><line style="stroke:#181818;stroke-width:0.5;" x1="912" x2="1088" y1="611" y2="611"></line><line style="stroke:#181818;stroke-width:0.5;" x1="912" x2="1088" y1="619" y2="619"></line></g><!--class HeadingHtmlParser--><g id="elem_HeadingHtmlParser"><rect fill="#F1F1F1" height="48" id="HeadingHtmlParser" rx="2.5" ry="2.5" style="stroke:#181818;stroke-width:0.5;" width="164" x="1124" y="579"></rect><ellipse cx="1139" cy="595" fill="#ADD1B2" rx="11" ry="11" style="stroke:#181818;stroke-width:1.0;"></ellipse><path d="M1141.9688,600.6406 Q1141.3906,600.9375 1140.75,601.0781 Q1140.1094,601.2344 1139.4063,601.2344 Q1136.9063,601.2344 1135.5781,599.5938 Q1134.2656,597.9375 1134.2656,594.8125 Q1134.2656,591.6875 1135.5781,590.0313 Q1136.9063,588.375 1139.4063,588.375 Q1140.1094,588.375 1140.75,588.5313 Q1141.4063,588.6875 1141.9688,588.9844 L1141.9688,591.7031 Q1141.3438,591.125 1140.75,590.8594 Q1140.1563,590.5781 1139.5313,590.5781 Q1138.1875,590.5781 1137.5,591.6563 Q1136.8125,592.7188 1136.8125,594.8125 Q1136.8125,596.9063 1137.5,597.9844 Q1138.1875,599.0469 1139.5313,599.0469 Q1140.1563,599.0469 1140.75,598.7813 Q1141.3438,598.5 1141.9688,597.9219 L1141.9688,600.6406 Z " fill="#000000"></path><text fill="#000000" font-family="sans-serif" font-size="14" lengthAdjust="spacing" textLength="132" x="1153" y="599.8467">HeadingHtmlParser</text><line style="stroke:#181818;stroke-width:0.5;" x1="1125" x2="1287" y1="611" y2="611"></line><line style="stroke:#181818;stroke-width:0.5;" x1="1125" x2="1287" y1="619" y2="619"></line></g><!--class ImageHtmlParser--><g id="elem_ImageHtmlParser"><rect fill="#F1F1F1" height="48" id="ImageHtmlParser" rx="2.5" ry="2.5" style="stroke:#181818;stroke-width:0.5;" width="149" x="1323.5" y="579"></rect><ellipse cx="1338.5" cy="595" fill="#ADD1B2" rx="11" ry="11" style="stroke:#181818;stroke-width:1.0;"></ellipse><path d="M1341.4688,600.6406 Q1340.8906,600.9375 1340.25,601.0781 Q1339.6094,601.2344 1338.9063,601.2344 Q1336.4063,601.2344 1335.0781,599.5938 Q1333.7656,597.9375 1333.7656,594.8125 Q1333.7656,591.6875 1335.0781,590.0313 Q1336.4063,588.375 1338.9063,588.375 Q1339.6094,588.375 1340.25,588.5313 Q1340.9063,588.6875 1341.4688,588.9844 L1341.4688,591.7031 Q1340.8438,591.125 1340.25,590.8594 Q1339.6563,590.5781 1339.0313,590.5781 Q1337.6875,590.5781 1337,591.6563 Q1336.3125,592.7188 1336.3125,594.8125 Q1336.3125,596.9063 1337,597.9844 Q1337.6875,599.0469 1339.0313,599.0469 Q1339.6563,599.0469 1340.25,598.7813 Q1340.8438,598.5 1341.4688,597.9219 L1341.4688,600.6406 Z " fill="#000000"></path><text fill="#000000" font-family="sans-serif" font-size="14" lengthAdjust="spacing" textLength="117" x="1352.5" y="599.8467">ImageHtmlParser</text><line style="stroke:#181818;stroke-width:0.5;" x1="1324.5" x2="1471.5" y1="611" y2="611"></line><line style="stroke:#181818;stroke-width:0.5;" x1="1324.5" x2="1471.5" y1="619" y2="619"></line></g><!--class UnsortedListHtmlParser--><g id="elem_UnsortedListHtmlParser"><rect fill="#F1F1F1" height="48" id="UnsortedListHtmlParser" rx="2.5" ry="2.5" style="stroke:#181818;stroke-width:0.5;" width="194" x="1507" y="579"></rect><ellipse cx="1522" cy="595" fill="#ADD1B2" rx="11" ry="11" style="stroke:#181818;stroke-width:1.0;"></ellipse><path d="M1524.9688,600.6406 Q1524.3906,600.9375 1523.75,601.0781 Q1523.1094,601.2344 1522.4063,601.2344 Q1519.9063,601.2344 1518.5781,599.5938 Q1517.2656,597.9375 1517.2656,594.8125 Q1517.2656,591.6875 1518.5781,590.0313 Q1519.9063,588.375 1522.4063,588.375 Q1523.1094,588.375 1523.75,588.5313 Q1524.4063,588.6875 1524.9688,588.9844 L1524.9688,591.7031 Q1524.3438,591.125 1523.75,590.8594 Q1523.1563,590.5781 1522.5313,590.5781 Q1521.1875,590.5781 1520.5,591.6563 Q1519.8125,592.7188 1519.8125,594.8125 Q1519.8125,596.9063 1520.5,597.9844 Q1521.1875,599.0469 1522.5313,599.0469 Q1523.1563,599.0469 1523.75,598.7813 Q1524.3438,598.5 1524.9688,597.9219 L1524.9688,600.6406 Z " fill="#000000"></path><text fill="#000000" font-family="sans-serif" font-size="14" lengthAdjust="spacing" textLength="162" x="1536" y="599.8467">UnsortedListHtmlParser</text><line style="stroke:#181818;stroke-width:0.5;" x1="1508" x2="1700" y1="611" y2="611"></line><line style="stroke:#181818;stroke-width:0.5;" x1="1508" x2="1700" y1="619" y2="619"></line></g><!--class BPMNAnchorParser--><g id="elem_BPMNAnchorParser"><rect fill="#F1F1F1" height="48" id="BPMNAnchorParser" rx="2.5" ry="2.5" style="stroke:#181818;stroke-width:0.5;" width="166" x="7" y="828"></rect><ellipse cx="22" cy="844" fill="#ADD1B2" rx="11" ry="11" style="stroke:#181818;stroke-width:1.0;"></ellipse><path d="M24.9688,849.6406 Q24.3906,849.9375 23.75,850.0781 Q23.1094,850.2344 22.4063,850.2344 Q19.9063,850.2344 18.5781,848.5938 Q17.2656,846.9375 17.2656,843.8125 Q17.2656,840.6875 18.5781,839.0313 Q19.9063,837.375 22.4063,837.375 Q23.1094,837.375 23.75,837.5313 Q24.4063,837.6875 24.9688,837.9844 L24.9688,840.7031 Q24.3438,840.125 23.75,839.8594 Q23.1563,839.5781 22.5313,839.5781 Q21.1875,839.5781 20.5,840.6563 Q19.8125,841.7188 19.8125,843.8125 Q19.8125,845.9063 20.5,846.9844 Q21.1875,848.0469 22.5313,848.0469 Q23.1563,848.0469 23.75,847.7813 Q24.3438,847.5 24.9688,846.9219 L24.9688,849.6406 Z " fill="#000000"></path><text fill="#000000" font-family="sans-serif" font-size="14" lengthAdjust="spacing" textLength="134" x="36" y="848.8467">BPMNAnchorParser</text><line style="stroke:#181818;stroke-width:0.5;" x1="8" x2="172" y1="860" y2="860"></line><line style="stroke:#181818;stroke-width:0.5;" x1="8" x2="172" y1="868" y2="868"></line></g><!--class CodeAnchorParser--><g id="elem_CodeAnchorParser"><rect fill="#F1F1F1" height="48" id="CodeAnchorParser" rx="2.5" ry="2.5" style="stroke:#181818;stroke-width:0.5;" width="162" x="208" y="828"></rect><ellipse cx="223" cy="844" fill="#ADD1B2" rx="11" ry="11" style="stroke:#181818;stroke-width:1.0;"></ellipse><path d="M225.9688,849.6406 Q225.3906,849.9375 224.75,850.0781 Q224.1094,850.2344 223.4063,850.2344 Q220.9063,850.2344 219.5781,848.5938 Q218.2656,846.9375 218.2656,843.8125 Q218.2656,840.6875 219.5781,839.0313 Q220.9063,837.375 223.4063,837.375 Q224.1094,837.375 224.75,837.5313 Q225.4063,837.6875 225.9688,837.9844 L225.9688,840.7031 Q225.3438,840.125 224.75,839.8594 Q224.1563,839.5781 223.5313,839.5781 Q222.1875,839.5781 221.5,840.6563 Q220.8125,841.7188 220.8125,843.8125 Q220.8125,845.9063 221.5,846.9844 Q222.1875,848.0469 223.5313,848.0469 Q224.1563,848.0469 224.75,847.7813 Q225.3438,847.5 225.9688,846.9219 L225.9688,849.6406 Z " fill="#000000"></path><text fill="#000000" font-family="sans-serif" font-size="14" lengthAdjust="spacing" textLength="130" x="237" y="848.8467">CodeAnchorParser</text><line style="stroke:#181818;stroke-width:0.5;" x1="209" x2="369" y1="860" y2="860"></line><line style="stroke:#181818;stroke-width:0.5;" x1="209" x2="369" y1="868" y2="868"></line></g><!--class IFrameAnchorParser--><g id="elem_IFrameAnchorParser"><rect fill="#F1F1F1" height="48" id="IFrameAnchorParser" rx="2.5" ry="2.5" style="stroke:#181818;stroke-width:0.5;" width="171" x="405.5" y="828"></rect><ellipse cx="420.5" cy="844" fill="#ADD1B2" rx="11" ry="11" style="stroke:#181818;stroke-width:1.0;"></ellipse><path d="M423.4688,849.6406 Q422.8906,849.9375 422.25,850.0781 Q421.6094,850.2344 420.9063,850.2344 Q418.4063,850.2344 417.0781,848.5938 Q415.7656,846.9375 415.7656,843.8125 Q415.7656,840.6875 417.0781,839.0313 Q418.4063,837.375 420.9063,837.375 Q421.6094,837.375 422.25,837.5313 Q422.9063,837.6875 423.4688,837.9844 L423.4688,840.7031 Q422.8438,840.125 422.25,839.8594 Q421.6563,839.5781 421.0313,839.5781 Q419.6875,839.5781 419,840.6563 Q418.3125,841.7188 418.3125,843.8125 Q418.3125,845.9063 419,846.9844 Q419.6875,848.0469 421.0313,848.0469 Q421.6563,848.0469 422.25,847.7813 Q422.8438,847.5 423.4688,846.9219 L423.4688,849.6406 Z " fill="#000000"></path><text fill="#000000" font-family="sans-serif" font-size="14" lengthAdjust="spacing" textLength="139" x="434.5" y="848.8467">IFrameAnchorParser</text><line style="stroke:#181818;stroke-width:0.5;" x1="406.5" x2="575.5" y1="860" y2="860"></line><line style="stroke:#181818;stroke-width:0.5;" x1="406.5" x2="575.5" y1="868" y2="868"></line></g><!--class UrlRewriteAnchorParser--><g id="elem_UrlRewriteAnchorParser"><rect fill="#F1F1F1" height="48" id="UrlRewriteAnchorParser" rx="2.5" ry="2.5" style="stroke:#181818;stroke-width:0.5;" width="195" x="611.5" y="828"></rect><ellipse cx="626.5" cy="844" fill="#ADD1B2" rx="11" ry="11" style="stroke:#181818;stroke-width:1.0;"></ellipse><path d="M629.4688,849.6406 Q628.8906,849.9375 628.25,850.0781 Q627.6094,850.2344 626.9063,850.2344 Q624.4063,850.2344 623.0781,848.5938 Q621.7656,846.9375 621.7656,843.8125 Q621.7656,840.6875 623.0781,839.0313 Q624.4063,837.375 626.9063,837.375 Q627.6094,837.375 628.25,837.5313 Q628.9063,837.6875 629.4688,837.9844 L629.4688,840.7031 Q628.8438,840.125 628.25,839.8594 Q627.6563,839.5781 627.0313,839.5781 Q625.6875,839.5781 625,840.6563 Q624.3125,841.7188 624.3125,843.8125 Q624.3125,845.9063 625,846.9844 Q625.6875,848.0469 627.0313,848.0469 Q627.6563,848.0469 628.25,847.7813 Q628.8438,847.5 629.4688,846.9219 L629.4688,849.6406 Z " fill="#000000"></path><text fill="#000000" font-family="sans-serif" font-size="14" lengthAdjust="spacing" textLength="163" x="640.5" y="848.8467">UrlRewriteAnchorParser</text><line style="stroke:#181818;stroke-width:0.5;" x1="612.5" x2="805.5" y1="860" y2="860"></line><line style="stroke:#181818;stroke-width:0.5;" x1="612.5" x2="805.5" y1="868" y2="868"></line></g><!--reverse link CompositeFileParser to FileParser--><g id="link_CompositeFileParser_FileParser"><path codeline="14" d="M987.7041,66.9318 C985.0741,84.1118 986.55,95.88 988.49,114.75 " fill="none" id="CompositeFileParser-backto-FileParser" style="stroke:#181818;stroke-width:1.0;"></path><polygon fill="#181818" points="989.52,55.07,984.6581,60.3956,987.7041,66.9318,992.566,61.6062,989.52,55.07" style="stroke:#181818;stroke-width:1.0;"></polygon><text fill="#000000" font-family="sans-serif" font-size="13" lengthAdjust="spacing" textLength="63" x="917.0224" y="103.975">has many</text></g><!--link CompositeFileParser to FileParser--><g id="link_CompositeFileParser_FileParser"><path codeline="15" d="M1011.1,55.07 C1013.88,72.25 1016.2034,77.9863 1014.1434,96.8563 " fill="none" id="CompositeFileParser-to-FileParser" style="stroke:#181818;stroke-width:1.0;stroke-dasharray:7.0,7.0;"></path><polygon fill="none" points="1012.19,114.75,1020.108,97.5074,1008.1789,96.2052,1012.19,114.75" style="stroke:#181818;stroke-width:1.0;"></polygon></g><!--reverse link FileParser to AsyncapiFileParser--><g id="link_FileParser_AsyncapiFileParser"><path codeline="16" d="M875.4142,160.8737 C740.5742,175.4437 519.52,201.84 317,239 C311.16,240.07 305.14,241.27 299.09,242.53 " fill="none" id="FileParser-backto-AsyncapiFileParser" style="stroke:#181818;stroke-width:1.0;stroke-dasharray:7.0,7.0;"></path><polygon fill="none" points="893.31,158.94,874.7696,154.9084,876.0587,166.839,893.31,158.94" style="stroke:#181818;stroke-width:1.0;"></polygon></g><!--reverse link FileParser to DashboardFileParser--><g id="link_FileParser_DashboardFileParser"><path codeline="17" d="M875.5462,171.0357 C779.5762,188.9657 652.53,213.18 527,239 C521.33,240.17 515.5,241.39 509.62,242.63 " fill="none" id="FileParser-backto-DashboardFileParser" style="stroke:#181818;stroke-width:1.0;stroke-dasharray:7.0,7.0;"></path><polygon fill="none" points="893.24,167.73,874.4442,165.1378,876.6481,176.9337,893.24,167.73" style="stroke:#181818;stroke-width:1.0;"></polygon></g><!--reverse link FileParser to DrawIOFileParser--><g id="link_FileParser_DrawIOFileParser"><path codeline="18" d="M879.1455,184.1602 C814.9155,203.3802 751.15,222.46 693.29,239.77 " fill="none" id="FileParser-backto-DrawIOFileParser" style="stroke:#181818;stroke-width:1.0;stroke-dasharray:7.0,7.0;"></path><polygon fill="none" points="896.39,179,877.4254,178.412,880.8656,189.9084,896.39,179" style="stroke:#181818;stroke-width:1.0;"></polygon></g><!--reverse link FileParser to FeatureFileParser--><g id="link_FileParser_FeatureFileParser"><path codeline="19" d="M931.1404,188.0497 C898.6104,206.9697 873.27,221.71 843.6,238.96 " fill="none" id="FileParser-backto-FeatureFileParser" style="stroke:#181818;stroke-width:1.0;stroke-dasharray:7.0,7.0;"></path><polygon fill="none" points="946.7,179,928.1238,182.8632,934.157,193.2363,946.7,179" style="stroke:#181818;stroke-width:1.0;"></polygon></g><!--reverse link FileParser to MarkdownFileParser--><g id="link_FileParser_MarkdownFileParser"><path codeline="20" d="M1000,197.15 C1000,216.01 1000,221.65 1000,238.84 " fill="none" id="FileParser-backto-MarkdownFileParser" style="stroke:#181818;stroke-width:1.0;stroke-dasharray:7.0,7.0;"></path><polygon fill="none" points="1000,179.15,994,197.15,1006,197.15,1000,179.15" style="stroke:#181818;stroke-width:1.0;"></polygon></g><!--reverse link FileParser to MarkdownMessageFileParser--><g id="link_FileParser_MarkdownMessageFileParser"><path codeline="21" d="M1080.6715,186.8015 C1120.0115,205.7215 1153.24,221.71 1189.11,238.96 " fill="none" id="FileParser-backto-MarkdownMessageFileParser" style="stroke:#181818;stroke-width:1.0;stroke-dasharray:7.0,7.0;"></path><polygon fill="none" points="1064.45,179,1078.071,192.2087,1083.272,181.3943,1064.45,179" style="stroke:#181818;stroke-width:1.0;"></polygon></g><!--reverse link FileParser to OpenapiFileParser--><g id="link_FileParser_OpenapiFileParser"><path codeline="22" d="M1124.0365,178.2786 C1209.7765,199.2086 1310.84,223.88 1388.2,242.77 " fill="none" id="FileParser-backto-OpenapiFileParser" style="stroke:#181818;stroke-width:1.0;stroke-dasharray:7.0,7.0;"></path><polygon fill="none" points="1106.55,174.01,1122.6137,184.1075,1125.4594,172.4498,1106.55,174.01" style="stroke:#181818;stroke-width:1.0;"></polygon></g><!--reverse link FileParser to UmlFileParser--><g id="link_FileParser_UmlFileParser"><path codeline="23" d="M1124.4023,163.7277 C1238.1623,178.8877 1405.5,203.76 1563,239 C1568.64,240.26 1574.47,241.69 1580.3,243.2 " fill="none" id="FileParser-backto-UmlFileParser" style="stroke:#181818;stroke-width:1.0;stroke-dasharray:7.0,7.0;"></path><polygon fill="none" points="1106.56,161.35,1123.6097,169.6751,1125.1948,157.7803,1106.56,161.35" style="stroke:#181818;stroke-width:1.0;"></polygon></g><!--reverse link FileParser to UserTaskFileParser--><g id="link_FileParser_UserTaskFileParser"><path codeline="24" d="M1124.6916,159.822 C1266.2116,173.902 1505.48,200.4 1723,239 C1728.79,240.03 1734.75,241.17 1740.73,242.39 " fill="none" id="FileParser-backto-UserTaskFileParser" style="stroke:#181818;stroke-width:1.0;stroke-dasharray:7.0,7.0;"></path><polygon fill="none" points="1106.78,158.04,1124.0976,165.7926,1125.2856,153.8515,1106.78,158.04" style="stroke:#181818;stroke-width:1.0;"></polygon></g><!--link MarkdownFileParser to MarkdownRenderer--><g id="link_MarkdownFileParser_MarkdownRenderer"><path codeline="26" d="M1000,287 C1000,304.66 1000,322.94 1000,340.68 " fill="none" id="MarkdownFileParser-to-MarkdownRenderer" style="stroke:#181818;stroke-width:1.0;"></path><polygon fill="#181818" points="1000,346.68,1004,337.68,1000,341.68,996,337.68,1000,346.68" style="stroke:#181818;stroke-width:1.0;"></polygon><text fill="#000000" font-family="sans-serif" font-size="13" lengthAdjust="spacing" textLength="30" x="966.3438" y="336.007">uses</text></g><!--reverse link MarkdownRenderer to HtmlParser--><g id="link_MarkdownRenderer_HtmlParser"><path codeline="28" d="M1000,407.07 C1000,424.25 1000,435.88 1000,454.75 " fill="none" id="MarkdownRenderer-backto-HtmlParser" style="stroke:#181818;stroke-width:1.0;"></path><polygon fill="#181818" points="1000,395.07,996,401.07,1000,407.07,1004,401.07,1000,395.07" style="stroke:#181818;stroke-width:1.0;"></polygon><text fill="#000000" font-family="sans-serif" font-size="13" lengthAdjust="spacing" textLength="63" x="930.7984" y="443.975">has many</text></g><!--reverse link HtmlParser to AnchorHtmlParser--><g id="link_HtmlParser_AnchorHtmlParser"><path codeline="30" d="M847.6212,512.507 C743.6812,529.697 614.2,552.32 486,579 C480.21,580.2 474.24,581.5 468.24,582.85 " fill="none" id="HtmlParser-backto-AnchorHtmlParser" style="stroke:#181818;stroke-width:1.0;stroke-dasharray:7.0,7.0;"></path><polygon fill="none" points="865.38,509.57,846.6422,506.5874,848.6002,518.4266,865.38,509.57" style="stroke:#181818;stroke-width:1.0;"></polygon></g><!--reverse link HtmlParser to CleanUpHtmlParser--><g id="link_HtmlParser_CleanUpHtmlParser"><path codeline="31" d="M870.0658,523.7782 C800.9858,542.7982 731.41,561.96 668.67,579.23 " fill="none" id="HtmlParser-backto-CleanUpHtmlParser" style="stroke:#181818;stroke-width:1.0;stroke-dasharray:7.0,7.0;"></path><polygon fill="none" points="887.42,519,868.4731,517.9934,871.6585,529.5629,887.42,519" style="stroke:#181818;stroke-width:1.0;"></polygon></g><!--reverse link HtmlParser to DefinitionHtmlParser--><g id="link_HtmlParser_DefinitionHtmlParser"><path codeline="32" d="M927.0709,527.5882 C892.2209,546.5082 864.22,561.71 832.43,578.96 " fill="none" id="HtmlParser-backto-DefinitionHtmlParser" style="stroke:#181818;stroke-width:1.0;stroke-dasharray:7.0,7.0;"></path><polygon fill="none" points="942.89,519,924.2082,522.3151,929.9336,532.8612,942.89,519" style="stroke:#181818;stroke-width:1.0;"></polygon></g><!--reverse link HtmlParser to FullscreenHtmlParser--><g id="link_HtmlParser_FullscreenHtmlParser"><path codeline="33" d="M1000,537.15 C1000,556.01 1000,561.65 1000,578.84 " fill="none" id="HtmlParser-backto-FullscreenHtmlParser" style="stroke:#181818;stroke-width:1.0;stroke-dasharray:7.0,7.0;"></path><polygon fill="none" points="1000,519.15,994,537.15,1006,537.15,1000,519.15" style="stroke:#181818;stroke-width:1.0;"></polygon></g><!--reverse link HtmlParser to HeadingHtmlParser--><g id="link_HtmlParser_HeadingHtmlParser"><path codeline="34" d="M1071.7694,527.7154 C1105.9594,546.6354 1133.2,561.71 1164.37,578.96 " fill="none" id="HtmlParser-backto-HeadingHtmlParser" style="stroke:#181818;stroke-width:1.0;stroke-dasharray:7.0,7.0;"></path><polygon fill="none" points="1056.02,519,1068.8642,532.9651,1074.6745,522.4656,1056.02,519" style="stroke:#181818;stroke-width:1.0;"></polygon></g><!--reverse link HtmlParser to ImageHtmlParser--><g id="link_HtmlParser_ImageHtmlParser"><path codeline="35" d="M1125.5341,523.9567 C1193.7841,543.5067 1262.86,563.29 1323.48,580.66 " fill="none" id="HtmlParser-backto-ImageHtmlParser" style="stroke:#181818;stroke-width:1.0;stroke-dasharray:7.0,7.0;"></path><polygon fill="none" points="1108.23,519,1123.8818,529.7247,1127.1863,518.1887,1108.23,519" style="stroke:#181818;stroke-width:1.0;"></polygon></g><!--reverse link HtmlParser to UnsortedListHtmlParser--><g id="link_HtmlParser_UnsortedListHtmlParser"><path codeline="36" d="M1152.2165,515.6372 C1250.7265,533.6472 1369.91,555.74 1490,579 C1495.45,580.06 1501.05,581.15 1506.69,582.26 " fill="none" id="HtmlParser-backto-UnsortedListHtmlParser" style="stroke:#181818;stroke-width:1.0;stroke-dasharray:7.0,7.0;"></path><polygon fill="none" points="1134.51,512.4,1151.1375,521.5393,1153.2956,509.735,1134.51,512.4" style="stroke:#181818;stroke-width:1.0;"></polygon></g><!--reverse link AnchorHtmlParser to AnchorParser--><g id="link_AnchorHtmlParser_AnchorParser"><path codeline="38" d="M390,639.04 C390,655.81 390,666.95 390,686.69 " fill="none" id="AnchorHtmlParser-backto-AnchorParser" style="stroke:#181818;stroke-width:1.0;"></path><polygon fill="#181818" points="390,627.04,386,633.04,390,639.04,394,633.04,390,627.04" style="stroke:#181818;stroke-width:1.0;"></polygon><text fill="#000000" font-family="sans-serif" font-size="13" lengthAdjust="spacing" textLength="63" x="321.7828" y="675.8002">has many</text></g><!--reverse link AnchorParser to BPMNAnchorParser--><g id="link_AnchorParser_BPMNAnchorParser"><path codeline="39" d="M276.347,774.9076 C227.907,794.6976 187.65,811.13 146.43,827.96 " fill="none" id="AnchorParser-backto-BPMNAnchorParser" style="stroke:#181818;stroke-width:1.0;stroke-dasharray:7.0,7.0;"></path><polygon fill="none" points="293.01,768.1,274.0778,769.3533,278.6162,780.462,293.01,768.1" style="stroke:#181818;stroke-width:1.0;"></polygon></g><!--reverse link AnchorParser to CodeAnchorParser--><g id="link_AnchorParser_CodeAnchorParser"><path codeline="40" d="M345.7562,782.1556 C329.5062,801.8556 321.92,811.07 308.09,827.84 " fill="none" id="AnchorParser-backto-CodeAnchorParser" style="stroke:#181818;stroke-width:1.0;stroke-dasharray:7.0,7.0;"></path><polygon fill="none" points="357.21,768.27,341.1276,778.3376,350.3847,785.9735,357.21,768.27" style="stroke:#181818;stroke-width:1.0;"></polygon></g><!--reverse link AnchorParser to IFrameAnchorParser--><g id="link_AnchorParser_IFrameAnchorParser"><path codeline="41" d="M434.2438,782.1556 C450.4938,801.8556 458.08,811.07 471.91,827.84 " fill="none" id="AnchorParser-backto-IFrameAnchorParser" style="stroke:#181818;stroke-width:1.0;stroke-dasharray:7.0,7.0;"></path><polygon fill="none" points="422.79,768.27,429.6153,785.9735,438.8724,778.3376,422.79,768.27" style="stroke:#181818;stroke-width:1.0;"></polygon></g><!--reverse link AnchorParser to UrlRewriteAnchorParser--><g id="link_AnchorParser_UrlRewriteAnchorParser"><path codeline="42" d="M509.9326,774.5555 C561.4426,794.3455 605.16,811.13 648.99,827.96 " fill="none" id="AnchorParser-backto-UrlRewriteAnchorParser" style="stroke:#181818;stroke-width:1.0;stroke-dasharray:7.0,7.0;"></path><polygon fill="none" points="493.13,768.1,507.7807,780.1564,512.0844,768.9546,493.13,768.1" style="stroke:#181818;stroke-width:1.0;"></polygon></g><!--SRC=[ZPFTJi8m5CVl-nJDhj2uFS0q90Wka30XX3t0SJj0GzSkfqL2n7TtR17Ar6AlsfxV-UTy2cMHLf0ZJuJ4EP11uX-CrmVCGUMyEdtrLhKnviQIKEix7lDtBGhsoPWukuzjAVzqHuabAXlpb_RYI5mK1YhVQBhIo44rxnuqjfYFb-cqvHobDwsbD-87xlLleSTJFaDTLje8YqurxiEG1niml0Hr29mw_Kf7qR7lCexfwHX5V72A4IhXGKPWDcyQgF0n1Fl9p0Ca27P7w25Ie6sXz-eVI8h6mDedDgjG-RFAIkcprhSbcAs3i9y1yZ3iys1dq0Jds1Qe2YIN__xfTkuoeemvuzgsfHaAX-W2GucWiif3Z70bbB12Am-KxAGqEI7we352KK-aXvYKTJiyzamPJHQBgJ3MJRkRPhT4xWwoguLiP9_dwUiDPAWBl85C4eBo5fIHNE2UwkMw0hy0]--></g></svg>