<?xml version="1.0" encoding="UTF-8" standalone="no"?><svg xmlns="http://www.w3.org/2000/svg" xmlns:xlink="http://www.w3.org/1999/xlink" contentScriptType="application/ecmascript" contentStyleType="text/css" height="541px" preserveAspectRatio="none" style="width:605px;height:541px;" version="1.1" viewBox="0 0 605 541" width="605px" zoomAndPan="magnify"><defs><filter height="300%" id="f1oic8wd7amlr3" width="300%" x="-1" y="-1"><feGaussianBlur result="blurOut" stdDeviation="2.0"/><feColorMatrix in="blurOut" result="blurOut2" type="matrix" values="0 0 0 0 0 0 0 0 0 0 0 0 0 0 0 0 0 0 .4 0"/><feOffset dx="4.0" dy="4.0" in="blurOut2" result="blurOut3"/><feBlend in="SourceGraphic" in2="blurOut3" mode="normal"/></filter></defs><g><!--class BPMN--><rect fill="#FEFECE" filter="url(#f1oic8wd7amlr3)" height="60.8047" id="BPMN" style="stroke: #A80036; stroke-width: 1.5;" width="98" x="281" y="8"/><ellipse cx="309.95" cy="24" fill="#ADD1B2" rx="11" ry="11" style="stroke: #A80036; stroke-width: 1.0;"/><path d="M312.9188,29.6406 Q312.3406,29.9375 311.7,30.0781 Q311.0594,30.2344 310.3563,30.2344 Q307.8563,30.2344 306.5281,28.5938 Q305.2156,26.9375 305.2156,23.8125 Q305.2156,20.6875 306.5281,19.0313 Q307.8563,17.375 310.3563,17.375 Q311.0594,17.375 311.7,17.5313 Q312.3563,17.6875 312.9188,17.9844 L312.9188,20.7031 Q312.2938,20.125 311.7,19.8594 Q311.1063,19.5781 310.4813,19.5781 Q309.1375,19.5781 308.45,20.6563 Q307.7625,21.7188 307.7625,23.8125 Q307.7625,25.9063 308.45,26.9844 Q309.1375,28.0469 310.4813,28.0469 Q311.1063,28.0469 311.7,27.7813 Q312.2938,27.5 312.9188,26.9219 L312.9188,29.6406 Z "/><text fill="#000000" font-family="sans-serif" font-size="12" lengthAdjust="spacingAndGlyphs" textLength="35" x="327.05" y="28.1543">BPMN</text><line style="stroke: #A80036; stroke-width: 1.5;" x1="282" x2="378" y1="40" y2="40"/><text fill="#000000" font-family="sans-serif" font-size="11" lengthAdjust="spacingAndGlyphs" textLength="86" x="287" y="54.2104">string defintion</text><line style="stroke: #A80036; stroke-width: 1.5;" x1="282" x2="378" y1="60.8047" y2="60.8047"/><!--class BPMNFeature--><rect fill="#FEFECE" filter="url(#f1oic8wd7amlr3)" height="86.4141" id="BPMNFeature" style="stroke: #A80036; stroke-width: 1.5;" width="130" x="265" y="146"/><ellipse cx="286.3" cy="162" fill="#ADD1B2" rx="11" ry="11" style="stroke: #A80036; stroke-width: 1.0;"/><path d="M289.2688,167.6406 Q288.6906,167.9375 288.05,168.0781 Q287.4094,168.2344 286.7063,168.2344 Q284.2063,168.2344 282.8781,166.5938 Q281.5656,164.9375 281.5656,161.8125 Q281.5656,158.6875 282.8781,157.0313 Q284.2063,155.375 286.7063,155.375 Q287.4094,155.375 288.05,155.5313 Q288.7063,155.6875 289.2688,155.9844 L289.2688,158.7031 Q288.6438,158.125 288.05,157.8594 Q287.4563,157.5781 286.8313,157.5781 Q285.4875,157.5781 284.8,158.6563 Q284.1125,159.7188 284.1125,161.8125 Q284.1125,163.9063 284.8,164.9844 Q285.4875,166.0469 286.8313,166.0469 Q287.4563,166.0469 288.05,165.7813 Q288.6438,165.5 289.2688,164.9219 L289.2688,167.6406 Z "/><text fill="#000000" font-family="sans-serif" font-size="12" lengthAdjust="spacingAndGlyphs" textLength="84" x="301.7" y="166.1543">BPMNFeature</text><line style="stroke: #A80036; stroke-width: 1.5;" x1="266" x2="394" y1="178" y2="178"/><text fill="#000000" font-family="sans-serif" font-size="11" lengthAdjust="spacingAndGlyphs" textLength="47" x="271" y="192.2104">string id</text><text fill="#000000" font-family="sans-serif" font-size="11" lengthAdjust="spacingAndGlyphs" textLength="69" x="271" y="205.0151">string name</text><text fill="#000000" font-family="sans-serif" font-size="11" lengthAdjust="spacingAndGlyphs" textLength="118" x="271" y="217.8198">Scenario[] scenarios</text><line style="stroke: #A80036; stroke-width: 1.5;" x1="266" x2="394" y1="224.4141" y2="224.4141"/><!--class Scenario--><rect fill="#FEFECE" filter="url(#f1oic8wd7amlr3)" height="73.6094" id="Scenario" style="stroke: #A80036; stroke-width: 1.5;" width="87" x="286.5" y="309"/><ellipse cx="301.5" cy="325" fill="#B4A7E5" rx="11" ry="11" style="stroke: #A80036; stroke-width: 1.0;"/><path d="M297.4219,320.7656 L297.4219,318.6094 L304.8125,318.6094 L304.8125,320.7656 L302.3438,320.7656 L302.3438,328.8438 L304.8125,328.8438 L304.8125,331 L297.4219,331 L297.4219,328.8438 L299.8906,328.8438 L299.8906,320.7656 L297.4219,320.7656 Z "/><text fill="#000000" font-family="sans-serif" font-size="12" font-style="italic" lengthAdjust="spacingAndGlyphs" textLength="55" x="315.5" y="329.1543">Scenario</text><line style="stroke: #A80036; stroke-width: 1.5;" x1="287.5" x2="372.5" y1="341" y2="341"/><text fill="#000000" font-family="sans-serif" font-size="11" lengthAdjust="spacingAndGlyphs" textLength="47" x="292.5" y="355.2104">string id</text><text fill="#000000" font-family="sans-serif" font-size="11" lengthAdjust="spacingAndGlyphs" textLength="69" x="292.5" y="368.0151">string name</text><line style="stroke: #A80036; stroke-width: 1.5;" x1="287.5" x2="372.5" y1="374.6094" y2="374.6094"/><!--class ExclusiveGatewayScenario--><rect fill="#FEFECE" filter="url(#f1oic8wd7amlr3)" height="86.4141" id="ExclusiveGatewayScenario" style="stroke: #A80036; stroke-width: 1.5;" width="196" x="6" y="444"/><ellipse cx="21" cy="460" fill="#ADD1B2" rx="11" ry="11" style="stroke: #A80036; stroke-width: 1.0;"/><path d="M23.9688,465.6406 Q23.3906,465.9375 22.75,466.0781 Q22.1094,466.2344 21.4063,466.2344 Q18.9063,466.2344 17.5781,464.5938 Q16.2656,462.9375 16.2656,459.8125 Q16.2656,456.6875 17.5781,455.0313 Q18.9063,453.375 21.4063,453.375 Q22.1094,453.375 22.75,453.5313 Q23.4063,453.6875 23.9688,453.9844 L23.9688,456.7031 Q23.3438,456.125 22.75,455.8594 Q22.1563,455.5781 21.5313,455.5781 Q20.1875,455.5781 19.5,456.6563 Q18.8125,457.7188 18.8125,459.8125 Q18.8125,461.9063 19.5,462.9844 Q20.1875,464.0469 21.5313,464.0469 Q22.1563,464.0469 22.75,463.7813 Q23.3438,463.5 23.9688,462.9219 L23.9688,465.6406 Z "/><text fill="#000000" font-family="sans-serif" font-size="12" lengthAdjust="spacingAndGlyphs" textLength="164" x="35" y="464.1543">ExclusiveGatewayScenario</text><line style="stroke: #A80036; stroke-width: 1.5;" x1="7" x2="201" y1="476" y2="476"/><text fill="#000000" font-family="sans-serif" font-size="11" lengthAdjust="spacingAndGlyphs" textLength="67" x="12" y="490.2104">object state</text><text fill="#000000" font-family="sans-serif" font-size="11" lengthAdjust="spacingAndGlyphs" textLength="84" x="12" y="503.0151">string gateway</text><text fill="#000000" font-family="sans-serif" font-size="11" lengthAdjust="spacingAndGlyphs" textLength="113" x="12" y="515.8198">string expectedFlow</text><line style="stroke: #A80036; stroke-width: 1.5;" x1="7" x2="201" y1="522.4141" y2="522.4141"/><!--class ParallelGatewayScenario--><rect fill="#FEFECE" filter="url(#f1oic8wd7amlr3)" height="86.4141" id="ParallelGatewayScenario" style="stroke: #A80036; stroke-width: 1.5;" width="186" x="237" y="444"/><ellipse cx="252" cy="460" fill="#ADD1B2" rx="11" ry="11" style="stroke: #A80036; stroke-width: 1.0;"/><path d="M254.9688,465.6406 Q254.3906,465.9375 253.75,466.0781 Q253.1094,466.2344 252.4063,466.2344 Q249.9063,466.2344 248.5781,464.5938 Q247.2656,462.9375 247.2656,459.8125 Q247.2656,456.6875 248.5781,455.0313 Q249.9063,453.375 252.4063,453.375 Q253.1094,453.375 253.75,453.5313 Q254.4063,453.6875 254.9688,453.9844 L254.9688,456.7031 Q254.3438,456.125 253.75,455.8594 Q253.1563,455.5781 252.5313,455.5781 Q251.1875,455.5781 250.5,456.6563 Q249.8125,457.7188 249.8125,459.8125 Q249.8125,461.9063 250.5,462.9844 Q251.1875,464.0469 252.5313,464.0469 Q253.1563,464.0469 253.75,463.7813 Q254.3438,463.5 254.9688,462.9219 L254.9688,465.6406 Z "/><text fill="#000000" font-family="sans-serif" font-size="12" lengthAdjust="spacingAndGlyphs" textLength="154" x="266" y="464.1543">ParallelGatewayScenario</text><line style="stroke: #A80036; stroke-width: 1.5;" x1="238" x2="422" y1="476" y2="476"/><text fill="#000000" font-family="sans-serif" font-size="11" lengthAdjust="spacingAndGlyphs" textLength="67" x="243" y="490.2104">object state</text><text fill="#000000" font-family="sans-serif" font-size="11" lengthAdjust="spacingAndGlyphs" textLength="84" x="243" y="503.0151">string gateway</text><text fill="#000000" font-family="sans-serif" font-size="11" lengthAdjust="spacingAndGlyphs" textLength="128" x="243" y="515.8198">string[] expectedFlows</text><line style="stroke: #A80036; stroke-width: 1.5;" x1="238" x2="422" y1="522.4141" y2="522.4141"/><!--class DMNScenario--><rect fill="#FEFECE" filter="url(#f1oic8wd7amlr3)" height="86.4141" id="DMNScenario" style="stroke: #A80036; stroke-width: 1.5;" width="136" x="458" y="444"/><ellipse cx="482.45" cy="460" fill="#ADD1B2" rx="11" ry="11" style="stroke: #A80036; stroke-width: 1.0;"/><path d="M485.4188,465.6406 Q484.8406,465.9375 484.2,466.0781 Q483.5594,466.2344 482.8563,466.2344 Q480.3563,466.2344 479.0281,464.5938 Q477.7156,462.9375 477.7156,459.8125 Q477.7156,456.6875 479.0281,455.0313 Q480.3563,453.375 482.8563,453.375 Q483.5594,453.375 484.2,453.5313 Q484.8563,453.6875 485.4188,453.9844 L485.4188,456.7031 Q484.7938,456.125 484.2,455.8594 Q483.6063,455.5781 482.9813,455.5781 Q481.6375,455.5781 480.95,456.6563 Q480.2625,457.7188 480.2625,459.8125 Q480.2625,461.9063 480.95,462.9844 Q481.6375,464.0469 482.9813,464.0469 Q483.6063,464.0469 484.2,463.7813 Q484.7938,463.5 485.4188,462.9219 L485.4188,465.6406 Z "/><text fill="#000000" font-family="sans-serif" font-size="12" lengthAdjust="spacingAndGlyphs" textLength="83" x="498.55" y="464.1543">DMNScenario</text><line style="stroke: #A80036; stroke-width: 1.5;" x1="459" x2="593" y1="476" y2="476"/><text fill="#000000" font-family="sans-serif" font-size="11" lengthAdjust="spacingAndGlyphs" textLength="67" x="464" y="490.2104">object state</text><text fill="#000000" font-family="sans-serif" font-size="11" lengthAdjust="spacingAndGlyphs" textLength="62" x="464" y="503.0151">string dmn</text><text fill="#000000" font-family="sans-serif" font-size="11" lengthAdjust="spacingAndGlyphs" textLength="124" x="464" y="515.8198">object expectedResult</text><line style="stroke: #A80036; stroke-width: 1.5;" x1="459" x2="593" y1="522.4141" y2="522.4141"/><!--link BPMN to BPMNFeature--><path d="M330,74.23 C330,95.67 330,123.31 330,145.98 " fill="none" id="BPMN-BPMNFeature" style="stroke: #A80036; stroke-width: 1.0;"/><polygon fill="#A80036" points="330,69.19,326,78.19,330,74.19,334,78.19,330,69.19" style="stroke: #A80036; stroke-width: 1.0;"/><text fill="#000000" font-family="sans-serif" font-size="13" lengthAdjust="spacingAndGlyphs" textLength="68" x="331" y="112.0669">references</text><!--link BPMNFeature to Scenario--><path d="M330,245.43 C330,266.49 330,289.91 330,308.75 " fill="none" id="BPMNFeature-Scenario" style="stroke: #A80036; stroke-width: 1.0;"/><polygon fill="#A80036" points="330,232.35,326,238.35,330,244.35,334,238.35,330,232.35" style="stroke: #A80036; stroke-width: 1.0;"/><text fill="#000000" font-family="sans-serif" font-size="13" lengthAdjust="spacingAndGlyphs" textLength="54" x="331" y="275.0669">contains</text><text fill="#000000" font-family="sans-serif" font-size="13" lengthAdjust="spacingAndGlyphs" textLength="8" x="321.3625" y="252.4987">1</text><text fill="#000000" font-family="sans-serif" font-size="13" lengthAdjust="spacingAndGlyphs" textLength="36" x="290.7938" y="297.8924">many</text><!--link Scenario to ExclusiveGatewayScenario--><path d="M269.18,384.4 C239.3,402.78 203.18,425 172.34,443.97 " fill="none" id="Scenario-ExclusiveGatewayScenario" style="stroke: #A80036; stroke-width: 1.0; stroke-dasharray: 7.0,7.0;"/><polygon fill="none" points="265.72,378.32,286.42,373.8,273.06,390.24,265.72,378.32" style="stroke: #A80036; stroke-width: 1.0;"/><!--link Scenario to ParallelGatewayScenario--><path d="M330,403.49 C330,416.98 330,431.15 330,443.86 " fill="none" id="Scenario-ParallelGatewayScenario" style="stroke: #A80036; stroke-width: 1.0; stroke-dasharray: 7.0,7.0;"/><polygon fill="none" points="323,403.16,330,383.16,337,403.16,323,403.16" style="stroke: #A80036; stroke-width: 1.0;"/><!--link Scenario to DMNScenario--><path d="M390.47,389.88 C414.66,407.04 442.46,426.75 466.55,443.84 " fill="none" id="Scenario-DMNScenario" style="stroke: #A80036; stroke-width: 1.0; stroke-dasharray: 7.0,7.0;"/><polygon fill="none" points="386.25,395.47,373.99,378.19,394.35,384.05,386.25,395.47" style="stroke: #A80036; stroke-width: 1.0;"/><!--
@startuml feature

class BPMN {
  string defintion
}

class BPMNFeature {
  string id
  string name
  Scenario[] scenarios
}

interface Scenario {
  string id
  string name
}

class ExclusiveGatewayScenario {
  object state
  string gateway
  string expectedFlow
}

class ParallelGatewayScenario {
  object state
  string gateway
  string[] expectedFlows
}

class DMNScenario {  
  object state
  string dmn
  object expectedResult
}

BPMN <- - BPMNFeature : references
BPMNFeature "1" *- - "many" Scenario : contains

Scenario <|.. ExclusiveGatewayScenario
Scenario <|.. ParallelGatewayScenario
Scenario <|.. DMNScenario

@enduml

PlantUML version 1.2019.06(Fri May 24 17:10:25 UTC 2019)
(GPL source distribution)
Java Runtime: OpenJDK Runtime Environment
JVM: OpenJDK 64-Bit Server VM
Java Version: 11.0.15+10
Operating System: Linux
OS Version: 5.13.0-1022-azure
Default Encoding: UTF-8
Language: en
Country: null
--></g></svg>