<?xml version="1.0" encoding="UTF-8" standalone="no"?><svg xmlns="http://www.w3.org/2000/svg" xmlns:xlink="http://www.w3.org/1999/xlink" contentScriptType="application/ecmascript" contentStyleType="text/css" height="605px" preserveAspectRatio="none" style="width:519px;height:605px;" version="1.1" viewBox="0 0 519 605" width="519px" zoomAndPan="magnify"><defs><filter height="300%" id="f17ov11x09211y" width="300%" x="-1" y="-1"><feGaussianBlur result="blurOut" stdDeviation="2.0"/><feColorMatrix in="blurOut" result="blurOut2" type="matrix" values="0 0 0 0 0 0 0 0 0 0 0 0 0 0 0 0 0 0 .4 0"/><feOffset dx="4.0" dy="4.0" in="blurOut2" result="blurOut3"/><feBlend in="SourceGraphic" in2="blurOut3" mode="normal"/></filter></defs><g><rect fill="#FEFECE" filter="url(#f17ov11x09211y)" height="48" id="BrandA" style="stroke: #A80036; stroke-width: 1.5;" width="77" x="120" y="8"/><ellipse cx="135" cy="24" fill="#ADD1B2" rx="11" ry="11" style="stroke: #A80036; stroke-width: 1.0;"/><path d="M137.9688,29.6406 Q137.3906,29.9375 136.75,30.0781 Q136.1094,30.2344 135.4063,30.2344 Q132.9063,30.2344 131.5781,28.5938 Q130.2656,26.9375 130.2656,23.8125 Q130.2656,20.6875 131.5781,19.0313 Q132.9063,17.375 135.4063,17.375 Q136.1094,17.375 136.75,17.5313 Q137.4063,17.6875 137.9688,17.9844 L137.9688,20.7031 Q137.3438,20.125 136.75,19.8594 Q136.1563,19.5781 135.5313,19.5781 Q134.1875,19.5781 133.5,20.6563 Q132.8125,21.7188 132.8125,23.8125 Q132.8125,25.9063 133.5,26.9844 Q134.1875,28.0469 135.5313,28.0469 Q136.1563,28.0469 136.75,27.7813 Q137.3438,27.5 137.9688,26.9219 L137.9688,29.6406 Z "/><text fill="#000000" font-family="sans-serif" font-size="12" lengthAdjust="spacingAndGlyphs" textLength="45" x="149" y="28.1543">BrandA</text><line style="stroke: #A80036; stroke-width: 1.5;" x1="121" x2="196" y1="40" y2="40"/><line style="stroke: #A80036; stroke-width: 1.5;" x1="121" x2="196" y1="48" y2="48"/><rect fill="#FEFECE" filter="url(#f17ov11x09211y)" height="48" id="BrandB" style="stroke: #A80036; stroke-width: 1.5;" width="77" x="232" y="8"/><ellipse cx="247" cy="24" fill="#ADD1B2" rx="11" ry="11" style="stroke: #A80036; stroke-width: 1.0;"/><path d="M249.9688,29.6406 Q249.3906,29.9375 248.75,30.0781 Q248.1094,30.2344 247.4063,30.2344 Q244.9063,30.2344 243.5781,28.5938 Q242.2656,26.9375 242.2656,23.8125 Q242.2656,20.6875 243.5781,19.0313 Q244.9063,17.375 247.4063,17.375 Q248.1094,17.375 248.75,17.5313 Q249.4063,17.6875 249.9688,17.9844 L249.9688,20.7031 Q249.3438,20.125 248.75,19.8594 Q248.1563,19.5781 247.5313,19.5781 Q246.1875,19.5781 245.5,20.6563 Q244.8125,21.7188 244.8125,23.8125 Q244.8125,25.9063 245.5,26.9844 Q246.1875,28.0469 247.5313,28.0469 Q248.1563,28.0469 248.75,27.7813 Q249.3438,27.5 249.9688,26.9219 L249.9688,29.6406 Z "/><text fill="#000000" font-family="sans-serif" font-size="12" lengthAdjust="spacingAndGlyphs" textLength="45" x="261" y="28.1543">BrandB</text><line style="stroke: #A80036; stroke-width: 1.5;" x1="233" x2="308" y1="40" y2="40"/><line style="stroke: #A80036; stroke-width: 1.5;" x1="233" x2="308" y1="48" y2="48"/><rect fill="#FEFECE" filter="url(#f17ov11x09211y)" height="48" id="BrandC" style="stroke: #A80036; stroke-width: 1.5;" width="77" x="344" y="8"/><ellipse cx="359" cy="24" fill="#ADD1B2" rx="11" ry="11" style="stroke: #A80036; stroke-width: 1.0;"/><path d="M361.9688,29.6406 Q361.3906,29.9375 360.75,30.0781 Q360.1094,30.2344 359.4063,30.2344 Q356.9063,30.2344 355.5781,28.5938 Q354.2656,26.9375 354.2656,23.8125 Q354.2656,20.6875 355.5781,19.0313 Q356.9063,17.375 359.4063,17.375 Q360.1094,17.375 360.75,17.5313 Q361.4063,17.6875 361.9688,17.9844 L361.9688,20.7031 Q361.3438,20.125 360.75,19.8594 Q360.1563,19.5781 359.5313,19.5781 Q358.1875,19.5781 357.5,20.6563 Q356.8125,21.7188 356.8125,23.8125 Q356.8125,25.9063 357.5,26.9844 Q358.1875,28.0469 359.5313,28.0469 Q360.1563,28.0469 360.75,27.7813 Q361.3438,27.5 361.9688,26.9219 L361.9688,29.6406 Z "/><text fill="#000000" font-family="sans-serif" font-size="12" lengthAdjust="spacingAndGlyphs" textLength="45" x="373" y="28.1543">BrandC</text><line style="stroke: #A80036; stroke-width: 1.5;" x1="345" x2="420" y1="40" y2="40"/><line style="stroke: #A80036; stroke-width: 1.5;" x1="345" x2="420" y1="48" y2="48"/><rect fill="#FEFECE" filter="url(#f17ov11x09211y)" height="86.4141" id="Brand" style="stroke: #A80036; stroke-width: 1.5;" width="69" x="236" y="133"/><ellipse cx="251" cy="149" fill="#A9DCDF" rx="11" ry="11" style="stroke: #A80036; stroke-width: 1.0;"/><path d="M251.1094,144.3438 L249.9531,149.4219 L252.2813,149.4219 L251.1094,144.3438 Z M249.625,142.1094 L252.6094,142.1094 L255.9688,154.5 L253.5156,154.5 L252.75,151.4375 L249.4688,151.4375 L248.7188,154.5 L246.2813,154.5 L249.625,142.1094 Z "/><text fill="#000000" font-family="sans-serif" font-size="12" font-style="italic" lengthAdjust="spacingAndGlyphs" textLength="37" x="265" y="153.1543">Brand</text><line style="stroke: #A80036; stroke-width: 1.5;" x1="237" x2="304" y1="165" y2="165"/><text fill="#000000" font-family="sans-serif" font-size="11" lengthAdjust="spacingAndGlyphs" textLength="20" x="242" y="179.2104">css</text><text fill="#000000" font-family="sans-serif" font-size="11" lengthAdjust="spacingAndGlyphs" textLength="52" x="242" y="192.0151">variables</text><text fill="#000000" font-family="sans-serif" font-size="11" lengthAdjust="spacingAndGlyphs" textLength="24" x="242" y="204.8198">files</text><line style="stroke: #A80036; stroke-width: 1.5;" x1="237" x2="304" y1="211.4141" y2="211.4141"/><rect fill="#FEFECE" filter="url(#f17ov11x09211y)" height="48" id="Channel" style="stroke: #A80036; stroke-width: 1.5;" width="83" x="229" y="296"/><ellipse cx="244" cy="312" fill="#B4A7E5" rx="11" ry="11" style="stroke: #A80036; stroke-width: 1.0;"/><path d="M239.9219,307.7656 L239.9219,305.6094 L247.3125,305.6094 L247.3125,307.7656 L244.8438,307.7656 L244.8438,315.8438 L247.3125,315.8438 L247.3125,318 L239.9219,318 L239.9219,315.8438 L242.3906,315.8438 L242.3906,307.7656 L239.9219,307.7656 Z "/><text fill="#000000" font-family="sans-serif" font-size="12" font-style="italic" lengthAdjust="spacingAndGlyphs" textLength="51" x="258" y="316.1543">Channel</text><line style="stroke: #A80036; stroke-width: 1.5;" x1="230" x2="311" y1="328" y2="328"/><line style="stroke: #A80036; stroke-width: 1.5;" x1="230" x2="311" y1="336" y2="336"/><rect fill="#FEFECE" filter="url(#f17ov11x09211y)" height="48" id="Web" style="stroke: #A80036; stroke-width: 1.5;" width="59" x="87" y="421"/><ellipse cx="102" cy="437" fill="#ADD1B2" rx="11" ry="11" style="stroke: #A80036; stroke-width: 1.0;"/><path d="M104.9688,442.6406 Q104.3906,442.9375 103.75,443.0781 Q103.1094,443.2344 102.4063,443.2344 Q99.9063,443.2344 98.5781,441.5938 Q97.2656,439.9375 97.2656,436.8125 Q97.2656,433.6875 98.5781,432.0313 Q99.9063,430.375 102.4063,430.375 Q103.1094,430.375 103.75,430.5313 Q104.4063,430.6875 104.9688,430.9844 L104.9688,433.7031 Q104.3438,433.125 103.75,432.8594 Q103.1563,432.5781 102.5313,432.5781 Q101.1875,432.5781 100.5,433.6563 Q99.8125,434.7188 99.8125,436.8125 Q99.8125,438.9063 100.5,439.9844 Q101.1875,441.0469 102.5313,441.0469 Q103.1563,441.0469 103.75,440.7813 Q104.3438,440.5 104.9688,439.9219 L104.9688,442.6406 Z "/><text fill="#000000" font-family="sans-serif" font-size="12" lengthAdjust="spacingAndGlyphs" textLength="27" x="116" y="441.1543">Web</text><line style="stroke: #A80036; stroke-width: 1.5;" x1="88" x2="145" y1="453" y2="453"/><line style="stroke: #A80036; stroke-width: 1.5;" x1="88" x2="145" y1="461" y2="461"/><rect fill="#FEFECE" filter="url(#f17ov11x09211y)" height="48" id="Email" style="stroke: #A80036; stroke-width: 1.5;" width="65" x="238" y="421"/><ellipse cx="253" cy="437" fill="#ADD1B2" rx="11" ry="11" style="stroke: #A80036; stroke-width: 1.0;"/><path d="M255.9688,442.6406 Q255.3906,442.9375 254.75,443.0781 Q254.1094,443.2344 253.4063,443.2344 Q250.9063,443.2344 249.5781,441.5938 Q248.2656,439.9375 248.2656,436.8125 Q248.2656,433.6875 249.5781,432.0313 Q250.9063,430.375 253.4063,430.375 Q254.1094,430.375 254.75,430.5313 Q255.4063,430.6875 255.9688,430.9844 L255.9688,433.7031 Q255.3438,433.125 254.75,432.8594 Q254.1563,432.5781 253.5313,432.5781 Q252.1875,432.5781 251.5,433.6563 Q250.8125,434.7188 250.8125,436.8125 Q250.8125,438.9063 251.5,439.9844 Q252.1875,441.0469 253.5313,441.0469 Q254.1563,441.0469 254.75,440.7813 Q255.3438,440.5 255.9688,439.9219 L255.9688,442.6406 Z "/><text fill="#000000" font-family="sans-serif" font-size="12" lengthAdjust="spacingAndGlyphs" textLength="33" x="267" y="441.1543">Email</text><line style="stroke: #A80036; stroke-width: 1.5;" x1="239" x2="302" y1="453" y2="453"/><line style="stroke: #A80036; stroke-width: 1.5;" x1="239" x2="302" y1="461" y2="461"/><rect fill="#FEFECE" filter="url(#f17ov11x09211y)" height="48" id="Letter" style="stroke: #A80036; stroke-width: 1.5;" width="69" x="398" y="421"/><ellipse cx="413" cy="437" fill="#ADD1B2" rx="11" ry="11" style="stroke: #A80036; stroke-width: 1.0;"/><path d="M415.9688,442.6406 Q415.3906,442.9375 414.75,443.0781 Q414.1094,443.2344 413.4063,443.2344 Q410.9063,443.2344 409.5781,441.5938 Q408.2656,439.9375 408.2656,436.8125 Q408.2656,433.6875 409.5781,432.0313 Q410.9063,430.375 413.4063,430.375 Q414.1094,430.375 414.75,430.5313 Q415.4063,430.6875 415.9688,430.9844 L415.9688,433.7031 Q415.3438,433.125 414.75,432.8594 Q414.1563,432.5781 413.5313,432.5781 Q412.1875,432.5781 411.5,433.6563 Q410.8125,434.7188 410.8125,436.8125 Q410.8125,438.9063 411.5,439.9844 Q412.1875,441.0469 413.5313,441.0469 Q414.1563,441.0469 414.75,440.7813 Q415.3438,440.5 415.9688,439.9219 L415.9688,442.6406 Z "/><text fill="#000000" font-family="sans-serif" font-size="12" lengthAdjust="spacingAndGlyphs" textLength="37" x="427" y="441.1543">Letter</text><line style="stroke: #A80036; stroke-width: 1.5;" x1="399" x2="466" y1="453" y2="453"/><line style="stroke: #A80036; stroke-width: 1.5;" x1="399" x2="466" y1="461" y2="461"/><rect fill="#FEFECE" filter="url(#f17ov11x09211y)" height="48" id="CustomWebBrandA" style="stroke: #A80036; stroke-width: 1.5;" width="151" x="6" y="546"/><ellipse cx="21" cy="562" fill="#ADD1B2" rx="11" ry="11" style="stroke: #A80036; stroke-width: 1.0;"/><path d="M23.9688,567.6406 Q23.3906,567.9375 22.75,568.0781 Q22.1094,568.2344 21.4063,568.2344 Q18.9063,568.2344 17.5781,566.5938 Q16.2656,564.9375 16.2656,561.8125 Q16.2656,558.6875 17.5781,557.0313 Q18.9063,555.375 21.4063,555.375 Q22.1094,555.375 22.75,555.5313 Q23.4063,555.6875 23.9688,555.9844 L23.9688,558.7031 Q23.3438,558.125 22.75,557.8594 Q22.1563,557.5781 21.5313,557.5781 Q20.1875,557.5781 19.5,558.6563 Q18.8125,559.7188 18.8125,561.8125 Q18.8125,563.9063 19.5,564.9844 Q20.1875,566.0469 21.5313,566.0469 Q22.1563,566.0469 22.75,565.7813 Q23.3438,565.5 23.9688,564.9219 L23.9688,567.6406 Z "/><text fill="#000000" font-family="sans-serif" font-size="12" lengthAdjust="spacingAndGlyphs" textLength="119" x="35" y="566.1543">CustomWebBrandA</text><line style="stroke: #A80036; stroke-width: 1.5;" x1="7" x2="156" y1="578" y2="578"/><line style="stroke: #A80036; stroke-width: 1.5;" x1="7" x2="156" y1="586" y2="586"/><rect fill="#FEFECE" filter="url(#f17ov11x09211y)" height="48" id="CustomEmailBrandA" style="stroke: #A80036; stroke-width: 1.5;" width="157" x="192" y="546"/><ellipse cx="207" cy="562" fill="#ADD1B2" rx="11" ry="11" style="stroke: #A80036; stroke-width: 1.0;"/><path d="M209.9688,567.6406 Q209.3906,567.9375 208.75,568.0781 Q208.1094,568.2344 207.4063,568.2344 Q204.9063,568.2344 203.5781,566.5938 Q202.2656,564.9375 202.2656,561.8125 Q202.2656,558.6875 203.5781,557.0313 Q204.9063,555.375 207.4063,555.375 Q208.1094,555.375 208.75,555.5313 Q209.4063,555.6875 209.9688,555.9844 L209.9688,558.7031 Q209.3438,558.125 208.75,557.8594 Q208.1563,557.5781 207.5313,557.5781 Q206.1875,557.5781 205.5,558.6563 Q204.8125,559.7188 204.8125,561.8125 Q204.8125,563.9063 205.5,564.9844 Q206.1875,566.0469 207.5313,566.0469 Q208.1563,566.0469 208.75,565.7813 Q209.3438,565.5 209.9688,564.9219 L209.9688,567.6406 Z "/><text fill="#000000" font-family="sans-serif" font-size="12" lengthAdjust="spacingAndGlyphs" textLength="125" x="221" y="566.1543">CustomEmailBrandA</text><line style="stroke: #A80036; stroke-width: 1.5;" x1="193" x2="348" y1="578" y2="578"/><line style="stroke: #A80036; stroke-width: 1.5;" x1="193" x2="348" y1="586" y2="586"/><rect fill="#FEFECE" filter="url(#f17ov11x09211y)" height="48" id="CustomLetterA" style="stroke: #A80036; stroke-width: 1.5;" width="124" x="384.5" y="546"/><ellipse cx="399.5" cy="562" fill="#ADD1B2" rx="11" ry="11" style="stroke: #A80036; stroke-width: 1.0;"/><path d="M402.4688,567.6406 Q401.8906,567.9375 401.25,568.0781 Q400.6094,568.2344 399.9063,568.2344 Q397.4063,568.2344 396.0781,566.5938 Q394.7656,564.9375 394.7656,561.8125 Q394.7656,558.6875 396.0781,557.0313 Q397.4063,555.375 399.9063,555.375 Q400.6094,555.375 401.25,555.5313 Q401.9063,555.6875 402.4688,555.9844 L402.4688,558.7031 Q401.8438,558.125 401.25,557.8594 Q400.6563,557.5781 400.0313,557.5781 Q398.6875,557.5781 398,558.6563 Q397.3125,559.7188 397.3125,561.8125 Q397.3125,563.9063 398,564.9844 Q398.6875,566.0469 400.0313,566.0469 Q400.6563,566.0469 401.25,565.7813 Q401.8438,565.5 402.4688,564.9219 L402.4688,567.6406 Z "/><text fill="#000000" font-family="sans-serif" font-size="12" lengthAdjust="spacingAndGlyphs" textLength="92" x="413.5" y="566.1543">CustomLetterA</text><line style="stroke: #A80036; stroke-width: 1.5;" x1="385.5" x2="507.5" y1="578" y2="578"/><line style="stroke: #A80036; stroke-width: 1.5;" x1="385.5" x2="507.5" y1="586" y2="586"/><path d="M270.5,224.28 C270.5,248.28 270.5,276.37 270.5,295.69 " fill="none" id="Brand&lt;-Channel" style="stroke: #A80036; stroke-width: 1.0;"/><polygon fill="#A80036" points="270.5,219.22,266.5,228.22,270.5,224.22,274.5,228.22,270.5,219.22" style="stroke: #A80036; stroke-width: 1.0;"/><text fill="#000000" font-family="sans-serif" font-size="13" lengthAdjust="spacingAndGlyphs" textLength="30" x="271.5" y="262.0669">uses</text><path d="M211.67,354.54 C202.31,360.64 192.94,367.23 184.5,374 C166.92,388.1 149.26,406.44 136.34,420.82 " fill="none" id="Channel&lt;-Web" style="stroke: #A80036; stroke-width: 1.0; stroke-dasharray: 7.0,7.0;"/><polygon fill="none" points="208.18,348.47,228.86,343.83,215.59,360.35,208.18,348.47" style="stroke: #A80036; stroke-width: 1.0;"/><text fill="#000000" font-family="sans-serif" font-size="13" lengthAdjust="spacingAndGlyphs" textLength="76" x="185.5" y="387.0669">implements</text><path d="M270.5,364.17 C270.5,383.29 270.5,405.02 270.5,420.97 " fill="none" id="Channel&lt;-Email" style="stroke: #A80036; stroke-width: 1.0; stroke-dasharray: 7.0,7.0;"/><polygon fill="none" points="263.5,364.14,270.5,344.14,277.5,364.14,263.5,364.14" style="stroke: #A80036; stroke-width: 1.0;"/><text fill="#000000" font-family="sans-serif" font-size="13" lengthAdjust="spacingAndGlyphs" textLength="76" x="271.5" y="387.0669">implements</text><path d="M329.01,354.95 C338.41,361 347.87,367.46 356.5,374 C375.37,388.3 394.99,406.46 409.57,420.7 " fill="none" id="Channel&lt;-Letter" style="stroke: #A80036; stroke-width: 1.0; stroke-dasharray: 7.0,7.0;"/><polygon fill="none" points="325.1,360.76,311.81,344.26,332.49,348.87,325.1,360.76" style="stroke: #A80036; stroke-width: 1.0;"/><text fill="#000000" font-family="sans-serif" font-size="13" lengthAdjust="spacingAndGlyphs" textLength="76" x="376.5" y="387.0669">implements</text><path d="M174.62,56.01 C184.46,69.82 197.42,87.63 209.5,103 C213.78,108.45 218.31,114.06 222.89,119.63 " fill="none" id="BrandA-&gt;Brand" style="stroke: #A80036; stroke-width: 1.0;"/><polygon fill="none" points="228.34,115.22,235.77,135.07,217.59,124.19,228.34,115.22" style="stroke: #A80036; stroke-width: 1.0;"/><text fill="#000000" font-family="sans-serif" font-size="13" lengthAdjust="spacingAndGlyphs" textLength="51" x="210.5" y="99.0669">extends</text><path d="M270.5,56.13 C270.5,71.61 270.5,92.77 270.5,112.95 " fill="none" id="BrandB-&gt;Brand" style="stroke: #A80036; stroke-width: 1.0;"/><polygon fill="none" points="277.5,112.95,270.5,132.95,263.5,112.95,277.5,112.95" style="stroke: #A80036; stroke-width: 1.0;"/><text fill="#000000" font-family="sans-serif" font-size="13" lengthAdjust="spacingAndGlyphs" textLength="51" x="271.5" y="99.0669">extends</text><path d="M366.38,56.01 C356.54,69.82 343.58,87.63 331.5,103 C327.22,108.45 322.69,114.06 318.11,119.63 " fill="none" id="BrandC-&gt;Brand" style="stroke: #A80036; stroke-width: 1.0;"/><polygon fill="none" points="323.41,124.19,305.23,135.07,312.66,115.22,323.41,124.19" style="stroke: #A80036; stroke-width: 1.0;"/><text fill="#000000" font-family="sans-serif" font-size="13" lengthAdjust="spacingAndGlyphs" textLength="51" x="345.5" y="99.0669">extends</text><path d="M104.39,488.56 C98.91,507.83 92.64,529.84 88.05,545.97 " fill="none" id="Web&lt;-CustomWebBrandA" style="stroke: #A80036; stroke-width: 1.0;"/><polygon fill="none" points="97.71,486.46,109.92,469.14,111.18,490.29,97.71,486.46" style="stroke: #A80036; stroke-width: 1.0;"/><text fill="#000000" font-family="sans-serif" font-size="13" lengthAdjust="spacingAndGlyphs" textLength="51" x="102.5" y="512.0669">extends</text><path d="M270.5,489.17 C270.5,508.29 270.5,530.02 270.5,545.97 " fill="none" id="Email&lt;-CustomEmailBrandA" style="stroke: #A80036; stroke-width: 1.0;"/><polygon fill="none" points="263.5,489.14,270.5,469.14,277.5,489.14,263.5,489.14" style="stroke: #A80036; stroke-width: 1.0;"/><text fill="#000000" font-family="sans-serif" font-size="13" lengthAdjust="spacingAndGlyphs" textLength="51" x="271.5" y="512.0669">extends</text><path d="M437.41,489.17 C439.59,508.29 442.06,530.02 443.88,545.97 " fill="none" id="Letter&lt;-CustomLetterA" style="stroke: #A80036; stroke-width: 1.0;"/><polygon fill="none" points="430.44,489.8,435.13,469.14,444.35,488.22,430.44,489.8" style="stroke: #A80036; stroke-width: 1.0;"/><text fill="#000000" font-family="sans-serif" font-size="13" lengthAdjust="spacingAndGlyphs" textLength="51" x="440.5" y="512.0669">extends</text></g></svg>