<?xml version="1.0" encoding="UTF-8" standalone="no"?><svg xmlns="http://www.w3.org/2000/svg" xmlns:xlink="http://www.w3.org/1999/xlink" contentScriptType="application/ecmascript" contentStyleType="text/css" height="875px" preserveAspectRatio="none" style="width:1795px;height:875px;" version="1.1" viewBox="0 0 1795 875" width="1795px" zoomAndPan="magnify"><defs><filter height="300%" id="f1i9682ioayaq5" width="300%" x="-1" y="-1"><feGaussianBlur result="blurOut" stdDeviation="2.0"/><feColorMatrix in="blurOut" result="blurOut2" type="matrix" values="0 0 0 0 0 0 0 0 0 0 0 0 0 0 0 0 0 0 .4 0"/><feOffset dx="4.0" dy="4.0" in="blurOut2" result="blurOut3"/><feBlend in="SourceGraphic" in2="blurOut3" mode="normal"/></filter></defs><g><!--class FileParser--><rect fill="#FEFECE" filter="url(#f1i9682ioayaq5)" height="60.8047" id="FileParser" style="stroke: #A80036; stroke-width: 1.5;" width="183" x="844.5" y="116"/><ellipse cx="901.75" cy="132" fill="#B4A7E5" rx="11" ry="11" style="stroke: #A80036; stroke-width: 1.0;"/><path d="M897.6719,127.7656 L897.6719,125.6094 L905.0625,125.6094 L905.0625,127.7656 L902.5938,127.7656 L902.5938,135.8438 L905.0625,135.8438 L905.0625,138 L897.6719,138 L897.6719,135.8438 L900.1406,135.8438 L900.1406,127.7656 L897.6719,127.7656 Z "/><text fill="#000000" font-family="sans-serif" font-size="12" font-style="italic" lengthAdjust="spacingAndGlyphs" textLength="60" x="922.25" y="136.1543">FileParser</text><line style="stroke: #A80036; stroke-width: 1.5;" x1="845.5" x2="1026.5" y1="148" y2="148"/><line style="stroke: #A80036; stroke-width: 1.5;" x1="845.5" x2="1026.5" y1="156" y2="156"/><text fill="#000000" font-family="sans-serif" font-size="11" lengthAdjust="spacingAndGlyphs" textLength="171" x="850.5" y="170.2104">async parse(file: string) : void</text><!--class HtmlParser--><rect fill="#FEFECE" filter="url(#f1i9682ioayaq5)" height="60.8047" id="HtmlParser" style="stroke: #A80036; stroke-width: 1.5;" width="225" x="823.5" y="453"/><ellipse cx="898.25" cy="469" fill="#B4A7E5" rx="11" ry="11" style="stroke: #A80036; stroke-width: 1.0;"/><path d="M894.1719,464.7656 L894.1719,462.6094 L901.5625,462.6094 L901.5625,464.7656 L899.0938,464.7656 L899.0938,472.8438 L901.5625,472.8438 L901.5625,475 L894.1719,475 L894.1719,472.8438 L896.6406,472.8438 L896.6406,464.7656 L894.1719,464.7656 Z "/><text fill="#000000" font-family="sans-serif" font-size="12" font-style="italic" lengthAdjust="spacingAndGlyphs" textLength="67" x="918.75" y="473.1543">HtmlParser</text><line style="stroke: #A80036; stroke-width: 1.5;" x1="824.5" x2="1047.5" y1="485" y2="485"/><line style="stroke: #A80036; stroke-width: 1.5;" x1="824.5" x2="1047.5" y1="493" y2="493"/><text fill="#000000" font-family="sans-serif" font-size="11" lengthAdjust="spacingAndGlyphs" textLength="213" x="829.5" y="507.2104">async parse(element: Element) : void</text><!--class AnchorParser--><rect fill="#FEFECE" filter="url(#f1i9682ioayaq5)" height="73.6094" id="AnchorParser" style="stroke: #A80036; stroke-width: 1.5;" width="367" x="178.5" y="682"/><ellipse cx="316.25" cy="698" fill="#B4A7E5" rx="11" ry="11" style="stroke: #A80036; stroke-width: 1.0;"/><path d="M312.1719,693.7656 L312.1719,691.6094 L319.5625,691.6094 L319.5625,693.7656 L317.0938,693.7656 L317.0938,701.8438 L319.5625,701.8438 L319.5625,704 L312.1719,704 L312.1719,701.8438 L314.6406,701.8438 L314.6406,693.7656 L312.1719,693.7656 Z "/><text fill="#000000" font-family="sans-serif" font-size="12" font-style="italic" lengthAdjust="spacingAndGlyphs" textLength="83" x="336.75" y="702.1543">AnchorParser</text><line style="stroke: #A80036; stroke-width: 1.5;" x1="179.5" x2="544.5" y1="714" y2="714"/><line style="stroke: #A80036; stroke-width: 1.5;" x1="179.5" x2="544.5" y1="722" y2="722"/><text fill="#000000" font-family="sans-serif" font-size="11" lengthAdjust="spacingAndGlyphs" textLength="259" x="184.5" y="736.2104">canParse(anchor: HTMLAnchorElement) : bool</text><text fill="#000000" font-family="sans-serif" font-size="11" lengthAdjust="spacingAndGlyphs" textLength="355" x="184.5" y="749.0151">async parse(file: string, anchor: HTMLAnchorElement) : string;</text><!--class CompositeFileParser--><rect fill="#FEFECE" filter="url(#f1i9682ioayaq5)" height="48" id="CompositeFileParser" style="stroke: #A80036; stroke-width: 1.5;" width="160" x="856" y="8"/><ellipse cx="871" cy="24" fill="#ADD1B2" rx="11" ry="11" style="stroke: #A80036; stroke-width: 1.0;"/><path d="M873.9688,29.6406 Q873.3906,29.9375 872.75,30.0781 Q872.1094,30.2344 871.4063,30.2344 Q868.9063,30.2344 867.5781,28.5938 Q866.2656,26.9375 866.2656,23.8125 Q866.2656,20.6875 867.5781,19.0313 Q868.9063,17.375 871.4063,17.375 Q872.1094,17.375 872.75,17.5313 Q873.4063,17.6875 873.9688,17.9844 L873.9688,20.7031 Q873.3438,20.125 872.75,19.8594 Q872.1563,19.5781 871.5313,19.5781 Q870.1875,19.5781 869.5,20.6563 Q868.8125,21.7188 868.8125,23.8125 Q868.8125,25.9063 869.5,26.9844 Q870.1875,28.0469 871.5313,28.0469 Q872.1563,28.0469 872.75,27.7813 Q873.3438,27.5 873.9688,26.9219 L873.9688,29.6406 Z "/><text fill="#000000" font-family="sans-serif" font-size="12" lengthAdjust="spacingAndGlyphs" textLength="128" x="885" y="28.1543">CompositeFileParser</text><line style="stroke: #A80036; stroke-width: 1.5;" x1="857" x2="1015" y1="40" y2="40"/><line style="stroke: #A80036; stroke-width: 1.5;" x1="857" x2="1015" y1="48" y2="48"/><!--class AsyncapiFileParser--><rect fill="#FEFECE" filter="url(#f1i9682ioayaq5)" height="48" id="AsyncapiFileParser" style="stroke: #A80036; stroke-width: 1.5;" width="149" x="125.5" y="237"/><ellipse cx="140.5" cy="253" fill="#ADD1B2" rx="11" ry="11" style="stroke: #A80036; stroke-width: 1.0;"/><path d="M143.4688,258.6406 Q142.8906,258.9375 142.25,259.0781 Q141.6094,259.2344 140.9063,259.2344 Q138.4063,259.2344 137.0781,257.5938 Q135.7656,255.9375 135.7656,252.8125 Q135.7656,249.6875 137.0781,248.0313 Q138.4063,246.375 140.9063,246.375 Q141.6094,246.375 142.25,246.5313 Q142.9063,246.6875 143.4688,246.9844 L143.4688,249.7031 Q142.8438,249.125 142.25,248.8594 Q141.6563,248.5781 141.0313,248.5781 Q139.6875,248.5781 139,249.6563 Q138.3125,250.7188 138.3125,252.8125 Q138.3125,254.9063 139,255.9844 Q139.6875,257.0469 141.0313,257.0469 Q141.6563,257.0469 142.25,256.7813 Q142.8438,256.5 143.4688,255.9219 L143.4688,258.6406 Z "/><text fill="#000000" font-family="sans-serif" font-size="12" lengthAdjust="spacingAndGlyphs" textLength="117" x="154.5" y="257.1543">AsyncapiFileParser</text><line style="stroke: #A80036; stroke-width: 1.5;" x1="126.5" x2="273.5" y1="269" y2="269"/><line style="stroke: #A80036; stroke-width: 1.5;" x1="126.5" x2="273.5" y1="277" y2="277"/><!--class DashboardFileParser--><rect fill="#FEFECE" filter="url(#f1i9682ioayaq5)" height="48" id="DashboardFileParser" style="stroke: #A80036; stroke-width: 1.5;" width="163" x="309.5" y="237"/><ellipse cx="324.5" cy="253" fill="#ADD1B2" rx="11" ry="11" style="stroke: #A80036; stroke-width: 1.0;"/><path d="M327.4688,258.6406 Q326.8906,258.9375 326.25,259.0781 Q325.6094,259.2344 324.9063,259.2344 Q322.4063,259.2344 321.0781,257.5938 Q319.7656,255.9375 319.7656,252.8125 Q319.7656,249.6875 321.0781,248.0313 Q322.4063,246.375 324.9063,246.375 Q325.6094,246.375 326.25,246.5313 Q326.9063,246.6875 327.4688,246.9844 L327.4688,249.7031 Q326.8438,249.125 326.25,248.8594 Q325.6563,248.5781 325.0313,248.5781 Q323.6875,248.5781 323,249.6563 Q322.3125,250.7188 322.3125,252.8125 Q322.3125,254.9063 323,255.9844 Q323.6875,257.0469 325.0313,257.0469 Q325.6563,257.0469 326.25,256.7813 Q326.8438,256.5 327.4688,255.9219 L327.4688,258.6406 Z "/><text fill="#000000" font-family="sans-serif" font-size="12" lengthAdjust="spacingAndGlyphs" textLength="131" x="338.5" y="257.1543">DashboardFileParser</text><line style="stroke: #A80036; stroke-width: 1.5;" x1="310.5" x2="471.5" y1="269" y2="269"/><line style="stroke: #A80036; stroke-width: 1.5;" x1="310.5" x2="471.5" y1="277" y2="277"/><!--class DrawIOFileParser--><rect fill="#FEFECE" filter="url(#f1i9682ioayaq5)" height="48" id="DrawIOFileParser" style="stroke: #A80036; stroke-width: 1.5;" width="137" x="507.5" y="237"/><ellipse cx="522.5" cy="253" fill="#ADD1B2" rx="11" ry="11" style="stroke: #A80036; stroke-width: 1.0;"/><path d="M525.4688,258.6406 Q524.8906,258.9375 524.25,259.0781 Q523.6094,259.2344 522.9063,259.2344 Q520.4063,259.2344 519.0781,257.5938 Q517.7656,255.9375 517.7656,252.8125 Q517.7656,249.6875 519.0781,248.0313 Q520.4063,246.375 522.9063,246.375 Q523.6094,246.375 524.25,246.5313 Q524.9063,246.6875 525.4688,246.9844 L525.4688,249.7031 Q524.8438,249.125 524.25,248.8594 Q523.6563,248.5781 523.0313,248.5781 Q521.6875,248.5781 521,249.6563 Q520.3125,250.7188 520.3125,252.8125 Q520.3125,254.9063 521,255.9844 Q521.6875,257.0469 523.0313,257.0469 Q523.6563,257.0469 524.25,256.7813 Q524.8438,256.5 525.4688,255.9219 L525.4688,258.6406 Z "/><text fill="#000000" font-family="sans-serif" font-size="12" lengthAdjust="spacingAndGlyphs" textLength="105" x="536.5" y="257.1543">DrawIOFileParser</text><line style="stroke: #A80036; stroke-width: 1.5;" x1="508.5" x2="643.5" y1="269" y2="269"/><line style="stroke: #A80036; stroke-width: 1.5;" x1="508.5" x2="643.5" y1="277" y2="277"/><!--class FeatureFileParser--><rect fill="#FEFECE" filter="url(#f1i9682ioayaq5)" height="48" id="FeatureFileParser" style="stroke: #A80036; stroke-width: 1.5;" width="143" x="679.5" y="237"/><ellipse cx="694.5" cy="253" fill="#ADD1B2" rx="11" ry="11" style="stroke: #A80036; stroke-width: 1.0;"/><path d="M697.4688,258.6406 Q696.8906,258.9375 696.25,259.0781 Q695.6094,259.2344 694.9063,259.2344 Q692.4063,259.2344 691.0781,257.5938 Q689.7656,255.9375 689.7656,252.8125 Q689.7656,249.6875 691.0781,248.0313 Q692.4063,246.375 694.9063,246.375 Q695.6094,246.375 696.25,246.5313 Q696.9063,246.6875 697.4688,246.9844 L697.4688,249.7031 Q696.8438,249.125 696.25,248.8594 Q695.6563,248.5781 695.0313,248.5781 Q693.6875,248.5781 693,249.6563 Q692.3125,250.7188 692.3125,252.8125 Q692.3125,254.9063 693,255.9844 Q693.6875,257.0469 695.0313,257.0469 Q695.6563,257.0469 696.25,256.7813 Q696.8438,256.5 697.4688,255.9219 L697.4688,258.6406 Z "/><text fill="#000000" font-family="sans-serif" font-size="12" lengthAdjust="spacingAndGlyphs" textLength="111" x="708.5" y="257.1543">FeatureFileParser</text><line style="stroke: #A80036; stroke-width: 1.5;" x1="680.5" x2="821.5" y1="269" y2="269"/><line style="stroke: #A80036; stroke-width: 1.5;" x1="680.5" x2="821.5" y1="277" y2="277"/><!--class MarkdownFileParser--><rect fill="#FEFECE" filter="url(#f1i9682ioayaq5)" height="48" id="MarkdownFileParser" style="stroke: #A80036; stroke-width: 1.5;" width="157" x="857.5" y="237"/><ellipse cx="872.5" cy="253" fill="#ADD1B2" rx="11" ry="11" style="stroke: #A80036; stroke-width: 1.0;"/><path d="M875.4688,258.6406 Q874.8906,258.9375 874.25,259.0781 Q873.6094,259.2344 872.9063,259.2344 Q870.4063,259.2344 869.0781,257.5938 Q867.7656,255.9375 867.7656,252.8125 Q867.7656,249.6875 869.0781,248.0313 Q870.4063,246.375 872.9063,246.375 Q873.6094,246.375 874.25,246.5313 Q874.9063,246.6875 875.4688,246.9844 L875.4688,249.7031 Q874.8438,249.125 874.25,248.8594 Q873.6563,248.5781 873.0313,248.5781 Q871.6875,248.5781 871,249.6563 Q870.3125,250.7188 870.3125,252.8125 Q870.3125,254.9063 871,255.9844 Q871.6875,257.0469 873.0313,257.0469 Q873.6563,257.0469 874.25,256.7813 Q874.8438,256.5 875.4688,255.9219 L875.4688,258.6406 Z "/><text fill="#000000" font-family="sans-serif" font-size="12" lengthAdjust="spacingAndGlyphs" textLength="125" x="886.5" y="257.1543">MarkdownFileParser</text><line style="stroke: #A80036; stroke-width: 1.5;" x1="858.5" x2="1013.5" y1="269" y2="269"/><line style="stroke: #A80036; stroke-width: 1.5;" x1="858.5" x2="1013.5" y1="277" y2="277"/><!--class MarkdownMessageFileParser--><rect fill="#FEFECE" filter="url(#f1i9682ioayaq5)" height="48" id="MarkdownMessageFileParser" style="stroke: #A80036; stroke-width: 1.5;" width="213" x="1049.5" y="237"/><ellipse cx="1064.5" cy="253" fill="#ADD1B2" rx="11" ry="11" style="stroke: #A80036; stroke-width: 1.0;"/><path d="M1067.4688,258.6406 Q1066.8906,258.9375 1066.25,259.0781 Q1065.6094,259.2344 1064.9063,259.2344 Q1062.4063,259.2344 1061.0781,257.5938 Q1059.7656,255.9375 1059.7656,252.8125 Q1059.7656,249.6875 1061.0781,248.0313 Q1062.4063,246.375 1064.9063,246.375 Q1065.6094,246.375 1066.25,246.5313 Q1066.9063,246.6875 1067.4688,246.9844 L1067.4688,249.7031 Q1066.8438,249.125 1066.25,248.8594 Q1065.6563,248.5781 1065.0313,248.5781 Q1063.6875,248.5781 1063,249.6563 Q1062.3125,250.7188 1062.3125,252.8125 Q1062.3125,254.9063 1063,255.9844 Q1063.6875,257.0469 1065.0313,257.0469 Q1065.6563,257.0469 1066.25,256.7813 Q1066.8438,256.5 1067.4688,255.9219 L1067.4688,258.6406 Z "/><text fill="#000000" font-family="sans-serif" font-size="12" lengthAdjust="spacingAndGlyphs" textLength="181" x="1078.5" y="257.1543">MarkdownMessageFileParser</text><line style="stroke: #A80036; stroke-width: 1.5;" x1="1050.5" x2="1261.5" y1="269" y2="269"/><line style="stroke: #A80036; stroke-width: 1.5;" x1="1050.5" x2="1261.5" y1="277" y2="277"/><!--class OpenapiFileParser--><rect fill="#FEFECE" filter="url(#f1i9682ioayaq5)" height="48" id="OpenapiFileParser" style="stroke: #A80036; stroke-width: 1.5;" width="146" x="1298" y="237"/><ellipse cx="1313" cy="253" fill="#ADD1B2" rx="11" ry="11" style="stroke: #A80036; stroke-width: 1.0;"/><path d="M1315.9688,258.6406 Q1315.3906,258.9375 1314.75,259.0781 Q1314.1094,259.2344 1313.4063,259.2344 Q1310.9063,259.2344 1309.5781,257.5938 Q1308.2656,255.9375 1308.2656,252.8125 Q1308.2656,249.6875 1309.5781,248.0313 Q1310.9063,246.375 1313.4063,246.375 Q1314.1094,246.375 1314.75,246.5313 Q1315.4063,246.6875 1315.9688,246.9844 L1315.9688,249.7031 Q1315.3438,249.125 1314.75,248.8594 Q1314.1563,248.5781 1313.5313,248.5781 Q1312.1875,248.5781 1311.5,249.6563 Q1310.8125,250.7188 1310.8125,252.8125 Q1310.8125,254.9063 1311.5,255.9844 Q1312.1875,257.0469 1313.5313,257.0469 Q1314.1563,257.0469 1314.75,256.7813 Q1315.3438,256.5 1315.9688,255.9219 L1315.9688,258.6406 Z "/><text fill="#000000" font-family="sans-serif" font-size="12" lengthAdjust="spacingAndGlyphs" textLength="114" x="1327" y="257.1543">OpenapiFileParser</text><line style="stroke: #A80036; stroke-width: 1.5;" x1="1299" x2="1443" y1="269" y2="269"/><line style="stroke: #A80036; stroke-width: 1.5;" x1="1299" x2="1443" y1="277" y2="277"/><!--class UmlFileParser--><rect fill="#FEFECE" filter="url(#f1i9682ioayaq5)" height="48" id="UmlFileParser" style="stroke: #A80036; stroke-width: 1.5;" width="117" x="1479.5" y="237"/><ellipse cx="1494.5" cy="253" fill="#ADD1B2" rx="11" ry="11" style="stroke: #A80036; stroke-width: 1.0;"/><path d="M1497.4688,258.6406 Q1496.8906,258.9375 1496.25,259.0781 Q1495.6094,259.2344 1494.9063,259.2344 Q1492.4063,259.2344 1491.0781,257.5938 Q1489.7656,255.9375 1489.7656,252.8125 Q1489.7656,249.6875 1491.0781,248.0313 Q1492.4063,246.375 1494.9063,246.375 Q1495.6094,246.375 1496.25,246.5313 Q1496.9063,246.6875 1497.4688,246.9844 L1497.4688,249.7031 Q1496.8438,249.125 1496.25,248.8594 Q1495.6563,248.5781 1495.0313,248.5781 Q1493.6875,248.5781 1493,249.6563 Q1492.3125,250.7188 1492.3125,252.8125 Q1492.3125,254.9063 1493,255.9844 Q1493.6875,257.0469 1495.0313,257.0469 Q1495.6563,257.0469 1496.25,256.7813 Q1496.8438,256.5 1497.4688,255.9219 L1497.4688,258.6406 Z "/><text fill="#000000" font-family="sans-serif" font-size="12" lengthAdjust="spacingAndGlyphs" textLength="85" x="1508.5" y="257.1543">UmlFileParser</text><line style="stroke: #A80036; stroke-width: 1.5;" x1="1480.5" x2="1595.5" y1="269" y2="269"/><line style="stroke: #A80036; stroke-width: 1.5;" x1="1480.5" x2="1595.5" y1="277" y2="277"/><!--class UserTaskFileParser--><rect fill="#FEFECE" filter="url(#f1i9682ioayaq5)" height="48" id="UserTaskFileParser" style="stroke: #A80036; stroke-width: 1.5;" width="152" x="1632" y="237"/><ellipse cx="1647" cy="253" fill="#ADD1B2" rx="11" ry="11" style="stroke: #A80036; stroke-width: 1.0;"/><path d="M1649.9688,258.6406 Q1649.3906,258.9375 1648.75,259.0781 Q1648.1094,259.2344 1647.4063,259.2344 Q1644.9063,259.2344 1643.5781,257.5938 Q1642.2656,255.9375 1642.2656,252.8125 Q1642.2656,249.6875 1643.5781,248.0313 Q1644.9063,246.375 1647.4063,246.375 Q1648.1094,246.375 1648.75,246.5313 Q1649.4063,246.6875 1649.9688,246.9844 L1649.9688,249.7031 Q1649.3438,249.125 1648.75,248.8594 Q1648.1563,248.5781 1647.5313,248.5781 Q1646.1875,248.5781 1645.5,249.6563 Q1644.8125,250.7188 1644.8125,252.8125 Q1644.8125,254.9063 1645.5,255.9844 Q1646.1875,257.0469 1647.5313,257.0469 Q1648.1563,257.0469 1648.75,256.7813 Q1649.3438,256.5 1649.9688,255.9219 L1649.9688,258.6406 Z "/><text fill="#000000" font-family="sans-serif" font-size="12" lengthAdjust="spacingAndGlyphs" textLength="120" x="1661" y="257.1543">UserTaskFileParser</text><line style="stroke: #A80036; stroke-width: 1.5;" x1="1633" x2="1783" y1="269" y2="269"/><line style="stroke: #A80036; stroke-width: 1.5;" x1="1633" x2="1783" y1="277" y2="277"/><!--class MarkdownRenderer--><rect fill="#FEFECE" filter="url(#f1i9682ioayaq5)" height="48" id="MarkdownRenderer" style="stroke: #A80036; stroke-width: 1.5;" width="153" x="859.5" y="345"/><ellipse cx="874.5" cy="361" fill="#ADD1B2" rx="11" ry="11" style="stroke: #A80036; stroke-width: 1.0;"/><path d="M877.4688,366.6406 Q876.8906,366.9375 876.25,367.0781 Q875.6094,367.2344 874.9063,367.2344 Q872.4063,367.2344 871.0781,365.5938 Q869.7656,363.9375 869.7656,360.8125 Q869.7656,357.6875 871.0781,356.0313 Q872.4063,354.375 874.9063,354.375 Q875.6094,354.375 876.25,354.5313 Q876.9063,354.6875 877.4688,354.9844 L877.4688,357.7031 Q876.8438,357.125 876.25,356.8594 Q875.6563,356.5781 875.0313,356.5781 Q873.6875,356.5781 873,357.6563 Q872.3125,358.7188 872.3125,360.8125 Q872.3125,362.9063 873,363.9844 Q873.6875,365.0469 875.0313,365.0469 Q875.6563,365.0469 876.25,364.7813 Q876.8438,364.5 877.4688,363.9219 L877.4688,366.6406 Z "/><text fill="#000000" font-family="sans-serif" font-size="12" lengthAdjust="spacingAndGlyphs" textLength="121" x="888.5" y="365.1543">MarkdownRenderer</text><line style="stroke: #A80036; stroke-width: 1.5;" x1="860.5" x2="1011.5" y1="377" y2="377"/><line style="stroke: #A80036; stroke-width: 1.5;" x1="860.5" x2="1011.5" y1="385" y2="385"/><!--class AnchorHtmlParser--><rect fill="#FEFECE" filter="url(#f1i9682ioayaq5)" height="48" id="AnchorHtmlParser" style="stroke: #A80036; stroke-width: 1.5;" width="145" x="289.5" y="574"/><ellipse cx="304.5" cy="590" fill="#ADD1B2" rx="11" ry="11" style="stroke: #A80036; stroke-width: 1.0;"/><path d="M307.4688,595.6406 Q306.8906,595.9375 306.25,596.0781 Q305.6094,596.2344 304.9063,596.2344 Q302.4063,596.2344 301.0781,594.5938 Q299.7656,592.9375 299.7656,589.8125 Q299.7656,586.6875 301.0781,585.0313 Q302.4063,583.375 304.9063,583.375 Q305.6094,583.375 306.25,583.5313 Q306.9063,583.6875 307.4688,583.9844 L307.4688,586.7031 Q306.8438,586.125 306.25,585.8594 Q305.6563,585.5781 305.0313,585.5781 Q303.6875,585.5781 303,586.6563 Q302.3125,587.7188 302.3125,589.8125 Q302.3125,591.9063 303,592.9844 Q303.6875,594.0469 305.0313,594.0469 Q305.6563,594.0469 306.25,593.7813 Q306.8438,593.5 307.4688,592.9219 L307.4688,595.6406 Z "/><text fill="#000000" font-family="sans-serif" font-size="12" lengthAdjust="spacingAndGlyphs" textLength="113" x="318.5" y="594.1543">AnchorHtmlParser</text><line style="stroke: #A80036; stroke-width: 1.5;" x1="290.5" x2="433.5" y1="606" y2="606"/><line style="stroke: #A80036; stroke-width: 1.5;" x1="290.5" x2="433.5" y1="614" y2="614"/><!--class CleanUpHtmlParser--><rect fill="#FEFECE" filter="url(#f1i9682ioayaq5)" height="48" id="CleanUpHtmlParser" style="stroke: #A80036; stroke-width: 1.5;" width="153" x="469.5" y="574"/><ellipse cx="484.5" cy="590" fill="#ADD1B2" rx="11" ry="11" style="stroke: #A80036; stroke-width: 1.0;"/><path d="M487.4688,595.6406 Q486.8906,595.9375 486.25,596.0781 Q485.6094,596.2344 484.9063,596.2344 Q482.4063,596.2344 481.0781,594.5938 Q479.7656,592.9375 479.7656,589.8125 Q479.7656,586.6875 481.0781,585.0313 Q482.4063,583.375 484.9063,583.375 Q485.6094,583.375 486.25,583.5313 Q486.9063,583.6875 487.4688,583.9844 L487.4688,586.7031 Q486.8438,586.125 486.25,585.8594 Q485.6563,585.5781 485.0313,585.5781 Q483.6875,585.5781 483,586.6563 Q482.3125,587.7188 482.3125,589.8125 Q482.3125,591.9063 483,592.9844 Q483.6875,594.0469 485.0313,594.0469 Q485.6563,594.0469 486.25,593.7813 Q486.8438,593.5 487.4688,592.9219 L487.4688,595.6406 Z "/><text fill="#000000" font-family="sans-serif" font-size="12" lengthAdjust="spacingAndGlyphs" textLength="121" x="498.5" y="594.1543">CleanUpHtmlParser</text><line style="stroke: #A80036; stroke-width: 1.5;" x1="470.5" x2="621.5" y1="606" y2="606"/><line style="stroke: #A80036; stroke-width: 1.5;" x1="470.5" x2="621.5" y1="614" y2="614"/><!--class DefinitionHtmlParser--><rect fill="#FEFECE" filter="url(#f1i9682ioayaq5)" height="48" id="DefinitionHtmlParser" style="stroke: #A80036; stroke-width: 1.5;" width="160" x="658" y="574"/><ellipse cx="673" cy="590" fill="#ADD1B2" rx="11" ry="11" style="stroke: #A80036; stroke-width: 1.0;"/><path d="M675.9688,595.6406 Q675.3906,595.9375 674.75,596.0781 Q674.1094,596.2344 673.4063,596.2344 Q670.9063,596.2344 669.5781,594.5938 Q668.2656,592.9375 668.2656,589.8125 Q668.2656,586.6875 669.5781,585.0313 Q670.9063,583.375 673.4063,583.375 Q674.1094,583.375 674.75,583.5313 Q675.4063,583.6875 675.9688,583.9844 L675.9688,586.7031 Q675.3438,586.125 674.75,585.8594 Q674.1563,585.5781 673.5313,585.5781 Q672.1875,585.5781 671.5,586.6563 Q670.8125,587.7188 670.8125,589.8125 Q670.8125,591.9063 671.5,592.9844 Q672.1875,594.0469 673.5313,594.0469 Q674.1563,594.0469 674.75,593.7813 Q675.3438,593.5 675.9688,592.9219 L675.9688,595.6406 Z "/><text fill="#000000" font-family="sans-serif" font-size="12" lengthAdjust="spacingAndGlyphs" textLength="128" x="687" y="594.1543">DefinitionHtmlParser</text><line style="stroke: #A80036; stroke-width: 1.5;" x1="659" x2="817" y1="606" y2="606"/><line style="stroke: #A80036; stroke-width: 1.5;" x1="659" x2="817" y1="614" y2="614"/><!--class FullscreenHtmlParser--><rect fill="#FEFECE" filter="url(#f1i9682ioayaq5)" height="48" id="FullscreenHtmlParser" style="stroke: #A80036; stroke-width: 1.5;" width="165" x="853.5" y="574"/><ellipse cx="868.5" cy="590" fill="#ADD1B2" rx="11" ry="11" style="stroke: #A80036; stroke-width: 1.0;"/><path d="M871.4688,595.6406 Q870.8906,595.9375 870.25,596.0781 Q869.6094,596.2344 868.9063,596.2344 Q866.4063,596.2344 865.0781,594.5938 Q863.7656,592.9375 863.7656,589.8125 Q863.7656,586.6875 865.0781,585.0313 Q866.4063,583.375 868.9063,583.375 Q869.6094,583.375 870.25,583.5313 Q870.9063,583.6875 871.4688,583.9844 L871.4688,586.7031 Q870.8438,586.125 870.25,585.8594 Q869.6563,585.5781 869.0313,585.5781 Q867.6875,585.5781 867,586.6563 Q866.3125,587.7188 866.3125,589.8125 Q866.3125,591.9063 867,592.9844 Q867.6875,594.0469 869.0313,594.0469 Q869.6563,594.0469 870.25,593.7813 Q870.8438,593.5 871.4688,592.9219 L871.4688,595.6406 Z "/><text fill="#000000" font-family="sans-serif" font-size="12" lengthAdjust="spacingAndGlyphs" textLength="133" x="882.5" y="594.1543">FullscreenHtmlParser</text><line style="stroke: #A80036; stroke-width: 1.5;" x1="854.5" x2="1017.5" y1="606" y2="606"/><line style="stroke: #A80036; stroke-width: 1.5;" x1="854.5" x2="1017.5" y1="614" y2="614"/><!--class HeadingHtmlParser--><rect fill="#FEFECE" filter="url(#f1i9682ioayaq5)" height="48" id="HeadingHtmlParser" style="stroke: #A80036; stroke-width: 1.5;" width="153" x="1053.5" y="574"/><ellipse cx="1068.5" cy="590" fill="#ADD1B2" rx="11" ry="11" style="stroke: #A80036; stroke-width: 1.0;"/><path d="M1071.4688,595.6406 Q1070.8906,595.9375 1070.25,596.0781 Q1069.6094,596.2344 1068.9063,596.2344 Q1066.4063,596.2344 1065.0781,594.5938 Q1063.7656,592.9375 1063.7656,589.8125 Q1063.7656,586.6875 1065.0781,585.0313 Q1066.4063,583.375 1068.9063,583.375 Q1069.6094,583.375 1070.25,583.5313 Q1070.9063,583.6875 1071.4688,583.9844 L1071.4688,586.7031 Q1070.8438,586.125 1070.25,585.8594 Q1069.6563,585.5781 1069.0313,585.5781 Q1067.6875,585.5781 1067,586.6563 Q1066.3125,587.7188 1066.3125,589.8125 Q1066.3125,591.9063 1067,592.9844 Q1067.6875,594.0469 1069.0313,594.0469 Q1069.6563,594.0469 1070.25,593.7813 Q1070.8438,593.5 1071.4688,592.9219 L1071.4688,595.6406 Z "/><text fill="#000000" font-family="sans-serif" font-size="12" lengthAdjust="spacingAndGlyphs" textLength="121" x="1082.5" y="594.1543">HeadingHtmlParser</text><line style="stroke: #A80036; stroke-width: 1.5;" x1="1054.5" x2="1205.5" y1="606" y2="606"/><line style="stroke: #A80036; stroke-width: 1.5;" x1="1054.5" x2="1205.5" y1="614" y2="614"/><!--class ImageHtmlParser--><rect fill="#FEFECE" filter="url(#f1i9682ioayaq5)" height="48" id="ImageHtmlParser" style="stroke: #A80036; stroke-width: 1.5;" width="139" x="1241.5" y="574"/><ellipse cx="1256.5" cy="590" fill="#ADD1B2" rx="11" ry="11" style="stroke: #A80036; stroke-width: 1.0;"/><path d="M1259.4688,595.6406 Q1258.8906,595.9375 1258.25,596.0781 Q1257.6094,596.2344 1256.9063,596.2344 Q1254.4063,596.2344 1253.0781,594.5938 Q1251.7656,592.9375 1251.7656,589.8125 Q1251.7656,586.6875 1253.0781,585.0313 Q1254.4063,583.375 1256.9063,583.375 Q1257.6094,583.375 1258.25,583.5313 Q1258.9063,583.6875 1259.4688,583.9844 L1259.4688,586.7031 Q1258.8438,586.125 1258.25,585.8594 Q1257.6563,585.5781 1257.0313,585.5781 Q1255.6875,585.5781 1255,586.6563 Q1254.3125,587.7188 1254.3125,589.8125 Q1254.3125,591.9063 1255,592.9844 Q1255.6875,594.0469 1257.0313,594.0469 Q1257.6563,594.0469 1258.25,593.7813 Q1258.8438,593.5 1259.4688,592.9219 L1259.4688,595.6406 Z "/><text fill="#000000" font-family="sans-serif" font-size="12" lengthAdjust="spacingAndGlyphs" textLength="107" x="1270.5" y="594.1543">ImageHtmlParser</text><line style="stroke: #A80036; stroke-width: 1.5;" x1="1242.5" x2="1379.5" y1="606" y2="606"/><line style="stroke: #A80036; stroke-width: 1.5;" x1="1242.5" x2="1379.5" y1="614" y2="614"/><!--class UnsortedListHtmlParser--><rect fill="#FEFECE" filter="url(#f1i9682ioayaq5)" height="48" id="UnsortedListHtmlParser" style="stroke: #A80036; stroke-width: 1.5;" width="180" x="1416" y="574"/><ellipse cx="1431" cy="590" fill="#ADD1B2" rx="11" ry="11" style="stroke: #A80036; stroke-width: 1.0;"/><path d="M1433.9688,595.6406 Q1433.3906,595.9375 1432.75,596.0781 Q1432.1094,596.2344 1431.4063,596.2344 Q1428.9063,596.2344 1427.5781,594.5938 Q1426.2656,592.9375 1426.2656,589.8125 Q1426.2656,586.6875 1427.5781,585.0313 Q1428.9063,583.375 1431.4063,583.375 Q1432.1094,583.375 1432.75,583.5313 Q1433.4063,583.6875 1433.9688,583.9844 L1433.9688,586.7031 Q1433.3438,586.125 1432.75,585.8594 Q1432.1563,585.5781 1431.5313,585.5781 Q1430.1875,585.5781 1429.5,586.6563 Q1428.8125,587.7188 1428.8125,589.8125 Q1428.8125,591.9063 1429.5,592.9844 Q1430.1875,594.0469 1431.5313,594.0469 Q1432.1563,594.0469 1432.75,593.7813 Q1433.3438,593.5 1433.9688,592.9219 L1433.9688,595.6406 Z "/><text fill="#000000" font-family="sans-serif" font-size="12" lengthAdjust="spacingAndGlyphs" textLength="148" x="1445" y="594.1543">UnsortedListHtmlParser</text><line style="stroke: #A80036; stroke-width: 1.5;" x1="1417" x2="1595" y1="606" y2="606"/><line style="stroke: #A80036; stroke-width: 1.5;" x1="1417" x2="1595" y1="614" y2="614"/><!--class BPMNAnchorParser--><rect fill="#FEFECE" filter="url(#f1i9682ioayaq5)" height="48" id="BPMNAnchorParser" style="stroke: #A80036; stroke-width: 1.5;" width="152" x="6" y="816"/><ellipse cx="21" cy="832" fill="#ADD1B2" rx="11" ry="11" style="stroke: #A80036; stroke-width: 1.0;"/><path d="M23.9688,837.6406 Q23.3906,837.9375 22.75,838.0781 Q22.1094,838.2344 21.4063,838.2344 Q18.9063,838.2344 17.5781,836.5938 Q16.2656,834.9375 16.2656,831.8125 Q16.2656,828.6875 17.5781,827.0313 Q18.9063,825.375 21.4063,825.375 Q22.1094,825.375 22.75,825.5313 Q23.4063,825.6875 23.9688,825.9844 L23.9688,828.7031 Q23.3438,828.125 22.75,827.8594 Q22.1563,827.5781 21.5313,827.5781 Q20.1875,827.5781 19.5,828.6563 Q18.8125,829.7188 18.8125,831.8125 Q18.8125,833.9063 19.5,834.9844 Q20.1875,836.0469 21.5313,836.0469 Q22.1563,836.0469 22.75,835.7813 Q23.3438,835.5 23.9688,834.9219 L23.9688,837.6406 Z "/><text fill="#000000" font-family="sans-serif" font-size="12" lengthAdjust="spacingAndGlyphs" textLength="120" x="35" y="836.1543">BPMNAnchorParser</text><line style="stroke: #A80036; stroke-width: 1.5;" x1="7" x2="157" y1="848" y2="848"/><line style="stroke: #A80036; stroke-width: 1.5;" x1="7" x2="157" y1="856" y2="856"/><!--class CodeAnchorParser--><rect fill="#FEFECE" filter="url(#f1i9682ioayaq5)" height="48" id="CodeAnchorParser" style="stroke: #A80036; stroke-width: 1.5;" width="149" x="193.5" y="816"/><ellipse cx="208.5" cy="832" fill="#ADD1B2" rx="11" ry="11" style="stroke: #A80036; stroke-width: 1.0;"/><path d="M211.4688,837.6406 Q210.8906,837.9375 210.25,838.0781 Q209.6094,838.2344 208.9063,838.2344 Q206.4063,838.2344 205.0781,836.5938 Q203.7656,834.9375 203.7656,831.8125 Q203.7656,828.6875 205.0781,827.0313 Q206.4063,825.375 208.9063,825.375 Q209.6094,825.375 210.25,825.5313 Q210.9063,825.6875 211.4688,825.9844 L211.4688,828.7031 Q210.8438,828.125 210.25,827.8594 Q209.6563,827.5781 209.0313,827.5781 Q207.6875,827.5781 207,828.6563 Q206.3125,829.7188 206.3125,831.8125 Q206.3125,833.9063 207,834.9844 Q207.6875,836.0469 209.0313,836.0469 Q209.6563,836.0469 210.25,835.7813 Q210.8438,835.5 211.4688,834.9219 L211.4688,837.6406 Z "/><text fill="#000000" font-family="sans-serif" font-size="12" lengthAdjust="spacingAndGlyphs" textLength="117" x="222.5" y="836.1543">CodeAnchorParser</text><line style="stroke: #A80036; stroke-width: 1.5;" x1="194.5" x2="341.5" y1="848" y2="848"/><line style="stroke: #A80036; stroke-width: 1.5;" x1="194.5" x2="341.5" y1="856" y2="856"/><!--class IFrameAnchorParser--><rect fill="#FEFECE" filter="url(#f1i9682ioayaq5)" height="48" id="IFrameAnchorParser" style="stroke: #A80036; stroke-width: 1.5;" width="159" x="377.5" y="816"/><ellipse cx="392.5" cy="832" fill="#ADD1B2" rx="11" ry="11" style="stroke: #A80036; stroke-width: 1.0;"/><path d="M395.4688,837.6406 Q394.8906,837.9375 394.25,838.0781 Q393.6094,838.2344 392.9063,838.2344 Q390.4063,838.2344 389.0781,836.5938 Q387.7656,834.9375 387.7656,831.8125 Q387.7656,828.6875 389.0781,827.0313 Q390.4063,825.375 392.9063,825.375 Q393.6094,825.375 394.25,825.5313 Q394.9063,825.6875 395.4688,825.9844 L395.4688,828.7031 Q394.8438,828.125 394.25,827.8594 Q393.6563,827.5781 393.0313,827.5781 Q391.6875,827.5781 391,828.6563 Q390.3125,829.7188 390.3125,831.8125 Q390.3125,833.9063 391,834.9844 Q391.6875,836.0469 393.0313,836.0469 Q393.6563,836.0469 394.25,835.7813 Q394.8438,835.5 395.4688,834.9219 L395.4688,837.6406 Z "/><text fill="#000000" font-family="sans-serif" font-size="12" lengthAdjust="spacingAndGlyphs" textLength="127" x="406.5" y="836.1543">IFrameAnchorParser</text><line style="stroke: #A80036; stroke-width: 1.5;" x1="378.5" x2="535.5" y1="848" y2="848"/><line style="stroke: #A80036; stroke-width: 1.5;" x1="378.5" x2="535.5" y1="856" y2="856"/><!--class UrlRewriteAnchorParser--><rect fill="#FEFECE" filter="url(#f1i9682ioayaq5)" height="48" id="UrlRewriteAnchorParser" style="stroke: #A80036; stroke-width: 1.5;" width="180" x="572" y="816"/><ellipse cx="587" cy="832" fill="#ADD1B2" rx="11" ry="11" style="stroke: #A80036; stroke-width: 1.0;"/><path d="M589.9688,837.6406 Q589.3906,837.9375 588.75,838.0781 Q588.1094,838.2344 587.4063,838.2344 Q584.9063,838.2344 583.5781,836.5938 Q582.2656,834.9375 582.2656,831.8125 Q582.2656,828.6875 583.5781,827.0313 Q584.9063,825.375 587.4063,825.375 Q588.1094,825.375 588.75,825.5313 Q589.4063,825.6875 589.9688,825.9844 L589.9688,828.7031 Q589.3438,828.125 588.75,827.8594 Q588.1563,827.5781 587.5313,827.5781 Q586.1875,827.5781 585.5,828.6563 Q584.8125,829.7188 584.8125,831.8125 Q584.8125,833.9063 585.5,834.9844 Q586.1875,836.0469 587.5313,836.0469 Q588.1563,836.0469 588.75,835.7813 Q589.3438,835.5 589.9688,834.9219 L589.9688,837.6406 Z "/><text fill="#000000" font-family="sans-serif" font-size="12" lengthAdjust="spacingAndGlyphs" textLength="148" x="601" y="836.1543">UrlRewriteAnchorParser</text><line style="stroke: #A80036; stroke-width: 1.5;" x1="573" x2="751" y1="848" y2="848"/><line style="stroke: #A80036; stroke-width: 1.5;" x1="573" x2="751" y1="856" y2="856"/><!--link CompositeFileParser to FileParser--><path d="M924.01,69.07 C922.83,84.1 923.02,101.35 924.59,115.65 " fill="none" id="CompositeFileParser-FileParser" style="stroke: #A80036; stroke-width: 1.0;"/><polygon fill="#A80036" points="925.48,56.04,920.8325,61.5537,924.1346,67.9643,928.7821,62.4506,925.48,56.04" style="stroke: #A80036; stroke-width: 1.0;"/><text fill="#000000" font-family="sans-serif" font-size="13" lengthAdjust="spacingAndGlyphs" textLength="63" x="852.7398" y="104.841">has many</text><!--link CompositeFileParser to FileParser--><path d="M947.14,56.04 C949,67.48 949.76,81.77 949.42,95.56 " fill="none" id="CompositeFileParser-FileParser-1" style="stroke: #A80036; stroke-width: 1.0; stroke-dasharray: 7.0,7.0;"/><polygon fill="none" points="956.4,96.16,948.08,115.65,942.43,95.23,956.4,96.16" style="stroke: #A80036; stroke-width: 1.0;"/><!--link FileParser to AsyncapiFileParser--><path d="M824.41,159.34 C695.51,173.86 477.39,201.05 292,237 C286.34,238.1 280.51,239.32 274.66,240.62 " fill="none" id="FileParser-AsyncapiFileParser" style="stroke: #A80036; stroke-width: 1.0; stroke-dasharray: 7.0,7.0;"/><polygon fill="none" points="823.66,152.38,844.31,157.12,825.21,166.29,823.66,152.38" style="stroke: #A80036; stroke-width: 1.0;"/><!--link FileParser to DashboardFileParser--><path d="M824.65,168.88 C734.31,186.45 603.74,212.38 490,237 C484.31,238.23 478.44,239.53 472.53,240.85 " fill="none" id="FileParser-DashboardFileParser" style="stroke: #A80036; stroke-width: 1.0; stroke-dasharray: 7.0,7.0;"/><polygon fill="none" points="823.47,161.97,844.43,165.03,826.14,175.72,823.47,161.97" style="stroke: #A80036; stroke-width: 1.0;"/><!--link FileParser to DrawIOFileParser--><path d="M825.13,182.15 C766.18,200.57 695.56,222.64 644.58,238.57 " fill="none" id="FileParser-DrawIOFileParser" style="stroke: #A80036; stroke-width: 1.0; stroke-dasharray: 7.0,7.0;"/><polygon fill="none" points="823.05,175.46,844.23,176.18,827.22,188.83,823.05,175.46" style="stroke: #A80036; stroke-width: 1.0;"/><!--link FileParser to FeatureFileParser--><path d="M870.13,187.56 C842.95,204.09 812.42,222.65 789.07,236.85 " fill="none" id="FileParser-FeatureFileParser" style="stroke: #A80036; stroke-width: 1.0; stroke-dasharray: 7.0,7.0;"/><polygon fill="none" points="866.67,181.47,887.39,177.06,873.94,193.43,866.67,181.47" style="stroke: #A80036; stroke-width: 1.0;"/><!--link FileParser to MarkdownFileParser--><path d="M936,197.11 C936,210.88 936,225.18 936,236.67 " fill="none" id="FileParser-MarkdownFileParser" style="stroke: #A80036; stroke-width: 1.0; stroke-dasharray: 7.0,7.0;"/><polygon fill="none" points="929,197.06,936,177.06,943,197.06,929,197.06" style="stroke: #A80036; stroke-width: 1.0;"/><!--link FileParser to MarkdownMessageFileParser--><path d="M1012.03,186.38 C1044.92,203.2 1082.3,222.31 1110.73,236.85 " fill="none" id="FileParser-MarkdownMessageFileParser" style="stroke: #A80036; stroke-width: 1.0; stroke-dasharray: 7.0,7.0;"/><polygon fill="none" points="1008.42,192.4,993.8,177.06,1014.8,179.93,1008.42,192.4" style="stroke: #A80036; stroke-width: 1.0;"/><!--link FileParser to OpenapiFileParser--><path d="M1047.17,176.25 C1125.88,196.61 1229.23,223.34 1297.77,241.06 " fill="none" id="FileParser-OpenapiFileParser" style="stroke: #A80036; stroke-width: 1.0; stroke-dasharray: 7.0,7.0;"/><polygon fill="none" points="1045.33,183.01,1027.72,171.22,1048.84,169.45,1045.33,183.01" style="stroke: #A80036; stroke-width: 1.0;"/><!--link FileParser to UmlFileParser--><path d="M1047.63,162.51 C1154.45,177.83 1319.74,203.99 1461,237 C1466.98,238.4 1473.18,239.99 1479.34,241.68 " fill="none" id="FileParser-UmlFileParser" style="stroke: #A80036; stroke-width: 1.0; stroke-dasharray: 7.0,7.0;"/><polygon fill="none" points="1046.54,169.43,1027.72,159.69,1048.51,155.57,1046.54,169.43" style="stroke: #A80036; stroke-width: 1.0;"/><!--link FileParser to UserTaskFileParser--><path d="M1047.49,158.46 C1182.33,172.58 1415.88,199.8 1614,237 C1619.86,238.1 1625.91,239.34 1631.97,240.65 " fill="none" id="FileParser-UserTaskFileParser" style="stroke: #A80036; stroke-width: 1.0; stroke-dasharray: 7.0,7.0;"/><polygon fill="none" points="1046.69,165.41,1027.52,156.39,1048.14,151.49,1046.69,165.41" style="stroke: #A80036; stroke-width: 1.0;"/><!--link MarkdownFileParser to MarkdownRenderer--><path d="M936,285 C936,301 936,322.45 936,339.53 " fill="none" id="MarkdownFileParser-MarkdownRenderer" style="stroke: #A80036; stroke-width: 1.0;"/><polygon fill="#A80036" points="936,344.68,940,335.68,936,339.68,932,335.68,936,344.68" style="stroke: #A80036; stroke-width: 1.0;"/><text fill="#000000" font-family="sans-serif" font-size="13" lengthAdjust="spacingAndGlyphs" textLength="30" x="902.3438" y="334.007">uses</text><!--link MarkdownRenderer to HtmlParser--><path d="M936,406.07 C936,421.1 936,438.35 936,452.65 " fill="none" id="MarkdownRenderer-HtmlParser" style="stroke: #A80036; stroke-width: 1.0;"/><polygon fill="#A80036" points="936,393.04,932,399.04,936,405.04,940,399.04,936,393.04" style="stroke: #A80036; stroke-width: 1.0;"/><text fill="#000000" font-family="sans-serif" font-size="13" lengthAdjust="spacingAndGlyphs" textLength="63" x="866.5031" y="441.841">has many</text><!--link HtmlParser to AnchorHtmlParser--><path d="M803.2,506.58 C705.67,523.39 570.16,548.01 452,574 C446.33,575.25 440.47,576.6 434.6,578 " fill="none" id="HtmlParser-AnchorHtmlParser" style="stroke: #A80036; stroke-width: 1.0; stroke-dasharray: 7.0,7.0;"/><polygon fill="none" points="802.2,499.64,823.1,503.16,804.57,513.44,802.2,499.64" style="stroke: #A80036; stroke-width: 1.0;"/><!--link HtmlParser to CleanUpHtmlParser--><path d="M814.08,519.67 C751.44,537.74 677.03,559.2 622.52,574.93 " fill="none" id="HtmlParser-CleanUpHtmlParser" style="stroke: #A80036; stroke-width: 1.0; stroke-dasharray: 7.0,7.0;"/><polygon fill="none" points="812.38,512.88,833.53,514.06,816.26,526.33,812.38,512.88" style="stroke: #A80036; stroke-width: 1.0;"/><!--link HtmlParser to DefinitionHtmlParser--><path d="M866.33,524.09 C837.03,540.73 803.97,559.52 778.74,573.85 " fill="none" id="HtmlParser-DefinitionHtmlParser" style="stroke: #A80036; stroke-width: 1.0; stroke-dasharray: 7.0,7.0;"/><polygon fill="none" points="863.13,517.85,883.98,514.06,870.05,530.02,863.13,517.85" style="stroke: #A80036; stroke-width: 1.0;"/><!--link HtmlParser to FullscreenHtmlParser--><path d="M936,534.11 C936,547.88 936,562.18 936,573.67 " fill="none" id="HtmlParser-FullscreenHtmlParser" style="stroke: #A80036; stroke-width: 1.0; stroke-dasharray: 7.0,7.0;"/><polygon fill="none" points="929,534.06,936,514.06,943,534.06,929,534.06" style="stroke: #A80036; stroke-width: 1.0;"/><!--link HtmlParser to HeadingHtmlParser--><path d="M1004.67,524.32 C1033.27,540.91 1065.48,559.58 1090.08,573.85 " fill="none" id="HtmlParser-HeadingHtmlParser" style="stroke: #A80036; stroke-width: 1.0; stroke-dasharray: 7.0,7.0;"/><polygon fill="none" points="1000.76,530.15,986.97,514.06,1007.78,518.04,1000.76,530.15" style="stroke: #A80036; stroke-width: 1.0;"/><!--link HtmlParser to ImageHtmlParser--><path d="M1054.06,519.92 C1115.6,538.38 1188.76,560.33 1241.24,576.07 " fill="none" id="HtmlParser-ImageHtmlParser" style="stroke: #A80036; stroke-width: 1.0; stroke-dasharray: 7.0,7.0;"/><polygon fill="none" points="1051.67,526.51,1034.53,514.06,1055.69,513.1,1051.67,526.51" style="stroke: #A80036; stroke-width: 1.0;"/><!--link HtmlParser to UnsortedListHtmlParser--><path d="M1068.4,509.48 C1160.84,527.08 1287.05,551.44 1398,574 C1403.82,575.18 1409.82,576.42 1415.86,577.67 " fill="none" id="HtmlParser-UnsortedListHtmlParser" style="stroke: #A80036; stroke-width: 1.0; stroke-dasharray: 7.0,7.0;"/><polygon fill="none" points="1066.95,516.33,1048.61,505.71,1069.57,502.57,1066.95,516.33" style="stroke: #A80036; stroke-width: 1.0;"/><!--link AnchorHtmlParser to AnchorParser--><path d="M362,635.48 C362,650.16 362,667.05 362,681.71 " fill="none" id="AnchorHtmlParser-AnchorParser" style="stroke: #A80036; stroke-width: 1.0;"/><polygon fill="#A80036" points="362,622.23,358,628.23,362,634.23,366,628.23,362,622.23" style="stroke: #A80036; stroke-width: 1.0;"/><text fill="#000000" font-family="sans-serif" font-size="13" lengthAdjust="spacingAndGlyphs" textLength="63" x="293.3891" y="670.8453">has many</text><!--link AnchorParser to BPMNAnchorParser--><path d="M258.58,763.95 C217.16,781.56 171.14,801.12 136.47,815.85 " fill="none" id="AnchorParser-BPMNAnchorParser" style="stroke: #A80036; stroke-width: 1.0; stroke-dasharray: 7.0,7.0;"/><polygon fill="none" points="256.09,757.41,277.23,756.03,261.56,770.29,256.09,757.41" style="stroke: #A80036; stroke-width: 1.0;"/><!--link AnchorParser to CodeAnchorParser--><path d="M320.8,772.16 C308.73,787.44 296.14,803.37 286.29,815.85 " fill="none" id="AnchorParser-CodeAnchorParser" style="stroke: #A80036; stroke-width: 1.0; stroke-dasharray: 7.0,7.0;"/><polygon fill="none" points="315.65,767.38,333.54,756.03,326.64,776.06,315.65,767.38" style="stroke: #A80036; stroke-width: 1.0;"/><!--link AnchorParser to IFrameAnchorParser--><path d="M403.25,771.67 C415.56,787.1 428.45,803.24 438.52,815.85 " fill="none" id="AnchorParser-IFrameAnchorParser" style="stroke: #A80036; stroke-width: 1.0; stroke-dasharray: 7.0,7.0;"/><polygon fill="none" points="397.77,776.02,390.76,756.03,408.71,767.29,397.77,776.02" style="stroke: #A80036; stroke-width: 1.0;"/><!--link AnchorParser to UrlRewriteAnchorParser--><path d="M471.61,763.48 C516.3,781.21 566.16,800.98 603.64,815.85 " fill="none" id="AnchorParser-UrlRewriteAnchorParser" style="stroke: #A80036; stroke-width: 1.0; stroke-dasharray: 7.0,7.0;"/><polygon fill="none" points="468.83,769.91,452.82,756.03,474,756.89,468.83,769.91" style="stroke: #A80036; stroke-width: 1.0;"/><!--
@startuml

interface FileParser {
    async parse(file: string) : void
}

interface HtmlParser {
    async parse(element: Element) : void
}
interface AnchorParser {
    canParse(anchor: HTMLAnchorElement) : bool
    async parse(file: string, anchor: HTMLAnchorElement) : string;
}

CompositeFileParser *- - "has many" FileParser
CompositeFileParser ..|> FileParser
FileParser <|.. AsyncapiFileParser
FileParser <|.. DashboardFileParser
FileParser <|.. DrawIOFileParser
FileParser <|.. FeatureFileParser
FileParser <|.. MarkdownFileParser
FileParser <|.. MarkdownMessageFileParser
FileParser <|.. OpenapiFileParser
FileParser <|.. UmlFileParser
FileParser <|.. UserTaskFileParser

MarkdownFileParser - -> "uses" MarkdownRenderer

MarkdownRenderer *- - "has many" HtmlParser

HtmlParser <|.. AnchorHtmlParser
HtmlParser <|.. CleanUpHtmlParser
HtmlParser <|.. DefinitionHtmlParser
HtmlParser <|.. FullscreenHtmlParser
HtmlParser <|.. HeadingHtmlParser
HtmlParser <|.. ImageHtmlParser
HtmlParser <|.. UnsortedListHtmlParser

AnchorHtmlParser *- - "has many" AnchorParser
AnchorParser <|.. BPMNAnchorParser
AnchorParser <|.. CodeAnchorParser
AnchorParser <|.. IFrameAnchorParser
AnchorParser <|.. UrlRewriteAnchorParser

@enduml

PlantUML version 1.2019.06(Fri May 24 17:10:25 UTC 2019)
(GPL source distribution)
Java Runtime: OpenJDK Runtime Environment
JVM: OpenJDK 64-Bit Server VM
Java Version: 11.0.14.1+1
Operating System: Linux
OS Version: 5.13.0-1022-azure
Default Encoding: UTF-8
Language: en
Country: null
--></g></svg>