<?xml version="1.0" encoding="UTF-8" standalone="no"?><svg xmlns="http://www.w3.org/2000/svg" xmlns:xlink="http://www.w3.org/1999/xlink" contentScriptType="application/ecmascript" contentStyleType="text/css" height="875px" preserveAspectRatio="none" style="width:1937px;height:875px;" version="1.1" viewBox="0 0 1937 875" width="1937px" zoomAndPan="magnify"><defs><filter height="300%" id="f170idswyj1bwc" width="300%" x="-1" y="-1"><feGaussianBlur result="blurOut" stdDeviation="2.0"/><feColorMatrix in="blurOut" result="blurOut2" type="matrix" values="0 0 0 0 0 0 0 0 0 0 0 0 0 0 0 0 0 0 .4 0"/><feOffset dx="4.0" dy="4.0" in="blurOut2" result="blurOut3"/><feBlend in="SourceGraphic" in2="blurOut3" mode="normal"/></filter></defs><g><!--class MarkdownRenderer--><rect fill="#FEFECE" filter="url(#f170idswyj1bwc)" height="48" id="MarkdownRenderer" style="stroke: #A80036; stroke-width: 1.5;" width="153" x="1286.5" y="345"/><ellipse cx="1301.5" cy="361" fill="#ADD1B2" rx="11" ry="11" style="stroke: #A80036; stroke-width: 1.0;"/><path d="M1304.4688,366.6406 Q1303.8906,366.9375 1303.25,367.0781 Q1302.6094,367.2344 1301.9063,367.2344 Q1299.4063,367.2344 1298.0781,365.5938 Q1296.7656,363.9375 1296.7656,360.8125 Q1296.7656,357.6875 1298.0781,356.0313 Q1299.4063,354.375 1301.9063,354.375 Q1302.6094,354.375 1303.25,354.5313 Q1303.9063,354.6875 1304.4688,354.9844 L1304.4688,357.7031 Q1303.8438,357.125 1303.25,356.8594 Q1302.6563,356.5781 1302.0313,356.5781 Q1300.6875,356.5781 1300,357.6563 Q1299.3125,358.7188 1299.3125,360.8125 Q1299.3125,362.9063 1300,363.9844 Q1300.6875,365.0469 1302.0313,365.0469 Q1302.6563,365.0469 1303.25,364.7813 Q1303.8438,364.5 1304.4688,363.9219 L1304.4688,366.6406 Z "/><text fill="#000000" font-family="sans-serif" font-size="12" lengthAdjust="spacingAndGlyphs" textLength="121" x="1315.5" y="365.1543">MarkdownRenderer</text><line style="stroke: #A80036; stroke-width: 1.5;" x1="1287.5" x2="1438.5" y1="377" y2="377"/><line style="stroke: #A80036; stroke-width: 1.5;" x1="1287.5" x2="1438.5" y1="385" y2="385"/><!--class FileParser--><rect fill="#FEFECE" filter="url(#f170idswyj1bwc)" height="60.8047" id="FileParser" style="stroke: #A80036; stroke-width: 1.5;" width="183" x="1271.5" y="116"/><ellipse cx="1328.75" cy="132" fill="#B4A7E5" rx="11" ry="11" style="stroke: #A80036; stroke-width: 1.0;"/><path d="M1324.6719,127.7656 L1324.6719,125.6094 L1332.0625,125.6094 L1332.0625,127.7656 L1329.5938,127.7656 L1329.5938,135.8438 L1332.0625,135.8438 L1332.0625,138 L1324.6719,138 L1324.6719,135.8438 L1327.1406,135.8438 L1327.1406,127.7656 L1324.6719,127.7656 Z "/><text fill="#000000" font-family="sans-serif" font-size="12" font-style="italic" lengthAdjust="spacingAndGlyphs" textLength="60" x="1349.25" y="136.1543">FileParser</text><line style="stroke: #A80036; stroke-width: 1.5;" x1="1272.5" x2="1453.5" y1="148" y2="148"/><line style="stroke: #A80036; stroke-width: 1.5;" x1="1272.5" x2="1453.5" y1="156" y2="156"/><text fill="#000000" font-family="sans-serif" font-size="11" lengthAdjust="spacingAndGlyphs" textLength="171" x="1277.5" y="170.2104">async parse(file: string) : void</text><!--class CompositeFileParser--><rect fill="#FEFECE" filter="url(#f170idswyj1bwc)" height="48" id="CompositeFileParser" style="stroke: #A80036; stroke-width: 1.5;" width="160" x="1283" y="8"/><ellipse cx="1298" cy="24" fill="#ADD1B2" rx="11" ry="11" style="stroke: #A80036; stroke-width: 1.0;"/><path d="M1300.9688,29.6406 Q1300.3906,29.9375 1299.75,30.0781 Q1299.1094,30.2344 1298.4063,30.2344 Q1295.9063,30.2344 1294.5781,28.5938 Q1293.2656,26.9375 1293.2656,23.8125 Q1293.2656,20.6875 1294.5781,19.0313 Q1295.9063,17.375 1298.4063,17.375 Q1299.1094,17.375 1299.75,17.5313 Q1300.4063,17.6875 1300.9688,17.9844 L1300.9688,20.7031 Q1300.3438,20.125 1299.75,19.8594 Q1299.1563,19.5781 1298.5313,19.5781 Q1297.1875,19.5781 1296.5,20.6563 Q1295.8125,21.7188 1295.8125,23.8125 Q1295.8125,25.9063 1296.5,26.9844 Q1297.1875,28.0469 1298.5313,28.0469 Q1299.1563,28.0469 1299.75,27.7813 Q1300.3438,27.5 1300.9688,26.9219 L1300.9688,29.6406 Z "/><text fill="#000000" font-family="sans-serif" font-size="12" lengthAdjust="spacingAndGlyphs" textLength="128" x="1312" y="28.1543">CompositeFileParser</text><line style="stroke: #A80036; stroke-width: 1.5;" x1="1284" x2="1442" y1="40" y2="40"/><line style="stroke: #A80036; stroke-width: 1.5;" x1="1284" x2="1442" y1="48" y2="48"/><!--class MarkdownFileParser--><rect fill="#FEFECE" filter="url(#f170idswyj1bwc)" height="48" id="MarkdownFileParser" style="stroke: #A80036; stroke-width: 1.5;" width="157" x="1284.5" y="237"/><ellipse cx="1299.5" cy="253" fill="#ADD1B2" rx="11" ry="11" style="stroke: #A80036; stroke-width: 1.0;"/><path d="M1302.4688,258.6406 Q1301.8906,258.9375 1301.25,259.0781 Q1300.6094,259.2344 1299.9063,259.2344 Q1297.4063,259.2344 1296.0781,257.5938 Q1294.7656,255.9375 1294.7656,252.8125 Q1294.7656,249.6875 1296.0781,248.0313 Q1297.4063,246.375 1299.9063,246.375 Q1300.6094,246.375 1301.25,246.5313 Q1301.9063,246.6875 1302.4688,246.9844 L1302.4688,249.7031 Q1301.8438,249.125 1301.25,248.8594 Q1300.6563,248.5781 1300.0313,248.5781 Q1298.6875,248.5781 1298,249.6563 Q1297.3125,250.7188 1297.3125,252.8125 Q1297.3125,254.9063 1298,255.9844 Q1298.6875,257.0469 1300.0313,257.0469 Q1300.6563,257.0469 1301.25,256.7813 Q1301.8438,256.5 1302.4688,255.9219 L1302.4688,258.6406 Z "/><text fill="#000000" font-family="sans-serif" font-size="12" lengthAdjust="spacingAndGlyphs" textLength="125" x="1313.5" y="257.1543">MarkdownFileParser</text><line style="stroke: #A80036; stroke-width: 1.5;" x1="1285.5" x2="1440.5" y1="269" y2="269"/><line style="stroke: #A80036; stroke-width: 1.5;" x1="1285.5" x2="1440.5" y1="277" y2="277"/><!--class HtmlParser--><rect fill="#FEFECE" filter="url(#f170idswyj1bwc)" height="60.8047" id="HtmlParser" style="stroke: #A80036; stroke-width: 1.5;" width="225" x="1250.5" y="453"/><ellipse cx="1325.25" cy="469" fill="#B4A7E5" rx="11" ry="11" style="stroke: #A80036; stroke-width: 1.0;"/><path d="M1321.1719,464.7656 L1321.1719,462.6094 L1328.5625,462.6094 L1328.5625,464.7656 L1326.0938,464.7656 L1326.0938,472.8438 L1328.5625,472.8438 L1328.5625,475 L1321.1719,475 L1321.1719,472.8438 L1323.6406,472.8438 L1323.6406,464.7656 L1321.1719,464.7656 Z "/><text fill="#000000" font-family="sans-serif" font-size="12" font-style="italic" lengthAdjust="spacingAndGlyphs" textLength="67" x="1345.75" y="473.1543">HtmlParser</text><line style="stroke: #A80036; stroke-width: 1.5;" x1="1251.5" x2="1474.5" y1="485" y2="485"/><line style="stroke: #A80036; stroke-width: 1.5;" x1="1251.5" x2="1474.5" y1="493" y2="493"/><text fill="#000000" font-family="sans-serif" font-size="11" lengthAdjust="spacingAndGlyphs" textLength="213" x="1256.5" y="507.2104">async parse(element: Element) : void</text><!--class AnchorHtmlParser--><rect fill="#FEFECE" filter="url(#f170idswyj1bwc)" height="48" id="AnchorHtmlParser" style="stroke: #A80036; stroke-width: 1.5;" width="145" x="815.5" y="574"/><ellipse cx="830.5" cy="590" fill="#ADD1B2" rx="11" ry="11" style="stroke: #A80036; stroke-width: 1.0;"/><path d="M833.4688,595.6406 Q832.8906,595.9375 832.25,596.0781 Q831.6094,596.2344 830.9063,596.2344 Q828.4063,596.2344 827.0781,594.5938 Q825.7656,592.9375 825.7656,589.8125 Q825.7656,586.6875 827.0781,585.0313 Q828.4063,583.375 830.9063,583.375 Q831.6094,583.375 832.25,583.5313 Q832.9063,583.6875 833.4688,583.9844 L833.4688,586.7031 Q832.8438,586.125 832.25,585.8594 Q831.6563,585.5781 831.0313,585.5781 Q829.6875,585.5781 829,586.6563 Q828.3125,587.7188 828.3125,589.8125 Q828.3125,591.9063 829,592.9844 Q829.6875,594.0469 831.0313,594.0469 Q831.6563,594.0469 832.25,593.7813 Q832.8438,593.5 833.4688,592.9219 L833.4688,595.6406 Z "/><text fill="#000000" font-family="sans-serif" font-size="12" lengthAdjust="spacingAndGlyphs" textLength="113" x="844.5" y="594.1543">AnchorHtmlParser</text><line style="stroke: #A80036; stroke-width: 1.5;" x1="816.5" x2="959.5" y1="606" y2="606"/><line style="stroke: #A80036; stroke-width: 1.5;" x1="816.5" x2="959.5" y1="614" y2="614"/><!--class CleanUpHtmlParser--><rect fill="#FEFECE" filter="url(#f170idswyj1bwc)" height="48" id="CleanUpHtmlParser" style="stroke: #A80036; stroke-width: 1.5;" width="153" x="995.5" y="574"/><ellipse cx="1010.5" cy="590" fill="#ADD1B2" rx="11" ry="11" style="stroke: #A80036; stroke-width: 1.0;"/><path d="M1013.4688,595.6406 Q1012.8906,595.9375 1012.25,596.0781 Q1011.6094,596.2344 1010.9063,596.2344 Q1008.4063,596.2344 1007.0781,594.5938 Q1005.7656,592.9375 1005.7656,589.8125 Q1005.7656,586.6875 1007.0781,585.0313 Q1008.4063,583.375 1010.9063,583.375 Q1011.6094,583.375 1012.25,583.5313 Q1012.9063,583.6875 1013.4688,583.9844 L1013.4688,586.7031 Q1012.8438,586.125 1012.25,585.8594 Q1011.6563,585.5781 1011.0313,585.5781 Q1009.6875,585.5781 1009,586.6563 Q1008.3125,587.7188 1008.3125,589.8125 Q1008.3125,591.9063 1009,592.9844 Q1009.6875,594.0469 1011.0313,594.0469 Q1011.6563,594.0469 1012.25,593.7813 Q1012.8438,593.5 1013.4688,592.9219 L1013.4688,595.6406 Z "/><text fill="#000000" font-family="sans-serif" font-size="12" lengthAdjust="spacingAndGlyphs" textLength="121" x="1024.5" y="594.1543">CleanUpHtmlParser</text><line style="stroke: #A80036; stroke-width: 1.5;" x1="996.5" x2="1147.5" y1="606" y2="606"/><line style="stroke: #A80036; stroke-width: 1.5;" x1="996.5" x2="1147.5" y1="614" y2="614"/><!--class FullscreenHtmlParser--><rect fill="#FEFECE" filter="url(#f170idswyj1bwc)" height="48" id="FullscreenHtmlParser" style="stroke: #A80036; stroke-width: 1.5;" width="165" x="1183.5" y="574"/><ellipse cx="1198.5" cy="590" fill="#ADD1B2" rx="11" ry="11" style="stroke: #A80036; stroke-width: 1.0;"/><path d="M1201.4688,595.6406 Q1200.8906,595.9375 1200.25,596.0781 Q1199.6094,596.2344 1198.9063,596.2344 Q1196.4063,596.2344 1195.0781,594.5938 Q1193.7656,592.9375 1193.7656,589.8125 Q1193.7656,586.6875 1195.0781,585.0313 Q1196.4063,583.375 1198.9063,583.375 Q1199.6094,583.375 1200.25,583.5313 Q1200.9063,583.6875 1201.4688,583.9844 L1201.4688,586.7031 Q1200.8438,586.125 1200.25,585.8594 Q1199.6563,585.5781 1199.0313,585.5781 Q1197.6875,585.5781 1197,586.6563 Q1196.3125,587.7188 1196.3125,589.8125 Q1196.3125,591.9063 1197,592.9844 Q1197.6875,594.0469 1199.0313,594.0469 Q1199.6563,594.0469 1200.25,593.7813 Q1200.8438,593.5 1201.4688,592.9219 L1201.4688,595.6406 Z "/><text fill="#000000" font-family="sans-serif" font-size="12" lengthAdjust="spacingAndGlyphs" textLength="133" x="1212.5" y="594.1543">FullscreenHtmlParser</text><line style="stroke: #A80036; stroke-width: 1.5;" x1="1184.5" x2="1347.5" y1="606" y2="606"/><line style="stroke: #A80036; stroke-width: 1.5;" x1="1184.5" x2="1347.5" y1="614" y2="614"/><!--class HeadingHtmlParser--><rect fill="#FEFECE" filter="url(#f170idswyj1bwc)" height="48" id="HeadingHtmlParser" style="stroke: #A80036; stroke-width: 1.5;" width="153" x="1383.5" y="574"/><ellipse cx="1398.5" cy="590" fill="#ADD1B2" rx="11" ry="11" style="stroke: #A80036; stroke-width: 1.0;"/><path d="M1401.4688,595.6406 Q1400.8906,595.9375 1400.25,596.0781 Q1399.6094,596.2344 1398.9063,596.2344 Q1396.4063,596.2344 1395.0781,594.5938 Q1393.7656,592.9375 1393.7656,589.8125 Q1393.7656,586.6875 1395.0781,585.0313 Q1396.4063,583.375 1398.9063,583.375 Q1399.6094,583.375 1400.25,583.5313 Q1400.9063,583.6875 1401.4688,583.9844 L1401.4688,586.7031 Q1400.8438,586.125 1400.25,585.8594 Q1399.6563,585.5781 1399.0313,585.5781 Q1397.6875,585.5781 1397,586.6563 Q1396.3125,587.7188 1396.3125,589.8125 Q1396.3125,591.9063 1397,592.9844 Q1397.6875,594.0469 1399.0313,594.0469 Q1399.6563,594.0469 1400.25,593.7813 Q1400.8438,593.5 1401.4688,592.9219 L1401.4688,595.6406 Z "/><text fill="#000000" font-family="sans-serif" font-size="12" lengthAdjust="spacingAndGlyphs" textLength="121" x="1412.5" y="594.1543">HeadingHtmlParser</text><line style="stroke: #A80036; stroke-width: 1.5;" x1="1384.5" x2="1535.5" y1="606" y2="606"/><line style="stroke: #A80036; stroke-width: 1.5;" x1="1384.5" x2="1535.5" y1="614" y2="614"/><!--class ImageHtmlParser--><rect fill="#FEFECE" filter="url(#f170idswyj1bwc)" height="48" id="ImageHtmlParser" style="stroke: #A80036; stroke-width: 1.5;" width="139" x="1571.5" y="574"/><ellipse cx="1586.5" cy="590" fill="#ADD1B2" rx="11" ry="11" style="stroke: #A80036; stroke-width: 1.0;"/><path d="M1589.4688,595.6406 Q1588.8906,595.9375 1588.25,596.0781 Q1587.6094,596.2344 1586.9063,596.2344 Q1584.4063,596.2344 1583.0781,594.5938 Q1581.7656,592.9375 1581.7656,589.8125 Q1581.7656,586.6875 1583.0781,585.0313 Q1584.4063,583.375 1586.9063,583.375 Q1587.6094,583.375 1588.25,583.5313 Q1588.9063,583.6875 1589.4688,583.9844 L1589.4688,586.7031 Q1588.8438,586.125 1588.25,585.8594 Q1587.6563,585.5781 1587.0313,585.5781 Q1585.6875,585.5781 1585,586.6563 Q1584.3125,587.7188 1584.3125,589.8125 Q1584.3125,591.9063 1585,592.9844 Q1585.6875,594.0469 1587.0313,594.0469 Q1587.6563,594.0469 1588.25,593.7813 Q1588.8438,593.5 1589.4688,592.9219 L1589.4688,595.6406 Z "/><text fill="#000000" font-family="sans-serif" font-size="12" lengthAdjust="spacingAndGlyphs" textLength="107" x="1600.5" y="594.1543">ImageHtmlParser</text><line style="stroke: #A80036; stroke-width: 1.5;" x1="1572.5" x2="1709.5" y1="606" y2="606"/><line style="stroke: #A80036; stroke-width: 1.5;" x1="1572.5" x2="1709.5" y1="614" y2="614"/><!--class UnsortedListHtmlParser--><rect fill="#FEFECE" filter="url(#f170idswyj1bwc)" height="48" id="UnsortedListHtmlParser" style="stroke: #A80036; stroke-width: 1.5;" width="180" x="1746" y="574"/><ellipse cx="1761" cy="590" fill="#ADD1B2" rx="11" ry="11" style="stroke: #A80036; stroke-width: 1.0;"/><path d="M1763.9688,595.6406 Q1763.3906,595.9375 1762.75,596.0781 Q1762.1094,596.2344 1761.4063,596.2344 Q1758.9063,596.2344 1757.5781,594.5938 Q1756.2656,592.9375 1756.2656,589.8125 Q1756.2656,586.6875 1757.5781,585.0313 Q1758.9063,583.375 1761.4063,583.375 Q1762.1094,583.375 1762.75,583.5313 Q1763.4063,583.6875 1763.9688,583.9844 L1763.9688,586.7031 Q1763.3438,586.125 1762.75,585.8594 Q1762.1563,585.5781 1761.5313,585.5781 Q1760.1875,585.5781 1759.5,586.6563 Q1758.8125,587.7188 1758.8125,589.8125 Q1758.8125,591.9063 1759.5,592.9844 Q1760.1875,594.0469 1761.5313,594.0469 Q1762.1563,594.0469 1762.75,593.7813 Q1763.3438,593.5 1763.9688,592.9219 L1763.9688,595.6406 Z "/><text fill="#000000" font-family="sans-serif" font-size="12" lengthAdjust="spacingAndGlyphs" textLength="148" x="1775" y="594.1543">UnsortedListHtmlParser</text><line style="stroke: #A80036; stroke-width: 1.5;" x1="1747" x2="1925" y1="606" y2="606"/><line style="stroke: #A80036; stroke-width: 1.5;" x1="1747" x2="1925" y1="614" y2="614"/><!--class AnchorParser--><rect fill="#FEFECE" filter="url(#f170idswyj1bwc)" height="73.6094" id="AnchorParser" style="stroke: #A80036; stroke-width: 1.5;" width="367" x="704.5" y="682"/><ellipse cx="842.25" cy="698" fill="#B4A7E5" rx="11" ry="11" style="stroke: #A80036; stroke-width: 1.0;"/><path d="M838.1719,693.7656 L838.1719,691.6094 L845.5625,691.6094 L845.5625,693.7656 L843.0938,693.7656 L843.0938,701.8438 L845.5625,701.8438 L845.5625,704 L838.1719,704 L838.1719,701.8438 L840.6406,701.8438 L840.6406,693.7656 L838.1719,693.7656 Z "/><text fill="#000000" font-family="sans-serif" font-size="12" font-style="italic" lengthAdjust="spacingAndGlyphs" textLength="83" x="862.75" y="702.1543">AnchorParser</text><line style="stroke: #A80036; stroke-width: 1.5;" x1="705.5" x2="1070.5" y1="714" y2="714"/><line style="stroke: #A80036; stroke-width: 1.5;" x1="705.5" x2="1070.5" y1="722" y2="722"/><text fill="#000000" font-family="sans-serif" font-size="11" lengthAdjust="spacingAndGlyphs" textLength="259" x="710.5" y="736.2104">canParse(anchor: HTMLAnchorElement) : bool</text><text fill="#000000" font-family="sans-serif" font-size="11" lengthAdjust="spacingAndGlyphs" textLength="355" x="710.5" y="749.0151">async parse(file: string, anchor: HTMLAnchorElement) : string;</text><!--class AsyncapiAnchorParser--><rect fill="#FEFECE" filter="url(#f170idswyj1bwc)" height="48" id="AsyncapiAnchorParser" style="stroke: #A80036; stroke-width: 1.5;" width="172" x="6" y="816"/><ellipse cx="21" cy="832" fill="#ADD1B2" rx="11" ry="11" style="stroke: #A80036; stroke-width: 1.0;"/><path d="M23.9688,837.6406 Q23.3906,837.9375 22.75,838.0781 Q22.1094,838.2344 21.4063,838.2344 Q18.9063,838.2344 17.5781,836.5938 Q16.2656,834.9375 16.2656,831.8125 Q16.2656,828.6875 17.5781,827.0313 Q18.9063,825.375 21.4063,825.375 Q22.1094,825.375 22.75,825.5313 Q23.4063,825.6875 23.9688,825.9844 L23.9688,828.7031 Q23.3438,828.125 22.75,827.8594 Q22.1563,827.5781 21.5313,827.5781 Q20.1875,827.5781 19.5,828.6563 Q18.8125,829.7188 18.8125,831.8125 Q18.8125,833.9063 19.5,834.9844 Q20.1875,836.0469 21.5313,836.0469 Q22.1563,836.0469 22.75,835.7813 Q23.3438,835.5 23.9688,834.9219 L23.9688,837.6406 Z "/><text fill="#000000" font-family="sans-serif" font-size="12" lengthAdjust="spacingAndGlyphs" textLength="140" x="35" y="836.1543">AsyncapiAnchorParser</text><line style="stroke: #A80036; stroke-width: 1.5;" x1="7" x2="177" y1="848" y2="848"/><line style="stroke: #A80036; stroke-width: 1.5;" x1="7" x2="177" y1="856" y2="856"/><!--class BPMNAnchorParser--><rect fill="#FEFECE" filter="url(#f170idswyj1bwc)" height="48" id="BPMNAnchorParser" style="stroke: #A80036; stroke-width: 1.5;" width="152" x="213" y="816"/><ellipse cx="228" cy="832" fill="#ADD1B2" rx="11" ry="11" style="stroke: #A80036; stroke-width: 1.0;"/><path d="M230.9688,837.6406 Q230.3906,837.9375 229.75,838.0781 Q229.1094,838.2344 228.4063,838.2344 Q225.9063,838.2344 224.5781,836.5938 Q223.2656,834.9375 223.2656,831.8125 Q223.2656,828.6875 224.5781,827.0313 Q225.9063,825.375 228.4063,825.375 Q229.1094,825.375 229.75,825.5313 Q230.4063,825.6875 230.9688,825.9844 L230.9688,828.7031 Q230.3438,828.125 229.75,827.8594 Q229.1563,827.5781 228.5313,827.5781 Q227.1875,827.5781 226.5,828.6563 Q225.8125,829.7188 225.8125,831.8125 Q225.8125,833.9063 226.5,834.9844 Q227.1875,836.0469 228.5313,836.0469 Q229.1563,836.0469 229.75,835.7813 Q230.3438,835.5 230.9688,834.9219 L230.9688,837.6406 Z "/><text fill="#000000" font-family="sans-serif" font-size="12" lengthAdjust="spacingAndGlyphs" textLength="120" x="242" y="836.1543">BPMNAnchorParser</text><line style="stroke: #A80036; stroke-width: 1.5;" x1="214" x2="364" y1="848" y2="848"/><line style="stroke: #A80036; stroke-width: 1.5;" x1="214" x2="364" y1="856" y2="856"/><!--class CodeAnchorParser--><rect fill="#FEFECE" filter="url(#f170idswyj1bwc)" height="48" id="CodeAnchorParser" style="stroke: #A80036; stroke-width: 1.5;" width="149" x="400.5" y="816"/><ellipse cx="415.5" cy="832" fill="#ADD1B2" rx="11" ry="11" style="stroke: #A80036; stroke-width: 1.0;"/><path d="M418.4688,837.6406 Q417.8906,837.9375 417.25,838.0781 Q416.6094,838.2344 415.9063,838.2344 Q413.4063,838.2344 412.0781,836.5938 Q410.7656,834.9375 410.7656,831.8125 Q410.7656,828.6875 412.0781,827.0313 Q413.4063,825.375 415.9063,825.375 Q416.6094,825.375 417.25,825.5313 Q417.9063,825.6875 418.4688,825.9844 L418.4688,828.7031 Q417.8438,828.125 417.25,827.8594 Q416.6563,827.5781 416.0313,827.5781 Q414.6875,827.5781 414,828.6563 Q413.3125,829.7188 413.3125,831.8125 Q413.3125,833.9063 414,834.9844 Q414.6875,836.0469 416.0313,836.0469 Q416.6563,836.0469 417.25,835.7813 Q417.8438,835.5 418.4688,834.9219 L418.4688,837.6406 Z "/><text fill="#000000" font-family="sans-serif" font-size="12" lengthAdjust="spacingAndGlyphs" textLength="117" x="429.5" y="836.1543">CodeAnchorParser</text><line style="stroke: #A80036; stroke-width: 1.5;" x1="401.5" x2="548.5" y1="848" y2="848"/><line style="stroke: #A80036; stroke-width: 1.5;" x1="401.5" x2="548.5" y1="856" y2="856"/><!--class DashboardAnchorParser--><rect fill="#FEFECE" filter="url(#f170idswyj1bwc)" height="48" id="DashboardAnchorParser" style="stroke: #A80036; stroke-width: 1.5;" width="186" x="584" y="816"/><ellipse cx="599" cy="832" fill="#ADD1B2" rx="11" ry="11" style="stroke: #A80036; stroke-width: 1.0;"/><path d="M601.9688,837.6406 Q601.3906,837.9375 600.75,838.0781 Q600.1094,838.2344 599.4063,838.2344 Q596.9063,838.2344 595.5781,836.5938 Q594.2656,834.9375 594.2656,831.8125 Q594.2656,828.6875 595.5781,827.0313 Q596.9063,825.375 599.4063,825.375 Q600.1094,825.375 600.75,825.5313 Q601.4063,825.6875 601.9688,825.9844 L601.9688,828.7031 Q601.3438,828.125 600.75,827.8594 Q600.1563,827.5781 599.5313,827.5781 Q598.1875,827.5781 597.5,828.6563 Q596.8125,829.7188 596.8125,831.8125 Q596.8125,833.9063 597.5,834.9844 Q598.1875,836.0469 599.5313,836.0469 Q600.1563,836.0469 600.75,835.7813 Q601.3438,835.5 601.9688,834.9219 L601.9688,837.6406 Z "/><text fill="#000000" font-family="sans-serif" font-size="12" lengthAdjust="spacingAndGlyphs" textLength="154" x="613" y="836.1543">DashboardAnchorParser</text><line style="stroke: #A80036; stroke-width: 1.5;" x1="585" x2="769" y1="848" y2="848"/><line style="stroke: #A80036; stroke-width: 1.5;" x1="585" x2="769" y1="856" y2="856"/><!--class FeatureAnchorParser--><rect fill="#FEFECE" filter="url(#f170idswyj1bwc)" height="48" id="FeatureAnchorParser" style="stroke: #A80036; stroke-width: 1.5;" width="166" x="805" y="816"/><ellipse cx="820" cy="832" fill="#ADD1B2" rx="11" ry="11" style="stroke: #A80036; stroke-width: 1.0;"/><path d="M822.9688,837.6406 Q822.3906,837.9375 821.75,838.0781 Q821.1094,838.2344 820.4063,838.2344 Q817.9063,838.2344 816.5781,836.5938 Q815.2656,834.9375 815.2656,831.8125 Q815.2656,828.6875 816.5781,827.0313 Q817.9063,825.375 820.4063,825.375 Q821.1094,825.375 821.75,825.5313 Q822.4063,825.6875 822.9688,825.9844 L822.9688,828.7031 Q822.3438,828.125 821.75,827.8594 Q821.1563,827.5781 820.5313,827.5781 Q819.1875,827.5781 818.5,828.6563 Q817.8125,829.7188 817.8125,831.8125 Q817.8125,833.9063 818.5,834.9844 Q819.1875,836.0469 820.5313,836.0469 Q821.1563,836.0469 821.75,835.7813 Q822.3438,835.5 822.9688,834.9219 L822.9688,837.6406 Z "/><text fill="#000000" font-family="sans-serif" font-size="12" lengthAdjust="spacingAndGlyphs" textLength="134" x="834" y="836.1543">FeatureAnchorParser</text><line style="stroke: #A80036; stroke-width: 1.5;" x1="806" x2="970" y1="848" y2="848"/><line style="stroke: #A80036; stroke-width: 1.5;" x1="806" x2="970" y1="856" y2="856"/><!--class MarkdownAnchorParser--><rect fill="#FEFECE" filter="url(#f170idswyj1bwc)" height="48" id="MarkdownAnchorParser" style="stroke: #A80036; stroke-width: 1.5;" width="180" x="1006" y="816"/><ellipse cx="1021" cy="832" fill="#ADD1B2" rx="11" ry="11" style="stroke: #A80036; stroke-width: 1.0;"/><path d="M1023.9688,837.6406 Q1023.3906,837.9375 1022.75,838.0781 Q1022.1094,838.2344 1021.4063,838.2344 Q1018.9063,838.2344 1017.5781,836.5938 Q1016.2656,834.9375 1016.2656,831.8125 Q1016.2656,828.6875 1017.5781,827.0313 Q1018.9063,825.375 1021.4063,825.375 Q1022.1094,825.375 1022.75,825.5313 Q1023.4063,825.6875 1023.9688,825.9844 L1023.9688,828.7031 Q1023.3438,828.125 1022.75,827.8594 Q1022.1563,827.5781 1021.5313,827.5781 Q1020.1875,827.5781 1019.5,828.6563 Q1018.8125,829.7188 1018.8125,831.8125 Q1018.8125,833.9063 1019.5,834.9844 Q1020.1875,836.0469 1021.5313,836.0469 Q1022.1563,836.0469 1022.75,835.7813 Q1023.3438,835.5 1023.9688,834.9219 L1023.9688,837.6406 Z "/><text fill="#000000" font-family="sans-serif" font-size="12" lengthAdjust="spacingAndGlyphs" textLength="148" x="1035" y="836.1543">MarkdownAnchorParser</text><line style="stroke: #A80036; stroke-width: 1.5;" x1="1007" x2="1185" y1="848" y2="848"/><line style="stroke: #A80036; stroke-width: 1.5;" x1="1007" x2="1185" y1="856" y2="856"/><!--class OpenapiAnchorParser--><rect fill="#FEFECE" filter="url(#f170idswyj1bwc)" height="48" id="OpenapiAnchorParser" style="stroke: #A80036; stroke-width: 1.5;" width="169" x="1221.5" y="816"/><ellipse cx="1236.5" cy="832" fill="#ADD1B2" rx="11" ry="11" style="stroke: #A80036; stroke-width: 1.0;"/><path d="M1239.4688,837.6406 Q1238.8906,837.9375 1238.25,838.0781 Q1237.6094,838.2344 1236.9063,838.2344 Q1234.4063,838.2344 1233.0781,836.5938 Q1231.7656,834.9375 1231.7656,831.8125 Q1231.7656,828.6875 1233.0781,827.0313 Q1234.4063,825.375 1236.9063,825.375 Q1237.6094,825.375 1238.25,825.5313 Q1238.9063,825.6875 1239.4688,825.9844 L1239.4688,828.7031 Q1238.8438,828.125 1238.25,827.8594 Q1237.6563,827.5781 1237.0313,827.5781 Q1235.6875,827.5781 1235,828.6563 Q1234.3125,829.7188 1234.3125,831.8125 Q1234.3125,833.9063 1235,834.9844 Q1235.6875,836.0469 1237.0313,836.0469 Q1237.6563,836.0469 1238.25,835.7813 Q1238.8438,835.5 1239.4688,834.9219 L1239.4688,837.6406 Z "/><text fill="#000000" font-family="sans-serif" font-size="12" lengthAdjust="spacingAndGlyphs" textLength="137" x="1250.5" y="836.1543">OpenapiAnchorParser</text><line style="stroke: #A80036; stroke-width: 1.5;" x1="1222.5" x2="1389.5" y1="848" y2="848"/><line style="stroke: #A80036; stroke-width: 1.5;" x1="1222.5" x2="1389.5" y1="856" y2="856"/><!--class UmlAnchorParser--><rect fill="#FEFECE" filter="url(#f170idswyj1bwc)" height="48" id="UmlAnchorParser" style="stroke: #A80036; stroke-width: 1.5;" width="140" x="1426" y="816"/><ellipse cx="1441" cy="832" fill="#ADD1B2" rx="11" ry="11" style="stroke: #A80036; stroke-width: 1.0;"/><path d="M1443.9688,837.6406 Q1443.3906,837.9375 1442.75,838.0781 Q1442.1094,838.2344 1441.4063,838.2344 Q1438.9063,838.2344 1437.5781,836.5938 Q1436.2656,834.9375 1436.2656,831.8125 Q1436.2656,828.6875 1437.5781,827.0313 Q1438.9063,825.375 1441.4063,825.375 Q1442.1094,825.375 1442.75,825.5313 Q1443.4063,825.6875 1443.9688,825.9844 L1443.9688,828.7031 Q1443.3438,828.125 1442.75,827.8594 Q1442.1563,827.5781 1441.5313,827.5781 Q1440.1875,827.5781 1439.5,828.6563 Q1438.8125,829.7188 1438.8125,831.8125 Q1438.8125,833.9063 1439.5,834.9844 Q1440.1875,836.0469 1441.5313,836.0469 Q1442.1563,836.0469 1442.75,835.7813 Q1443.3438,835.5 1443.9688,834.9219 L1443.9688,837.6406 Z "/><text fill="#000000" font-family="sans-serif" font-size="12" lengthAdjust="spacingAndGlyphs" textLength="108" x="1455" y="836.1543">UmlAnchorParser</text><line style="stroke: #A80036; stroke-width: 1.5;" x1="1427" x2="1565" y1="848" y2="848"/><line style="stroke: #A80036; stroke-width: 1.5;" x1="1427" x2="1565" y1="856" y2="856"/><!--class UserTaskAnchorParser--><rect fill="#FEFECE" filter="url(#f170idswyj1bwc)" height="48" id="UserTaskAnchorParser" style="stroke: #A80036; stroke-width: 1.5;" width="175" x="1601.5" y="816"/><ellipse cx="1616.5" cy="832" fill="#ADD1B2" rx="11" ry="11" style="stroke: #A80036; stroke-width: 1.0;"/><path d="M1619.4688,837.6406 Q1618.8906,837.9375 1618.25,838.0781 Q1617.6094,838.2344 1616.9063,838.2344 Q1614.4063,838.2344 1613.0781,836.5938 Q1611.7656,834.9375 1611.7656,831.8125 Q1611.7656,828.6875 1613.0781,827.0313 Q1614.4063,825.375 1616.9063,825.375 Q1617.6094,825.375 1618.25,825.5313 Q1618.9063,825.6875 1619.4688,825.9844 L1619.4688,828.7031 Q1618.8438,828.125 1618.25,827.8594 Q1617.6563,827.5781 1617.0313,827.5781 Q1615.6875,827.5781 1615,828.6563 Q1614.3125,829.7188 1614.3125,831.8125 Q1614.3125,833.9063 1615,834.9844 Q1615.6875,836.0469 1617.0313,836.0469 Q1617.6563,836.0469 1618.25,835.7813 Q1618.8438,835.5 1619.4688,834.9219 L1619.4688,837.6406 Z "/><text fill="#000000" font-family="sans-serif" font-size="12" lengthAdjust="spacingAndGlyphs" textLength="143" x="1630.5" y="836.1543">UserTaskAnchorParser</text><line style="stroke: #A80036; stroke-width: 1.5;" x1="1602.5" x2="1775.5" y1="848" y2="848"/><line style="stroke: #A80036; stroke-width: 1.5;" x1="1602.5" x2="1775.5" y1="856" y2="856"/><!--link CompositeFileParser to FileParser--><path d="M1351.01,69.07 C1349.83,84.1 1350.02,101.35 1351.59,115.65 " fill="none" id="CompositeFileParser-FileParser" style="stroke: #A80036; stroke-width: 1.0;"/><polygon fill="#A80036" points="1352.48,56.04,1347.8325,61.5537,1351.1346,67.9643,1355.7821,62.4506,1352.48,56.04" style="stroke: #A80036; stroke-width: 1.0;"/><text fill="#000000" font-family="sans-serif" font-size="13" lengthAdjust="spacingAndGlyphs" textLength="63" x="1279.7398" y="104.841">has many</text><!--link CompositeFileParser to FileParser--><path d="M1374.14,56.04 C1376,67.48 1376.76,81.77 1376.42,95.56 " fill="none" id="CompositeFileParser-FileParser-1" style="stroke: #A80036; stroke-width: 1.0; stroke-dasharray: 7.0,7.0;"/><polygon fill="none" points="1383.4,96.16,1375.08,115.65,1369.43,95.23,1383.4,96.16" style="stroke: #A80036; stroke-width: 1.0;"/><!--link FileParser to MarkdownFileParser--><path d="M1363,197.11 C1363,210.88 1363,225.18 1363,236.67 " fill="none" id="FileParser-MarkdownFileParser" style="stroke: #A80036; stroke-width: 1.0; stroke-dasharray: 7.0,7.0;"/><polygon fill="none" points="1356,197.06,1363,177.06,1370,197.06,1356,197.06" style="stroke: #A80036; stroke-width: 1.0;"/><!--link MarkdownFileParser to MarkdownRenderer--><path d="M1363,285 C1363,301 1363,322.45 1363,339.53 " fill="none" id="MarkdownFileParser-MarkdownRenderer" style="stroke: #A80036; stroke-width: 1.0;"/><polygon fill="#A80036" points="1363,344.68,1367,335.68,1363,339.68,1359,335.68,1363,344.68" style="stroke: #A80036; stroke-width: 1.0;"/><text fill="#000000" font-family="sans-serif" font-size="13" lengthAdjust="spacingAndGlyphs" textLength="30" x="1329.3438" y="334.007">uses</text><!--link MarkdownRenderer to HtmlParser--><path d="M1363,406.07 C1363,421.1 1363,438.35 1363,452.65 " fill="none" id="MarkdownRenderer-HtmlParser" style="stroke: #A80036; stroke-width: 1.0;"/><polygon fill="#A80036" points="1363,393.04,1359,399.04,1363,405.04,1367,399.04,1363,393.04" style="stroke: #A80036; stroke-width: 1.0;"/><text fill="#000000" font-family="sans-serif" font-size="13" lengthAdjust="spacingAndGlyphs" textLength="63" x="1293.5031" y="441.841">has many</text><!--link HtmlParser to AnchorHtmlParser--><path d="M1230.48,514.56 C1156.16,531.6 1061.82,553.55 978,574 C972.36,575.38 966.53,576.82 960.66,578.29 " fill="none" id="HtmlParser-AnchorHtmlParser" style="stroke: #A80036; stroke-width: 1.0; stroke-dasharray: 7.0,7.0;"/><polygon fill="none" points="1229.34,507.64,1250.4,510,1232.46,521.28,1229.34,507.64" style="stroke: #A80036; stroke-width: 1.0;"/><!--link HtmlParser to CleanUpHtmlParser--><path d="M1267.86,521.28 C1223.09,538.59 1171.06,558.7 1131.88,573.85 " fill="none" id="HtmlParser-CleanUpHtmlParser" style="stroke: #A80036; stroke-width: 1.0; stroke-dasharray: 7.0,7.0;"/><polygon fill="none" points="1265.36,514.74,1286.54,514.06,1270.41,527.8,1265.36,514.74" style="stroke: #A80036; stroke-width: 1.0;"/><!--link HtmlParser to FullscreenHtmlParser--><path d="M1324.39,529.27 C1311.29,544.47 1297.18,560.83 1286.12,573.67 " fill="none" id="HtmlParser-FullscreenHtmlParser" style="stroke: #A80036; stroke-width: 1.0; stroke-dasharray: 7.0,7.0;"/><polygon fill="none" points="1319.15,524.63,1337.51,514.06,1329.76,533.78,1319.15,524.63" style="stroke: #A80036; stroke-width: 1.0;"/><!--link HtmlParser to HeadingHtmlParser--><path d="M1401.61,529.27 C1414.71,544.47 1428.82,560.83 1439.88,573.67 " fill="none" id="HtmlParser-HeadingHtmlParser" style="stroke: #A80036; stroke-width: 1.0; stroke-dasharray: 7.0,7.0;"/><polygon fill="none" points="1396.24,533.78,1388.49,514.06,1406.85,524.63,1396.24,533.78" style="stroke: #A80036; stroke-width: 1.0;"/><!--link HtmlParser to ImageHtmlParser--><path d="M1454.75,521.63 C1497.33,538.86 1546.62,558.81 1583.79,573.85 " fill="none" id="HtmlParser-ImageHtmlParser" style="stroke: #A80036; stroke-width: 1.0; stroke-dasharray: 7.0,7.0;"/><polygon fill="none" points="1451.95,528.05,1436.04,514.06,1457.21,515.07,1451.95,528.05" style="stroke: #A80036; stroke-width: 1.0;"/><!--link HtmlParser to UnsortedListHtmlParser--><path d="M1495.3,515.97 C1575.24,534.98 1675.03,558.72 1745.91,575.57 " fill="none" id="HtmlParser-UnsortedListHtmlParser" style="stroke: #A80036; stroke-width: 1.0; stroke-dasharray: 7.0,7.0;"/><polygon fill="none" points="1493.53,522.74,1475.69,511.3,1496.77,509.12,1493.53,522.74" style="stroke: #A80036; stroke-width: 1.0;"/><!--link AnchorHtmlParser to AnchorParser--><path d="M888,635.48 C888,650.16 888,667.05 888,681.71 " fill="none" id="AnchorHtmlParser-AnchorParser" style="stroke: #A80036; stroke-width: 1.0;"/><polygon fill="#A80036" points="888,622.23,884,628.23,888,634.23,892,628.23,888,622.23" style="stroke: #A80036; stroke-width: 1.0;"/><text fill="#000000" font-family="sans-serif" font-size="13" lengthAdjust="spacingAndGlyphs" textLength="63" x="819.3891" y="670.8453">has many</text><!--link AnchorParser to AsyncapiAnchorParser--><path d="M684.17,743.77 C545.74,761.01 358.77,786.42 195,816 C189.5,816.99 183.85,818.08 178.16,819.21 " fill="none" id="AnchorParser-AsyncapiAnchorParser" style="stroke: #A80036; stroke-width: 1.0; stroke-dasharray: 7.0,7.0;"/><polygon fill="none" points="683.53,736.8,704.23,741.29,685.25,750.69,683.53,736.8" style="stroke: #A80036; stroke-width: 1.0;"/><!--link AnchorParser to BPMNAnchorParser--><path d="M684.62,756.17 C592.33,773.22 481.92,794.51 383,816 C377.17,817.27 371.15,818.62 365.11,820.02 " fill="none" id="AnchorParser-BPMNAnchorParser" style="stroke: #A80036; stroke-width: 1.0; stroke-dasharray: 7.0,7.0;"/><polygon fill="none" points="683.39,749.27,704.33,752.54,685.92,763.04,683.39,749.27" style="stroke: #A80036; stroke-width: 1.0;"/><!--link AnchorParser to CodeAnchorParser--><path d="M743.43,761.65 C678,780.51 603.41,802 549.5,817.53 " fill="none" id="AnchorParser-CodeAnchorParser" style="stroke: #A80036; stroke-width: 1.0; stroke-dasharray: 7.0,7.0;"/><polygon fill="none" points="741.81,754.84,762.97,756.03,745.69,768.29,741.81,754.84" style="stroke: #A80036; stroke-width: 1.0;"/><!--link AnchorParser to DashboardAnchorParser--><path d="M806.68,765.86 C776.36,782.96 743.23,801.65 718.05,815.85 " fill="none" id="AnchorParser-DashboardAnchorParser" style="stroke: #A80036; stroke-width: 1.0; stroke-dasharray: 7.0,7.0;"/><polygon fill="none" points="803.26,759.75,824.12,756.03,810.14,771.95,803.26,759.75" style="stroke: #A80036; stroke-width: 1.0;"/><!--link AnchorParser to FeatureAnchorParser--><path d="M888,776.07 C888,790.12 888,804.43 888,815.85 " fill="none" id="AnchorParser-FeatureAnchorParser" style="stroke: #A80036; stroke-width: 1.0; stroke-dasharray: 7.0,7.0;"/><polygon fill="none" points="881,776.03,888,756.03,895,776.03,881,776.03" style="stroke: #A80036; stroke-width: 1.0;"/><!--link AnchorParser to MarkdownAnchorParser--><path d="M968.59,766.1 C998.36,783.14 1030.83,801.71 1055.54,815.85 " fill="none" id="AnchorParser-MarkdownAnchorParser" style="stroke: #A80036; stroke-width: 1.0; stroke-dasharray: 7.0,7.0;"/><polygon fill="none" points="964.85,772.03,950.97,756.03,971.81,759.88,964.85,772.03" style="stroke: #A80036; stroke-width: 1.0;"/><!--link AnchorParser to OpenapiAnchorParser--><path d="M1034.11,761.6 C1098.16,779.83 1170.89,800.53 1225,815.94 " fill="none" id="AnchorParser-OpenapiAnchorParser" style="stroke: #A80036; stroke-width: 1.0; stroke-dasharray: 7.0,7.0;"/><polygon fill="none" points="1031.87,768.24,1014.55,756.03,1035.7,754.77,1031.87,768.24" style="stroke: #A80036; stroke-width: 1.0;"/><!--link AnchorParser to UmlAnchorParser--><path d="M1091.48,754.01 C1187.77,771.02 1304.16,792.88 1408,816 C1413.86,817.3 1419.91,818.73 1425.98,820.21 " fill="none" id="AnchorParser-UmlAnchorParser" style="stroke: #A80036; stroke-width: 1.0; stroke-dasharray: 7.0,7.0;"/><polygon fill="none" points="1090.05,760.87,1071.56,750.51,1092.47,747.08,1090.05,760.87" style="stroke: #A80036; stroke-width: 1.0;"/><!--link AnchorParser to UserTaskAnchorParser--><path d="M1091.95,743.85 C1231.04,761.16 1419.18,786.63 1584,816 C1589.7,817.01 1595.55,818.12 1601.44,819.28 " fill="none" id="AnchorParser-UserTaskAnchorParser" style="stroke: #A80036; stroke-width: 1.0; stroke-dasharray: 7.0,7.0;"/><polygon fill="none" points="1090.78,750.76,1071.79,741.35,1092.5,736.86,1090.78,750.76" style="stroke: #A80036; stroke-width: 1.0;"/><!--
@startuml

class MarkdownRenderer

interface FileParser {
    async parse(file: string) : void
}
class CompositeFileParser
Class MarkdownFileParser

interface HtmlParser {
    async parse(element: Element) : void
}
class AnchorHtmlParser
class CleanUpHtmlParser
class FullscreenHtmlParser
class HeadingHtmlParser
class ImageHtmlParser
class UnsortedListHtmlParser

interface AnchorParser {
    canParse(anchor: HTMLAnchorElement) : bool
    async parse(file: string, anchor: HTMLAnchorElement) : string;
}
class AsyncapiAnchorParser
class BPMNAnchorParser
class CodeAnchorParser
class DashboardAnchorParser
class FeatureAnchorParser
class MarkdownAnchorParser
class OpenapiAnchorParser
class UmlAnchorParser
class UserTaskAnchorParser

CompositeFileParser *- - "has many" FileParser
FileParser <|.. MarkdownFileParser
CompositeFileParser ..|> FileParser

MarkdownFileParser - -> "uses" MarkdownRenderer

MarkdownRenderer *- - "has many" HtmlParser

HtmlParser <|.. AnchorHtmlParser
HtmlParser <|.. CleanUpHtmlParser
HtmlParser <|.. FullscreenHtmlParser
HtmlParser <|.. HeadingHtmlParser
HtmlParser <|.. ImageHtmlParser
HtmlParser <|.. UnsortedListHtmlParser

AnchorHtmlParser *- - "has many" AnchorParser
AnchorParser <|.. AsyncapiAnchorParser
AnchorParser <|.. BPMNAnchorParser
AnchorParser <|.. CodeAnchorParser
AnchorParser <|.. DashboardAnchorParser
AnchorParser <|.. FeatureAnchorParser
AnchorParser <|.. MarkdownAnchorParser
AnchorParser <|.. OpenapiAnchorParser
AnchorParser <|.. UmlAnchorParser
AnchorParser <|.. UserTaskAnchorParser

@enduml

PlantUML version 1.2019.06(Fri May 24 17:10:25 UTC 2019)
(GPL source distribution)
Java Runtime: OpenJDK Runtime Environment
JVM: OpenJDK 64-Bit Server VM
Java Version: 11.0.14.1+1
Operating System: Linux
OS Version: 5.13.0-1021-azure
Default Encoding: UTF-8
Language: en
Country: null
--></g></svg>