<svg xmlns="http://www.w3.org/2000/svg" xmlns:xlink="http://www.w3.org/1999/xlink" contentstyletype="text/css" height="567px" preserveAspectRatio="none" style="width:666px;height:567px;background:#FFFFFF;" version="1.1" viewBox="0 0 666 567" width="666px" zoomAndPan="magnify"><defs></defs><g><!--class BPMN--><g id="elem_BPMN"><rect codeline="2" fill="#F1F1F1" height="64.2969" id="BPMN" rx="2.5" ry="2.5" style="stroke:#181818;stroke-width:0.5;" width="115" x="298.5" y="7"></rect><ellipse cx="332.4" cy="23" fill="#ADD1B2" rx="11" ry="11" style="stroke:#181818;stroke-width:1.0;"></ellipse><path d="M335.3688,28.6406 Q334.7906,28.9375 334.15,29.0781 Q333.5094,29.2344 332.8063,29.2344 Q330.3063,29.2344 328.9781,27.5938 Q327.6656,25.9375 327.6656,22.8125 Q327.6656,19.6875 328.9781,18.0313 Q330.3063,16.375 332.8063,16.375 Q333.5094,16.375 334.15,16.5313 Q334.8063,16.6875 335.3688,16.9844 L335.3688,19.7031 Q334.7438,19.125 334.15,18.8594 Q333.5563,18.5781 332.9313,18.5781 Q331.5875,18.5781 330.9,19.6563 Q330.2125,20.7188 330.2125,22.8125 Q330.2125,24.9063 330.9,25.9844 Q331.5875,27.0469 332.9313,27.0469 Q333.5563,27.0469 334.15,26.7813 Q334.7438,26.5 335.3688,25.9219 L335.3688,28.6406 Z " fill="#000000"></path><text fill="#000000" font-family="sans-serif" font-size="14" lengthAdjust="spacing" textLength="41" x="350.6" y="27.8467">BPMN</text><line style="stroke:#181818;stroke-width:0.5;" x1="299.5" x2="412.5" y1="39" y2="39"></line><text fill="#000000" font-family="sans-serif" font-size="14" lengthAdjust="spacing" textLength="103" x="304.5" y="55.9951">string defintion</text><line style="stroke:#181818;stroke-width:0.5;" x1="299.5" x2="412.5" y1="63.2969" y2="63.2969"></line></g><!--class BPMNFeature--><g id="elem_BPMNFeature"><rect codeline="6" fill="#F1F1F1" height="96.8906" id="BPMNFeature" rx="2.5" ry="2.5" style="stroke:#181818;stroke-width:0.5;" width="153" x="279.5" y="148"></rect><ellipse cx="306.65" cy="164" fill="#ADD1B2" rx="11" ry="11" style="stroke:#181818;stroke-width:1.0;"></ellipse><path d="M309.6188,169.6406 Q309.0406,169.9375 308.4,170.0781 Q307.7594,170.2344 307.0563,170.2344 Q304.5563,170.2344 303.2281,168.5938 Q301.9156,166.9375 301.9156,163.8125 Q301.9156,160.6875 303.2281,159.0313 Q304.5563,157.375 307.0563,157.375 Q307.7594,157.375 308.4,157.5313 Q309.0563,157.6875 309.6188,157.9844 L309.6188,160.7031 Q308.9938,160.125 308.4,159.8594 Q307.8063,159.5781 307.1813,159.5781 Q305.8375,159.5781 305.15,160.6563 Q304.4625,161.7188 304.4625,163.8125 Q304.4625,165.9063 305.15,166.9844 Q305.8375,168.0469 307.1813,168.0469 Q307.8063,168.0469 308.4,167.7813 Q308.9938,167.5 309.6188,166.9219 L309.6188,169.6406 Z " fill="#000000"></path><text fill="#000000" font-family="sans-serif" font-size="14" lengthAdjust="spacing" textLength="94" x="323.35" y="168.8467">BPMNFeature</text><line style="stroke:#181818;stroke-width:0.5;" x1="280.5" x2="431.5" y1="180" y2="180"></line><text fill="#000000" font-family="sans-serif" font-size="14" lengthAdjust="spacing" textLength="55" x="285.5" y="196.9951">string id</text><text fill="#000000" font-family="sans-serif" font-size="14" lengthAdjust="spacing" textLength="82" x="285.5" y="213.292">string name</text><text fill="#000000" font-family="sans-serif" font-size="14" lengthAdjust="spacing" textLength="141" x="285.5" y="229.5889">Scenario[] scenarios</text><line style="stroke:#181818;stroke-width:0.5;" x1="280.5" x2="431.5" y1="236.8906" y2="236.8906"></line></g><!--class Scenario--><g id="elem_Scenario"><rect codeline="12" fill="#F1F1F1" height="80.5938" id="Scenario" rx="2.5" ry="2.5" style="stroke:#181818;stroke-width:0.5;" width="94" x="309" y="322"></rect><ellipse cx="324.9" cy="338" fill="#B4A7E5" rx="11" ry="11" style="stroke:#181818;stroke-width:1.0;"></ellipse><path d="M320.8219,333.7656 L320.8219,331.6094 L328.2125,331.6094 L328.2125,333.7656 L325.7438,333.7656 L325.7438,341.8438 L328.2125,341.8438 L328.2125,344 L320.8219,344 L320.8219,341.8438 L323.2906,341.8438 L323.2906,333.7656 L320.8219,333.7656 Z " fill="#000000"></path><text fill="#000000" font-family="sans-serif" font-size="14" font-style="italic" lengthAdjust="spacing" textLength="60" x="339.1" y="342.8467">Scenario</text><line style="stroke:#181818;stroke-width:0.5;" x1="310" x2="402" y1="354" y2="354"></line><text fill="#000000" font-family="sans-serif" font-size="14" lengthAdjust="spacing" textLength="55" x="315" y="370.9951">string id</text><text fill="#000000" font-family="sans-serif" font-size="14" lengthAdjust="spacing" textLength="82" x="315" y="387.292">string name</text><line style="stroke:#181818;stroke-width:0.5;" x1="310" x2="402" y1="394.5938" y2="394.5938"></line></g><!--class ExclusiveGatewayScenario--><g id="elem_ExclusiveGatewayScenario"><rect codeline="17" fill="#F1F1F1" height="96.8906" id="ExclusiveGatewayScenario" rx="2.5" ry="2.5" style="stroke:#181818;stroke-width:0.5;" width="214" x="7" y="464"></rect><ellipse cx="22" cy="480" fill="#ADD1B2" rx="11" ry="11" style="stroke:#181818;stroke-width:1.0;"></ellipse><path d="M24.9688,485.6406 Q24.3906,485.9375 23.75,486.0781 Q23.1094,486.2344 22.4063,486.2344 Q19.9063,486.2344 18.5781,484.5938 Q17.2656,482.9375 17.2656,479.8125 Q17.2656,476.6875 18.5781,475.0313 Q19.9063,473.375 22.4063,473.375 Q23.1094,473.375 23.75,473.5313 Q24.4063,473.6875 24.9688,473.9844 L24.9688,476.7031 Q24.3438,476.125 23.75,475.8594 Q23.1563,475.5781 22.5313,475.5781 Q21.1875,475.5781 20.5,476.6563 Q19.8125,477.7188 19.8125,479.8125 Q19.8125,481.9063 20.5,482.9844 Q21.1875,484.0469 22.5313,484.0469 Q23.1563,484.0469 23.75,483.7813 Q24.3438,483.5 24.9688,482.9219 L24.9688,485.6406 Z " fill="#000000"></path><text fill="#000000" font-family="sans-serif" font-size="14" lengthAdjust="spacing" textLength="182" x="36" y="484.8467">ExclusiveGatewayScenario</text><line style="stroke:#181818;stroke-width:0.5;" x1="8" x2="220" y1="496" y2="496"></line><text fill="#000000" font-family="sans-serif" font-size="14" lengthAdjust="spacing" textLength="82" x="13" y="512.9951">object state</text><text fill="#000000" font-family="sans-serif" font-size="14" lengthAdjust="spacing" textLength="100" x="13" y="529.292">string gateway</text><text fill="#000000" font-family="sans-serif" font-size="14" lengthAdjust="spacing" textLength="139" x="13" y="545.5889">string expectedFlow</text><line style="stroke:#181818;stroke-width:0.5;" x1="8" x2="220" y1="552.8906" y2="552.8906"></line></g><!--class ParallelGatewayScenario--><g id="elem_ParallelGatewayScenario"><rect codeline="23" fill="#F1F1F1" height="96.8906" id="ParallelGatewayScenario" rx="2.5" ry="2.5" style="stroke:#181818;stroke-width:0.5;" width="199" x="256.5" y="464"></rect><ellipse cx="271.5" cy="480" fill="#ADD1B2" rx="11" ry="11" style="stroke:#181818;stroke-width:1.0;"></ellipse><path d="M274.4688,485.6406 Q273.8906,485.9375 273.25,486.0781 Q272.6094,486.2344 271.9063,486.2344 Q269.4063,486.2344 268.0781,484.5938 Q266.7656,482.9375 266.7656,479.8125 Q266.7656,476.6875 268.0781,475.0313 Q269.4063,473.375 271.9063,473.375 Q272.6094,473.375 273.25,473.5313 Q273.9063,473.6875 274.4688,473.9844 L274.4688,476.7031 Q273.8438,476.125 273.25,475.8594 Q272.6563,475.5781 272.0313,475.5781 Q270.6875,475.5781 270,476.6563 Q269.3125,477.7188 269.3125,479.8125 Q269.3125,481.9063 270,482.9844 Q270.6875,484.0469 272.0313,484.0469 Q272.6563,484.0469 273.25,483.7813 Q273.8438,483.5 274.4688,482.9219 L274.4688,485.6406 Z " fill="#000000"></path><text fill="#000000" font-family="sans-serif" font-size="14" lengthAdjust="spacing" textLength="167" x="285.5" y="484.8467">ParallelGatewayScenario</text><line style="stroke:#181818;stroke-width:0.5;" x1="257.5" x2="454.5" y1="496" y2="496"></line><text fill="#000000" font-family="sans-serif" font-size="14" lengthAdjust="spacing" textLength="82" x="262.5" y="512.9951">object state</text><text fill="#000000" font-family="sans-serif" font-size="14" lengthAdjust="spacing" textLength="100" x="262.5" y="529.292">string gateway</text><text fill="#000000" font-family="sans-serif" font-size="14" lengthAdjust="spacing" textLength="157" x="262.5" y="545.5889">string[] expectedFlows</text><line style="stroke:#181818;stroke-width:0.5;" x1="257.5" x2="454.5" y1="552.8906" y2="552.8906"></line></g><!--class DMNScenario--><g id="elem_DMNScenario"><rect codeline="29" fill="#F1F1F1" height="96.8906" id="DMNScenario" rx="2.5" ry="2.5" style="stroke:#181818;stroke-width:0.5;" width="168" x="491" y="464"></rect><ellipse cx="525.35" cy="480" fill="#ADD1B2" rx="11" ry="11" style="stroke:#181818;stroke-width:1.0;"></ellipse><path d="M528.3188,485.6406 Q527.7406,485.9375 527.1,486.0781 Q526.4594,486.2344 525.7563,486.2344 Q523.2563,486.2344 521.9281,484.5938 Q520.6156,482.9375 520.6156,479.8125 Q520.6156,476.6875 521.9281,475.0313 Q523.2563,473.375 525.7563,473.375 Q526.4594,473.375 527.1,473.5313 Q527.7563,473.6875 528.3188,473.9844 L528.3188,476.7031 Q527.6938,476.125 527.1,475.8594 Q526.5063,475.5781 525.8813,475.5781 Q524.5375,475.5781 523.85,476.6563 Q523.1625,477.7188 523.1625,479.8125 Q523.1625,481.9063 523.85,482.9844 Q524.5375,484.0469 525.8813,484.0469 Q526.5063,484.0469 527.1,483.7813 Q527.6938,483.5 528.3188,482.9219 L528.3188,485.6406 Z " fill="#000000"></path><text fill="#000000" font-family="sans-serif" font-size="14" lengthAdjust="spacing" textLength="93" x="543.65" y="484.8467">DMNScenario</text><line style="stroke:#181818;stroke-width:0.5;" x1="492" x2="658" y1="496" y2="496"></line><text fill="#000000" font-family="sans-serif" font-size="14" lengthAdjust="spacing" textLength="82" x="497" y="512.9951">object state</text><text fill="#000000" font-family="sans-serif" font-size="14" lengthAdjust="spacing" textLength="74" x="497" y="529.292">string dmn</text><text fill="#000000" font-family="sans-serif" font-size="14" lengthAdjust="spacing" textLength="156" x="497" y="545.5889">object expectedResult</text><line style="stroke:#181818;stroke-width:0.5;" x1="492" x2="658" y1="552.8906" y2="552.8906"></line></g><!--reverse link BPMN to BPMNFeature--><g id="link_BPMN_BPMNFeature"><path codeline="35" d="M356,77.09 C356,99.07 356,122.95 356,147.91 " fill="none" id="BPMN-backto-BPMNFeature" style="stroke:#181818;stroke-width:1.0;"></path><polygon fill="#181818" points="356,71.09,352,80.09,356,76.09,360,80.09,356,71.09" style="stroke:#181818;stroke-width:1.0;"></polygon><text fill="#000000" font-family="sans-serif" font-size="13" lengthAdjust="spacing" textLength="68" x="357" y="114.0669">references</text></g><!--reverse link BPMNFeature to Scenario--><g id="link_BPMNFeature_Scenario"><path codeline="36" d="M356,257.38 C356,281.67 356,298.84 356,321.86 " fill="none" id="BPMNFeature-backto-Scenario" style="stroke:#181818;stroke-width:1.0;"></path><polygon fill="#181818" points="356,245.38,352,251.38,356,257.38,360,251.38,356,245.38" style="stroke:#181818;stroke-width:1.0;"></polygon><text fill="#000000" font-family="sans-serif" font-size="13" lengthAdjust="spacing" textLength="54" x="357" y="288.0669">contains</text><text fill="#000000" font-family="sans-serif" font-size="13" lengthAdjust="spacing" textLength="8" x="347.4625" y="265.0392">1</text><text fill="#000000" font-family="sans-serif" font-size="13" lengthAdjust="spacing" textLength="36" x="317.0188" y="310.9983">many</text></g><!--reverse link Scenario to ExclusiveGatewayScenario--><g id="link_Scenario_ExclusiveGatewayScenario"><path codeline="38" d="M293.4133,401.78 C260.2633,422.05 230.52,440.24 192.07,463.75 " fill="none" id="Scenario-backto-ExclusiveGatewayScenario" style="stroke:#181818;stroke-width:1.0;stroke-dasharray:7.0,7.0;"></path><polygon fill="none" points="308.77,392.39,290.2833,396.6611,296.5433,406.8989,308.77,392.39" style="stroke:#181818;stroke-width:1.0;"></polygon></g><!--reverse link Scenario to ParallelGatewayScenario--><g id="link_Scenario_ParallelGatewayScenario"><path codeline="39" d="M356,421.16 C356,439.83 356,444.24 356,463.82 " fill="none" id="Scenario-backto-ParallelGatewayScenario" style="stroke:#181818;stroke-width:1.0;stroke-dasharray:7.0,7.0;"></path><polygon fill="none" points="356,403.16,350,421.16,362,421.16,356,403.16" style="stroke:#181818;stroke-width:1.0;"></polygon></g><!--reverse link Scenario to DMNScenario--><g id="link_Scenario_DMNScenario"><path codeline="40" d="M418.1637,405.5087 C447.7137,425.4787 471.41,441.49 504.53,463.88 " fill="none" id="Scenario-backto-DMNScenario" style="stroke:#181818;stroke-width:1.0;stroke-dasharray:7.0,7.0;"></path><polygon fill="none" points="403.25,395.43,414.8041,410.48,421.5233,400.5375,403.25,395.43" style="stroke:#181818;stroke-width:1.0;"></polygon></g><!--SRC=[dP4zJmCn38Rt_0hhHgHMOgqw8IXJgmf6n61oxrL1EGV5ETeA-E-aV5okbQv3DoT-_4H-OpshqirwkQ8FGwGfEjbGZSP9Sa7Cbp6sHnRWr4KCILUNMhX5FZrQ24SNdfv9_qezUB8HiM6BdZWhwb- -srdVgNl7FITiUNyq7LvUOLCUpBqYsFoIvGAxjuoXNlYmBUOrH_OU_d9ntd6erkA-NQwAZsZKMBTIUl-k1sZdqq7sypFpoUGe_nb5D8WG2pN3HdLTqLM6gvPbNvMSPsI397QYnlINyy_fT3JS4smagHDgiBFv1W00]--></g></svg>